<svg id="Слой_1" xmlns="http://www.w3.org/2000/svg" viewBox="0 0 175 61"><style/><path fill="#2b2c35" d="M0 0h175v61H0z"/><path d="M38.1 29.2c0-4.2 3.4-6.2 3.6-6.3-1.9-2.8-5-3.2-6-3.3-2.5-.3-5 1.5-6.3 1.5-1.3 0-3.3-1.5-5.5-1.4-2.8 0-5.3 1.6-6.8 4.1-2.9 5.1-.7 12.5 2.1 16.6 1.4 2 3 4.2 5.2 4.2 2.1-.1 2.9-1.3 5.4-1.3 2.5 0 3.2 1.3 5.4 1.3s3.7-2 5-4c1.6-2.3 2.3-4.6 2.3-4.7 0-.1-4.4-1.7-4.4-6.7zM34 17c1.1-1.4 1.9-3.3 1.7-5.3-1.6.1-3.7 1.1-4.8 2.5-1 1.2-2 3.2-1.7 5.1 1.7.1 3.6-.9 4.8-2.3zm34.4 27.3h-2.9l-1.6-5h-5.6l-1.5 5H54l5.5-17.2h3.4l5.5 17.2zm-5-7.2L62 32.7c-.2-.5-.4-1.5-.9-3.2H61c-.2.7-.4 1.8-.8 3.2l-1.4 4.5h4.6zm19.2.9c0 2.1-.6 3.8-1.7 5-1 1.1-2.3 1.6-3.8 1.6-1.6 0-2.8-.6-3.5-1.8v6.5h-2.7V36c0-1.3 0-2.7-.1-4.1h2.4l.2 2h.1c.9-1.5 2.3-2.2 4.2-2.2 1.5 0 2.7.6 3.7 1.7.7 1.2 1.2 2.7 1.2 4.6zm-2.8.1c0-1.2-.3-2.2-.8-3-.6-.8-1.4-1.2-2.4-1.2-.7 0-1.3.2-1.8.7-.6.5-.9 1-1.1 1.8-.1.3-.1.6-.1.8v2.1c0 .9.3 1.7.8 2.3.6.6 1.3.9 2.2.9 1 0 1.8-.4 2.4-1.2.5-.9.8-1.9.8-3.2zm17.1-.1c0 2.1-.6 3.8-1.7 5-1 1.1-2.3 1.6-3.8 1.6-1.6 0-2.8-.6-3.5-1.8v6.5H85V36c0-1.3 0-2.7-.1-4.1h2.4l.2 2h.1c.9-1.5 2.3-2.2 4.2-2.2 1.5 0 2.7.6 3.7 1.7.9 1.2 1.4 2.7 1.4 4.6zm-2.8.1c0-1.2-.3-2.2-.8-3-.6-.8-1.4-1.2-2.4-1.2-.7 0-1.3.2-1.8.7-.6.5-.9 1-1.1 1.8-.1.3-.1.6-.1.8v2.1c0 .9.3 1.7.8 2.3.6.6 1.3.9 2.2.9 1 0 1.8-.4 2.4-1.2.5-.9.8-1.9.8-3.2zm18.7 1.4c0 1.5-.5 2.6-1.5 3.6-1.1 1-2.7 1.5-4.7 1.5-1.8 0-3.3-.4-4.4-1.1l.6-2.3c1.2.7 2.5 1.1 4 1.1 1 0 1.8-.2 2.4-.7.6-.5.9-1.1.9-1.9 0-.7-.2-1.3-.7-1.8-.5-.5-1.3-.9-2.4-1.3-3-1.1-4.5-2.8-4.5-4.9 0-1.4.5-2.6 1.6-3.5 1.1-.9 2.5-1.3 4.2-1.3 1.6 0 2.9.3 3.9.8l-.7 2.2c-1-.5-2.1-.8-3.3-.8-1 0-1.7.2-2.3.7-.5.4-.7.9-.7 1.6 0 .7.3 1.2.8 1.7.5.4 1.3.8 2.5 1.3 1.5.6 2.6 1.3 3.3 2.1.6.8 1 1.8 1 3zm9.1-5.5h-3v6c0 1.5.5 2.3 1.6 2.3.5 0 .9 0 1.2-.1l.1 2.1c-.5.2-1.3.3-2.1.3-1.1 0-1.9-.3-2.5-1-.6-.7-.9-1.8-.9-3.3V34h-1.8v-2.1h1.8v-2.3l2.7-.8v3.1h3l-.1 2.1zm13.6 4c0 1.9-.5 3.5-1.6 4.7-1.1 1.3-2.6 1.9-4.5 1.9-1.8 0-3.3-.6-4.3-1.8-1.1-1.2-1.6-2.7-1.6-4.6 0-1.9.6-3.5 1.7-4.7 1.1-1.2 2.6-1.8 4.5-1.8 1.8 0 3.3.6 4.4 1.8.9 1.1 1.4 2.7 1.4 4.5zm-2.8.1c0-1.1-.2-2.1-.7-2.9-.6-1-1.4-1.5-2.5-1.5s-1.9.5-2.5 1.5c-.5.8-.7 1.8-.7 3 0 1.1.2 2.1.7 2.9.6 1 1.4 1.5 2.5 1.5s1.9-.5 2.5-1.5c.4-.9.7-1.9.7-3zm11.8-3.8c-.3-.1-.6-.1-.9-.1-1 0-1.7.4-2.2 1.1-.5.6-.7 1.5-.7 2.4v6.5H138v-8.5c0-1.3 0-2.6-.1-3.9h2.4l.1 2.4h.1c.3-.8.7-1.5 1.4-2 .6-.4 1.3-.7 2-.7.3 0 .5 0 .7.1l-.1 2.7zm12.2 3.2c0 .4 0 .8-.1 1.2h-8.2c0 1.2.4 2.2 1.2 2.8.7.6 1.6.9 2.7.9 1.2 0 2.3-.2 3.3-.6l.4 1.9c-1.2.5-2.6.8-4.1.8-1.9 0-3.4-.6-4.5-1.7s-1.6-2.6-1.6-4.5.5-3.4 1.5-4.7c1.1-1.3 2.5-2 4.3-2 1.8 0 3.1.7 4 2 .8 1.1 1.1 2.4 1.1 3.9zm-2.6-.7c0-.8-.2-1.5-.5-2.1-.5-.8-1.2-1.1-2.2-1.1-.9 0-1.6.4-2.2 1.1-.5.6-.7 1.3-.8 2.1h5.7zM57.5 21.1c-.8 0-1.4 0-2-.1v-8.3c.8-.1 1.5-.2 2.3-.2 3.2 0 4.6 1.6 4.6 4.1.1 2.9-1.6 4.5-4.9 4.5zm.5-7.5c-.4 0-.8 0-1.1.1V20h.9c2.1 0 3.2-1.2 3.2-3.4.1-1.9-1-3-3-3zm9 7.5c-1.8 0-2.9-1.3-2.9-3.1 0-1.9 1.2-3.2 3-3.2s2.9 1.3 2.9 3.1c.1 1.9-1.2 3.2-3 3.2zm.1-5.3c-1 0-1.6.9-1.6 2.2 0 1.3.6 2.2 1.6 2.2s1.6-1 1.6-2.2c0-1.3-.7-2.2-1.6-2.2zm13.1-.9L78.3 21H77l-.8-2.6c-.2-.6-.4-1.3-.5-2-.1.7-.3 1.3-.5 2l-.8 2.6h-1.3l-1.8-6.1h1.4l.7 2.9c.2.7.3 1.3.4 2 .1-.5.3-1.2.5-1.9l.9-2.9h1.1l.8 2.8c.2.7.4 1.4.5 2 .1-.6.2-1.3.4-2l.7-2.8 1.5-.1zm7 6.1h-1.4v-3.5c0-1.1-.4-1.6-1.2-1.6-.8 0-1.4.7-1.4 1.5V21h-1.4v-4.3c0-.5 0-1.1-.1-1.7H83l.1.9c.4-.6 1.1-1.1 1.9-1.1 1.3 0 2.1 1 2.1 2.6l.1 3.6zm3.7 0h-1.4v-8.9h1.4V21zm4.9.1c-1.8 0-2.9-1.3-2.9-3.1 0-1.9 1.2-3.2 3-3.2s2.9 1.3 2.9 3.1c.1 1.9-1.1 3.2-3 3.2zm.1-5.3c-1 0-1.6.9-1.6 2.2 0 1.3.6 2.2 1.6 2.2s1.6-1 1.6-2.2c0-1.3-.7-2.2-1.6-2.2zm8.3 5.2l-.1-.7c-.4.6-1 .8-1.8.8-1.1 0-1.9-.8-1.9-1.8 0-1.5 1.3-2.3 3.6-2.3 0-.8-.4-1.2-1.3-1.2-.6 0-1.1.2-1.6.5l-.3-.9c.6-.4 1.3-.5 2.1-.5 1.6 0 2.4.8 2.4 2.5v2.2c0 .6 0 1.1.1 1.5l-1.2-.1zm-.2-3c-1.5 0-2.3.4-2.3 1.2 0 .6.4.9.9.9.7 0 1.3-.5 1.3-1.2V18zm7.9 3l-.1-1c-.4.7-1 1.1-2 1.1-1.5 0-2.6-1.3-2.6-3.1 0-1.9 1.1-3.2 2.7-3.2.8 0 1.4.3 1.7.8v-3.5h1.4v7.2c0 .6 0 1.1.1 1.6l-1.2.1zm-.2-3.6c0-.9-.6-1.6-1.4-1.6-1 0-1.6.9-1.6 2.1 0 1.2.6 2.1 1.6 2.1.8 0 1.5-.7 1.5-1.6l-.1-1zm9.9 3.7c-1.8 0-2.9-1.3-2.9-3.1 0-1.9 1.2-3.2 3-3.2s2.9 1.3 2.9 3.1c0 1.9-1.2 3.2-3 3.2zm.1-5.3c-1 0-1.6.9-1.6 2.2 0 1.3.6 2.2 1.6 2.2s1.6-1 1.6-2.2c-.1-1.3-.7-2.2-1.6-2.2zm10.2 5.2h-1.4v-3.5c0-1.1-.4-1.6-1.2-1.6-.8 0-1.3.7-1.3 1.5V21h-1.4v-4.3c0-.5 0-1.1-.1-1.7h1.2l.1.9c.4-.6 1.1-1.1 1.9-1.1 1.3 0 2.1 1 2.1 2.6V21zm9.1-5.1h-1.5v3c0 .8.3 1.1.8 1.1.2 0 .4 0 .6-.1v1c-.3.1-.6.2-1 .2-1.1 0-1.7-.6-1.7-2.1v-3.1h-.9v-1h.9v-1.1l1.3-.4v1.5h1.5v1zm7.1 5.1h-1.3v-3.5c0-1.1-.4-1.6-1.2-1.6-.7 0-1.4.5-1.4 1.4V21h-1.3v-8.9h1.3v3.7c.4-.7 1-1 1.8-1 1.3 0 2.1 1 2.1 2.6V21zm7.4-2.7h-4.1c0 1.2.8 1.8 1.9 1.8.6 0 1.2-.1 1.6-.3l.2.9c-.6.3-1.3.4-2 .4-1.9 0-3-1.2-3-3.1 0-1.9 1.2-3.3 2.9-3.3 1.6 0 2.5 1.2 2.5 2.9v.7zm-1.3-1c0-.9-.5-1.6-1.3-1.6s-1.4.7-1.5 1.6h2.8z" fill="#fff"/></svg>