<svg id="Слой_1" xmlns="http://www.w3.org/2000/svg" viewBox="0 0 190 61"><style>.st5{fill:#fff;stroke:#fff;stroke-width:.2;stroke-miterlimit:10}.st11{opacity:.12;enable-background:new}</style><path fill="#2b2c35" d="M0 0h190v61H0z"/><g id="XMLID_76_"><path id="XMLID_90_" class="st5" d="M64.9 16.7c0 1.1-.3 2-1 2.7-.8.8-1.8 1.2-3 1.2s-2.2-.4-3-1.2c-.8-.8-1.2-1.8-1.2-3s.4-2.2 1.2-3c.8-.8 1.8-1.2 3-1.2.6 0 1.1.1 1.7.3.5.2.9.5 1.3.9l-.7.7c-.5-.6-1.3-1-2.2-1-.9 0-1.6.3-2.2.9-.6.6-.9 1.4-.9 2.3s.3 1.7.9 2.3c.6.6 1.4.9 2.2.9.9 0 1.7-.3 2.3-.9.4-.4.6-.9.7-1.6h-3v-1h3.9v.7z"/><path id="XMLID_88_" class="st5" d="M71.1 13.4h-3.7V16h3.3v1h-3.3v2.6h3.7v1h-4.7v-8.1h4.7v.9z"/><path id="XMLID_86_" class="st5" d="M75.5 20.4h-1v-7.1h-2.3v-1h5.6v1h-2.3v7.1z"/><path id="XMLID_84_" class="st5" d="M81.8 20.4v-8.1h1v8.1h-1z"/><path id="XMLID_82_" class="st5" d="M87.4 20.4h-1v-7.1h-2.3v-1h5.6v1h-2.3v7.1z"/><path id="XMLID_79_" class="st5" d="M100.2 19.4c-.8.8-1.8 1.2-3 1.2s-2.2-.4-3-1.2c-.8-.8-1.2-1.8-1.2-3s.4-2.2 1.2-3c.8-.8 1.8-1.2 3-1.2s2.2.4 3 1.2c.8.8 1.2 1.8 1.2 3s-.4 2.2-1.2 3zm-5.2-.7c.6.6 1.3.9 2.2.9.9 0 1.6-.3 2.2-.9.6-.6.9-1.4.9-2.3s-.3-1.7-.9-2.3c-.6-.6-1.3-.9-2.2-.9-.9 0-1.6.3-2.2.9-.6.6-.9 1.4-.9 2.3s.3 1.7.9 2.3z"/><path id="XMLID_77_" class="st5" d="M102.8 20.4v-8.1h1.3l3.9 6.3v-6.3h1v8.1h-1l-4.1-6.6v6.6h-1.1z"/></g><path id="XMLID_52_" d="M92.8 32.2c-3.2 0-5.7 2.4-5.7 5.7 0 3.3 2.6 5.7 5.7 5.7 3.2 0 5.7-2.4 5.7-5.7.1-3.3-2.5-5.7-5.7-5.7zm0 9.2c-1.7 0-3.2-1.4-3.2-3.5s1.5-3.5 3.2-3.5c1.7 0 3.2 1.4 3.2 3.5.1 2.1-1.4 3.5-3.2 3.5zm-12.5-9.2c-3.2 0-5.7 2.4-5.7 5.7 0 3.3 2.6 5.7 5.7 5.7 3.2 0 5.7-2.4 5.7-5.7 0-3.3-2.6-5.7-5.7-5.7zm0 9.2C78.5 41.4 77 40 77 38c0-2.1 1.5-3.5 3.2-3.5 1.7 0 3.2 1.4 3.2 3.5.1 2-1.4 3.4-3.1 3.4zM65.4 34v2.4h5.8c-.2 1.4-.6 2.4-1.3 3.1-.8.8-2.2 1.8-4.5 1.8-3.6 0-6.4-2.9-6.4-6.5s2.8-6.5 6.4-6.5c1.9 0 3.3.8 4.4 1.7l1.7-1.7c-1.5-1.4-3.4-2.5-6.1-2.5-4.9 0-9 4-9 8.9s4.1 8.9 9 8.9c2.6 0 4.6-.9 6.2-2.5 1.6-1.6 2.1-3.9 2.1-5.7 0-.6 0-1.1-.1-1.5h-8.2zm61 1.9c-.5-1.3-1.9-3.6-4.9-3.6-3 0-5.4 2.3-5.4 5.7 0 3.2 2.4 5.7 5.7 5.7 2.6 0 4.1-1.6 4.8-2.5l-2-1.3c-.7 1-1.5 1.6-2.8 1.6-1.3 0-2.2-.6-2.8-1.7l7.7-3.2-.3-.7zm-7.8 1.9c-.1-2.2 1.7-3.3 3-3.3 1 0 1.8.5 2.1 1.2l-5.1 2.1zm-6.3 5.5h2.5V26.5h-2.5v16.8zm-4.1-9.8c-.7-.7-1.7-1.3-3.1-1.3-2.9 0-5.5 2.5-5.5 5.7s2.6 5.7 5.5 5.7c1.4 0 2.5-.6 3-1.3h.1v.8c0 2.2-1.2 3.4-3.1 3.4-1.5 0-2.5-1.1-2.9-2l-2.2.9c.6 1.5 2.3 3.4 5.1 3.4 3 0 5.4-1.7 5.4-6V32.6h-2.4v.9zm-2.9 7.9c-1.7 0-3.2-1.5-3.2-3.4 0-2 1.5-3.5 3.2-3.5 1.7 0 3.1 1.5 3.1 3.5s-1.4 3.4-3.1 3.4zm32.9-14.9h-6v16.8h2.5V37h3.5c2.8 0 5.5-2 5.5-5.2s-2.8-5.3-5.5-5.3zm0 8.1h-3.6v-5.8h3.6c1.9 0 2.9 1.6 2.9 2.9.1 1.3-1 2.9-2.9 2.9zm15.6-2.4c-1.8 0-3.7.8-4.5 2.6l2.2.9c.5-.9 1.4-1.2 2.3-1.2 1.3 0 2.6.8 2.6 2.2v.2c-.5-.3-1.4-.6-2.6-.6-2.4 0-4.9 1.3-4.9 3.8 0 2.3 2 3.7 4.2 3.7 1.7 0 2.6-.8 3.2-1.6h.1v1.3h2.4V37c.1-3.1-2.2-4.8-5-4.8zm-.3 9.2c-.8 0-2-.4-2-1.4 0-1.3 1.4-1.8 2.7-1.8 1.1 0 1.6.2 2.3.6-.3 1.5-1.6 2.6-3 2.6zm14.2-8.8l-2.9 7.3h-.1l-3-7.3H159l4.5 10.2-2.6 5.7h2.6l6.9-15.9h-2.7zm-22.6 10.7h2.5V26.5h-2.5v16.8z" fill="#fff"/><g id="XMLID_39_"><linearGradient id="XMLID_19_" gradientUnits="userSpaceOnUse" x1="35.427" y1="422.581" x2="12.827" y2="399.981" gradientTransform="matrix(1 0 0 -1 0 437.243)"><stop offset="0" stop-color="#00a0ff"/><stop offset=".007" stop-color="#00a1ff"/><stop offset=".26" stop-color="#00beff"/><stop offset=".512" stop-color="#00d2ff"/><stop offset=".76" stop-color="#00dfff"/><stop offset="1" stop-color="#00e3ff"/></linearGradient><path id="XMLID_8_" d="M20.1 13.1c-.4.4-.6 1.1-.6 1.9v29.8c0 .8.2 1.5.6 1.9l.1.1 16.7-16.7v-.4L20.1 13.1z" fill="url(#XMLID_19_)"/><linearGradient id="XMLID_35_" gradientUnits="userSpaceOnUse" x1="51.633" y1="407.375" x2="19.049" y2="407.375" gradientTransform="matrix(1 0 0 -1 0 437.243)"><stop offset="0" stop-color="#ffe000"/><stop offset=".409" stop-color="#ffbd00"/><stop offset=".775" stop-color="orange"/><stop offset="1" stop-color="#ff9c00"/></linearGradient><path id="XMLID_7_" d="M42.5 35.6L36.9 30v-.4l5.6-5.6.1.1 6.6 3.7c1.9 1.1 1.9 2.8 0 3.9l-6.6 3.7-.1.2z" fill="url(#XMLID_35_)"/><linearGradient id="XMLID_36_" gradientUnits="userSpaceOnUse" x1="39.503" y1="404.285" x2="8.857" y2="373.638" gradientTransform="matrix(1 0 0 -1 0 437.243)"><stop offset="0" stop-color="#ff3a44"/><stop offset="1" stop-color="#c31162"/></linearGradient><path id="XMLID_6_" d="M42.6 35.6l-5.7-5.7-16.8 16.8c.6.7 1.6.7 2.8.1l19.7-11.2" fill="url(#XMLID_36_)"/><linearGradient id="XMLID_37_" gradientUnits="userSpaceOnUse" x1="15.898" y1="434.072" x2="29.583" y2="420.387" gradientTransform="matrix(1 0 0 -1 0 437.243)"><stop offset="0" stop-color="#32a071"/><stop offset=".069" stop-color="#2da771"/><stop offset=".476" stop-color="#15cf74"/><stop offset=".801" stop-color="#06e775"/><stop offset="1" stop-color="#00f076"/></linearGradient><path id="XMLID_5_" d="M42.6 24.2L22.9 13c-1.2-.7-2.2-.6-2.8.1l16.8 16.8 5.7-5.7z" fill="url(#XMLID_37_)"/><g id="XMLID_42_"><path id="XMLID_4_" d="M42.5 35.4L22.9 46.5c-1.1.6-2.1.6-2.7 0l-.1.1.1.1c.6.6 1.6.6 2.7 0l19.7-11.2-.1-.1z" opacity=".2"/><path id="XMLID_3_" class="st11" d="M20.1 46.5c-.4-.4-.6-1.1-.6-1.9v.2c0 .8.2 1.5.6 1.9l.1-.1-.1-.1z"/></g><path id="XMLID_2_" class="st11" d="M49.2 31.6l-6.7 3.8.1.1 6.6-3.7c.9-.5 1.4-1.2 1.4-1.9-.1.6-.6 1.2-1.4 1.7z"/><path id="XMLID_1_" d="M22.9 13.2l26.3 14.9c.9.5 1.3 1.1 1.4 1.7 0-.7-.5-1.4-1.4-1.9L22.9 13c-1.9-1.1-3.4-.2-3.4 2v.2c0-2.2 1.5-3.1 3.4-2z" opacity=".25" fill="#fff"/></g></svg>