<svg width="18" height="18" viewBox="0 0 18 18" fill="none" xmlns="http://www.w3.org/2000/svg">
<path d="M11.5833 15.1417L12.4166 16.5917C11.6166 16.9583 10.7416 17.2 9.83331 17.2917V15.6083C10.45 15.5333 11.0333 15.375 11.5833 15.1417ZM2.39165 9.83334H0.708313C0.79998 10.75 1.04165 11.6167 1.40831 12.4167L2.85831 11.5833C2.62498 11.0333 2.46665 10.45 2.39165 9.83334ZM11.5833 2.85834L12.4166 1.40834C11.6166 1.04168 10.75 0.80001 9.83331 0.708344V2.39168C10.45 2.46668 11.0333 2.62501 11.5833 2.85834ZM15.6083 8.16668H17.2916C17.2 7.25001 16.9583 6.38334 16.5916 5.58334L15.1416 6.41668C15.375 6.96668 15.5333 7.55001 15.6083 8.16668ZM6.41665 15.1417L5.58331 16.5917C6.38331 16.9583 7.25831 17.2 8.16665 17.2917V15.6083C7.54998 15.5333 6.96665 15.375 6.41665 15.1417ZM8.16665 2.39168V0.708344C7.24998 0.80001 6.38331 1.04168 5.58331 1.40834L6.41665 2.85834C6.96665 2.62501 7.54998 2.46668 8.16665 2.39168ZM14.3 4.97501L15.75 4.13334C15.225 3.40834 14.5833 2.76668 13.8583 2.24168L13.0166 3.69168C13.5083 4.06668 13.9333 4.49168 14.3 4.97501ZM2.85831 6.41668L1.40831 5.58334C1.04165 6.38334 0.79998 7.25001 0.708313 8.16668H2.39165C2.46665 7.55001 2.62498 6.96668 2.85831 6.41668ZM15.6083 9.83334C15.5333 10.45 15.375 11.0333 15.1416 11.5833L16.5916 12.4167C16.9583 11.6167 17.2 10.7417 17.2916 9.83334H15.6083ZM13.025 14.3L13.8666 15.75C14.5916 15.225 15.2333 14.5833 15.7583 13.8583L14.3083 13.0167C13.9333 13.5083 13.5083 13.9333 13.025 14.3ZM4.97498 3.70001L4.14165 2.24168C3.40831 2.77501 2.77498 3.40834 2.24998 4.14168L3.69998 4.98334C4.06665 4.49168 4.49165 4.06668 4.97498 3.70001ZM3.69998 13.025L2.24998 13.8583C2.77498 14.5833 3.41665 15.225 4.14165 15.75L4.98331 14.3C4.49165 13.9333 4.06665 13.5083 3.69998 13.025ZM9.83331 4.83334H8.16665V9.34168L11.7416 12.9167L12.9166 11.7417L9.83331 8.65834V4.83334Z" fill="#36373c"/>
</svg>
