<?xml version="1.0" encoding="utf-8"?>
<!-- Generator: Adobe Illustrator 21.0.0, SVG Export Plug-In . SVG Version: 6.00 Build 0)  -->
<svg version="1.1" id="Layer_1" xmlns="http://www.w3.org/2000/svg" xmlns:xlink="http://www.w3.org/1999/xlink" x="0px" y="0px"
	 viewBox="0 0 952.3 264" style="enable-background:new 0 0 952.3 264;" xml:space="preserve">
<style type="text/css">
	.st0{fill:#6352CD;}
	.st1{fill:#FFFFFF;}
</style>
<g>
	<g>
		<path class="st0" d="M83,115.2l-83-48v38v92.9l31,18V216l83,48v-43v-57.9v-30L83,115.2L83,115.2z M83,213l-52-28.4v-66.2l52,28.7
			V213z M228,64.3l-29.7-17.2l-82.7,46.2l-10.2-6.1l81.8-46.6l-31.4-18.1L75.9,69.9L66,64l80.6-46.7L116.6,0L3,63.2l32,19l65.4,37.4
			l16.1,9.6l0.2-0.1l0.2,0.1l7.7-4.7L228,64.3z M150,115.2L150,115.2l-31,17.9v30V221v43l83-48v0.1l31-18v-48l-31,18v16.5L150,213
			v-65.9l52-29.7v21.7l31-18v-16v-38L150,115.2z"/>
	</g>
</g>
<g>
	<g>
		<path class="st1" d="M333.6,76.7c-30.1,0-52.3,20.7-52.3,49s22.2,49,52.3,49s52.3-20.7,52.3-49S363.7,76.7,333.6,76.7z
			 M333.6,152.6c-14.3,0-25.4-10.6-25.4-26.9c0-16.3,11.2-26.9,25.4-26.9s25.4,10.6,25.4,26.9C359,142,347.8,152.6,333.6,152.6z
			 M444.5,98.6c-9.5,0-16.7,2.7-21.5,8.5v-7.3h-24.3v99.1h25.6v-32.6c5,5.1,11.8,7.7,20.3,7.7c19.8,0,35.8-14.5,35.8-37.7
			C480.3,113.2,464.3,98.6,444.5,98.6z M439.2,153.7c-8.6,0-15.3-6.3-15.3-17.4c0-11,6.7-17.4,15.3-17.4s15.3,6.3,15.3,17.4
			C454.5,147.4,447.8,153.7,439.2,153.7z M527.7,98.6c-23,0-40.1,15.6-40.1,37.6c0,21.8,16.8,37.8,42.8,37.8
			c13.9,0,24.1-4,31.1-11.8l-13.5-14c-5,4.3-9.7,6.3-16.8,6.3c-9.4,0-15.7-4.3-17.9-11.7h53c0.1-2,0.4-4.4,0.4-6.3
			C566.7,112.4,549.2,98.6,527.7,98.6z M512.9,129.3c1.5-7.7,7-12.5,14.9-12.5c7.9,0,13.6,4.8,14.9,12.5H512.9z M626,98.6
			c-9.1,0-17.4,3.1-23.1,9.2v-7.9h-24.3v73h25.6v-35.3c0-12.1,6.3-17.2,14.5-17.2c7.4,0,12,4.4,12,14.9v37.6h25.6v-41.7
			C656.1,108.5,643.1,98.6,626,98.6z M721.6,98.8c9,0,16.3,3.9,22.2,11l16.9-15.3c-9.1-11.4-23.1-17.8-40.5-17.8
			c-29.9,0-51.8,20.3-51.8,49c0,28.7,21.9,49,51.8,49c17.4,0,31.3-6.3,40.5-17.8l-16.9-15.3c-5.9,7.1-13.2,11-22.2,11
			c-15.5,0-26.2-10.8-26.2-26.9C695.4,109.5,706.2,98.8,721.6,98.8z M799,135h41.8V115H799V99.2h47.5V78.6h-73.8v94.2h75.6v-20.6
			H799V135z M917.4,124.1l32.8-45.5h-28.8l-18.6,27.2L884,78.6h-30l32.8,46.6l-34.3,47.6h30.4l19.2-29.2l19.5,29.2h30.7L917.4,124.1
			z"/>
	</g>
</g>
</svg>
