<svg width="12" height="12" viewBox="0 0 12 12" fill="none" xmlns="http://www.w3.org/2000/svg">
    <path d="M11.3002 0.699951C10.3002 -0.300049 8.80017 -0.300049 7.80017 0.699951L1.20017 7.29995C1.10017 7.39995 1.10017 7.49995 1.00017 7.59995L0.000167985 10.9C-0.099832 11.2 0.000167981 11.5 0.200168 11.7C0.400168 11.9 0.600168 12 0.800168 12C0.900168 12 1.00017 12 1.00017 12L4.40017 11C4.50017 11 4.70017 10.9 4.80017 10.8L11.3002 4.19995C12.2002 3.29995 12.2002 1.69995 11.3002 0.699951ZM3.70017 9.49995L2.10017 9.99995L2.60017 8.39995L7.70017 3.29995L8.90017 4.49995L3.70017 9.49995ZM10.1002 3.09995L9.90017 3.19995L8.80017 2.09995L9.00017 1.89995C9.30017 1.59995 9.80017 1.59995 10.2002 1.89995C10.6002 2.19995 10.4002 2.79995 10.1002 3.09995Z" fill="#0089C1"/>
</svg>
