<svg id="Layer_1" xmlns="http://www.w3.org/2000/svg" viewBox="0 0 18 21"><style>.st0{fill-rule:evenodd;clip-rule:evenodd;fill:#fff}</style><path class="st0" d="M9 21c-3.7 0-7.1-2-9-5.2v-.2c1.3-2.2 3.4-3.9 5.9-4.7H6c1 1 2.6 2 2.9 2.3.4-.2 1.8-1.1 2.9-2.3h.1c2.5.8 4.6 2.4 5.9 4.7v.2C16.1 19 12.7 21 9 21zm3.5-7.7c-1.1.9-2.1 1.5-2.4 1.7l-1.1.7-1-.7c-.4-.2-1.4-.9-2.4-1.7-1.2.6-2.3 1.4-3.2 2.5C4 17.8 6.4 19 9 19c2.6 0 5-1.2 6.6-3.2-.8-1.1-1.9-2-3.1-2.5zm-3.5-3c-2.2 0-4.1-1.8-4.1-4.1V4.1C4.9 1.8 6.8 0 9 0c2.2 0 4.1 1.8 4.1 4.1v2.1c0 2.3-1.9 4.1-4.1 4.1zm2.1-6.2c0-1.2-1-2.1-2.1-2.1s-2.1.9-2.1 2.1v2.1c0 1.2.9 2.1 2.1 2.1 1.1 0 2.1-.9 2.1-2.1V4.1z"/></svg>