<svg display="none" xmlns="http://www.w3.org/2000/svg">
    <symbol id="Bars" width="24" height="24" viewBox="0 0 24 24">
        <path d="M1664 1344v128q0 26-19 45t-45 19h-1408q-26 0-45-19t-19-45v-128q0-26 19-45t45-19h1408q26 0 45 19t19 45zm0-512v128q0 26-19 45t-45 19h-1408q-26 0-45-19t-19-45v-128q0-26 19-45t45-19h1408q26 0 45 19t19 45zm0-512v128q0 26-19 45t-45 19h-1408q-26 0-45-19t-19-45v-128q0-26 19-45t45-19h1408q26 0 45 19t19 45z"/>
    </symbol>
    <symbol id="Calendar" width="30" height="34" viewBox="0 0 30 34">
        <path d="M10 15.3334H6.66667V18.6667H10V15.3334ZM16.6667 15.3334H13.3333V18.6667H16.6667V15.3334ZM23.3333 15.3334H20V18.6667H23.3333V15.3334ZM26.6667 3.66671H25V0.333374H21.6667V3.66671H8.33333V0.333374H5V3.66671H3.33333C1.48333 3.66671 0.0166667 5.16671 0.0166667 7.00004L0 30.3334C0 32.1667 1.48333 33.6667 3.33333 33.6667H26.6667C28.5 33.6667 30 32.1667 30 30.3334V7.00004C30 5.16671 28.5 3.66671 26.6667 3.66671ZM26.6667 30.3334H3.33333V12H26.6667V30.3334Z"/>
    </symbol>
    <symbol id="Facebook" width="10" height="17" viewBox="0 0 10 17">
        <g><g><path fill="#515a70" d="M7 15.998a1 1 0 0 1-1 1H4a1 1 0 0 1-1-1v-6H0V5.996h3v-3a3 3 0 0 1 3-3c.182 0 .352.053.5.14a.988.988 0 0 1 .5-.14h2a1 1 0 0 1 1 1v2a1 1 0 0 1-1 1H7v2h3v4H7z"/></g></g>
    </symbol>
    <symbol id="Twitter" width="12" height="17" viewBox="0 0 12 17">
        <path d="M4 11c0 1.7 1.2 2 1.8 2H10c1.1 0 2 .9 2 2s-.9 2-2 2H6c-1.7 0-3.1-.6-4.3-1.9C.6 13.9 0 12.4 0 10.6V2C0 .9.9 0 2 0s2 .9 2 2v3h6c1.1 0 2 .9 2 2s-.9 2-2 2H4v2z" fill-rule="evenodd" clip-rule="evenodd" fill="#354052"/>
    </symbol>
    <symbol id="Telegram" width="19" height="17" viewBox="0 0 19 17">
        <g><g><path fill="#515a70" d="M.31 7.16L18.316.041c.382-.152.776.192.693.602L15.778 16.57a.514.514 0 0 1-.81.32l-4.411-3.281a.716.716 0 0 0-.89.025l-2.446 2.043a.512.512 0 0 1-.82-.253L4.703 9.828.316 8.15c-.446-.17-.45-.815-.006-.99zm5.44 2.77l.928 3.338c.065.237.4.212.432-.032l.241-1.83c.046-.345.206-.662.455-.9l7.076-6.74c.133-.125-.026-.339-.18-.242L6.128 8.935a.896.896 0 0 0-.378.996z"/></g></g>
    </symbol>
    <symbol id="Star" width="24" height="24" viewBox="0 0 24 24">
        <path d="M12,17.27L18.18,21L16.54,13.97L22,9.24L14.81,8.62L12,2L9.19,8.62L2,9.24L7.45,13.97L5.82,21L12,17.27Z" />
    </symbol>
    <symbol id="StarBorder" width="24" height="24" viewBox="0 0 24 24">
        <path d="M12,15.39L8.24,17.66L9.23,13.38L5.91,10.5L10.29,10.13L12,6.09L13.71,10.13L18.09,10.5L14.77,13.38L15.76,17.66M22,9.24L14.81,8.63L12,2L9.19,8.63L2,9.24L7.45,13.97L5.82,21L12,17.27L18.18,21L16.54,13.97L22,9.24Z" />
    </symbol>
    <symbol id="Times" width="20" height="20" viewBox="0 0 20 20">
        <path d="M1490 1322q0 40-28 68l-136 136q-28 28-68 28t-68-28l-294-294-294 294q-28 28-68 28t-68-28l-136-136q-28-28-28-68t28-68l294-294-294-294q-28-28-28-68t28-68l136-136q28-28 68-28t68 28l294 294 294-294q28-28 68-28t68 28l136 136q28 28 28 68t-28 68l-294 294 294 294q28 28 28 68z"/>
    </symbol>
    <symbol id="Pencil" width="20" height="20" viewBox="0 0 20 20">
        <path d="M888 1184l116-116-152-152-116 116v56h96v96h56zm440-720q-16-16-33 1l-350 350q-17 17-1 33t33-1l350-350q17-17 1-33zm80 594v190q0 119-84.5 203.5t-203.5 84.5h-832q-119 0-203.5-84.5t-84.5-203.5v-832q0-119 84.5-203.5t203.5-84.5h832q63 0 117 25 15 7 18 23 3 17-9 29l-49 49q-14 14-32 8-23-6-45-6h-832q-66 0-113 47t-47 113v832q0 66 47 113t113 47h832q66 0 113-47t47-113v-126q0-13 9-22l64-64q15-15 35-7t20 29zm-96-738l288 288-672 672h-288v-288zm444 132l-92 92-288-288 92-92q28-28 68-28t68 28l152 152q28 28 28 68t-28 68z"/>
    </symbol>
    <symbol id="deposit" width="18" height="19" viewBox="0 0 18 19">
        <path d="M9.16668 7.50001H10.8333V5.00001H13.3333V3.33334H10.8333V0.833344H9.16668V3.33334H6.66668V5.00001H9.16668V7.50001ZM5.83334 15C4.91668 15 4.17501 15.75 4.17501 16.6667C4.17501 17.5833 4.91668 18.3333 5.83334 18.3333C6.75001 18.3333 7.50001 17.5833 7.50001 16.6667C7.50001 15.75 6.75001 15 5.83334 15ZM14.1667 15C13.25 15 12.5083 15.75 12.5083 16.6667C12.5083 17.5833 13.25 18.3333 14.1667 18.3333C15.0833 18.3333 15.8333 17.5833 15.8333 16.6667C15.8333 15.75 15.0833 15 14.1667 15ZM5.97501 12.2917L6.00001 12.1917L6.75001 10.8333H12.9583C13.5833 10.8333 14.1333 10.4917 14.4167 9.97501L17.6333 4.13334L16.1833 3.33334H16.175L15.2583 5.00001L12.9583 9.16668H7.10834L7.00001 8.94168L5.13334 5.00001L4.34168 3.33334L3.55834 1.66668H0.833344V3.33334H2.50001L5.50001 9.65834L4.37501 11.7C4.24168 11.9333 4.16668 12.2083 4.16668 12.5C4.16668 13.4167 4.91668 14.1667 5.83334 14.1667H15.8333V12.5H6.18334C6.07501 12.5 5.97501 12.4083 5.97501 12.2917Z"/>
    </symbol>
</svg>
