<svg width="24" height="24" viewBox="0 0 24 24" fill="none" xmlns="http://www.w3.org/2000/svg">
<path d="M20.3333 0C21.3058 0 22.2384 0.386309 22.9261 1.07394C23.6137 1.76158 24 2.69421 24 3.66667V20.3333C24 21.3058 23.6137 22.2384 22.9261 22.9261C22.2384 23.6137 21.3058 24 20.3333 24H3.66667C2.69421 24 1.76158 23.6137 1.07394 22.9261C0.386309 22.2384 0 21.3058 0 20.3333V3.66667C0 2.69421 0.386309 1.76158 1.07394 1.07394C1.76158 0.386309 2.69421 0 3.66667 0H20.3333ZM20.3333 2H3.66667C2.74667 2 2 2.74667 2 3.66667V20.3333C2 21.2533 2.74667 22 3.66667 22H20.3333C21.2533 22 22 21.2533 22 20.3333V3.66667C22 2.74667 21.2533 2 20.3333 2ZM9.00267 12.6667C10.2907 12.6667 11.336 13.712 11.336 15V17.6667C11.336 18.2855 11.0902 18.879 10.6526 19.3166C10.215 19.7542 9.6215 20 9.00267 20H6.336C5.71716 20 5.12367 19.7542 4.68608 19.3166C4.2485 18.879 4.00267 18.2855 4.00267 17.6667V15C4.00267 13.712 5.04667 12.6667 6.336 12.6667H9.00267ZM17.6653 12.6667C18.9547 12.6667 19.9987 13.712 19.9987 15V17.6667C19.9987 18.2853 19.753 18.8786 19.3157 19.3161C18.8784 19.7537 18.2853 19.9996 17.6667 20H15C14.3812 20 13.7877 19.7542 13.3501 19.3166C12.9125 18.879 12.6667 18.2855 12.6667 17.6667V15C12.6667 13.712 13.712 12.6667 15 12.6667H17.6667H17.6653ZM9.00267 14.6667H6.336C6.24759 14.6667 6.16281 14.7018 6.1003 14.7643C6.03779 14.8268 6.00267 14.9116 6.00267 15V17.6667C6.00267 17.8507 6.152 18 6.336 18H9.00267C9.09107 18 9.17586 17.9649 9.23837 17.9024C9.30088 17.8399 9.336 17.7551 9.336 17.6667V15C9.336 14.9116 9.30088 14.8268 9.23837 14.7643C9.17586 14.7018 9.09107 14.6667 9.00267 14.6667ZM17.6653 14.6667H14.9987C14.9103 14.6667 14.8255 14.7018 14.763 14.7643C14.7005 14.8268 14.6653 14.9116 14.6653 15V17.6667C14.6653 17.8507 14.8147 18 14.9987 18H17.6653C17.7537 18 17.8385 17.9649 17.901 17.9024C17.9635 17.8399 17.9987 17.7551 17.9987 17.6667V15C17.9987 14.9116 17.9635 14.8268 17.901 14.7643C17.8385 14.7018 17.7537 14.6667 17.6653 14.6667ZM9.00133 4C10.2893 4 11.3347 5.04533 11.3347 6.33333V9C11.3347 9.61884 11.0888 10.2123 10.6512 10.6499C10.2137 11.0875 9.62017 11.3333 9.00133 11.3333H6.33467C6.02814 11.3335 5.72458 11.2733 5.44133 11.1561C5.15808 11.0389 4.9007 10.8671 4.68389 10.6504C4.46708 10.4337 4.29509 10.1764 4.17774 9.89324C4.0604 9.61006 4 9.30653 4 9V6.33333C4 5.04533 5.04533 4 6.33333 4H9H9.00133ZM17.664 4C18.9533 4 19.9973 5.04533 19.9973 6.33333V9C19.9973 9.61884 19.7515 10.2123 19.3139 10.6499C18.8763 11.0875 18.2828 11.3333 17.664 11.3333H14.9973C14.3785 11.3333 13.785 11.0875 13.3474 10.6499C12.9098 10.2123 12.664 9.61884 12.664 9V6.33333C12.664 5.04533 13.7093 4 14.9973 4H17.664ZM9.00133 6H6.33467C6.24626 6 6.16148 6.03512 6.09896 6.09763C6.03645 6.16014 6.00133 6.24493 6.00133 6.33333V9C6.00133 9.184 6.15067 9.33333 6.33467 9.33333H9.00133C9.08974 9.33333 9.17452 9.29821 9.23704 9.2357C9.29955 9.17319 9.33467 9.08841 9.33467 9V6.33333C9.33467 6.24493 9.29955 6.16014 9.23704 6.09763C9.17452 6.03512 9.08974 6 9.00133 6ZM17.664 6H14.9973C14.9089 6 14.8241 6.03512 14.7616 6.09763C14.6991 6.16014 14.664 6.24493 14.664 6.33333V9C14.664 9.184 14.8133 9.33333 14.9973 9.33333H17.664C17.7524 9.33333 17.8372 9.29821 17.8997 9.2357C17.9622 9.17319 17.9973 9.08841 17.9973 9V6.33333C17.9973 6.24493 17.9622 6.16014 17.8997 6.09763C17.8372 6.03512 17.7524 6 17.664 6Z" fill="#AFBFC2"/>
</svg>
