<svg width="19" height="19" viewBox="0 0 19 19" fill="none" xmlns="http://www.w3.org/2000/svg">
<path d="M9.49998 15.8335C6.00873 15.8335 3.16665 12.9914 3.16665 9.50016C3.16665 6.00891 6.00873 3.16683 9.49998 3.16683C12.9912 3.16683 15.8333 6.00891 15.8333 9.50016C15.8333 12.9914 12.9912 15.8335 9.49998 15.8335ZM9.49998 17.4168C13.87 17.4168 17.4166 13.8702 17.4166 9.50016C17.4166 5.13016 13.87 1.5835 9.49998 1.5835C5.12998 1.5835 1.58331 5.13016 1.58331 9.50016C1.58331 13.8702 5.12998 17.4168 9.49998 17.4168ZM8.70831 9.50016V12.6668H10.2916V9.50016H12.6666L9.49998 6.3335L6.33331 9.50016H8.70831Z" fill="#41A07B"/>
</svg>
