<svg width="18" height="20" viewBox="0 0 18 20" fill="none" xmlns="http://www.w3.org/2000/svg">
<path d="M18 5L9 0L0 5V15L9 20L18 15V5ZM9 2.29L14.91 5.57L11.9 7.24C11.17 6.48 10.14 6 9 6C7.86 6 6.83 6.48 6.1 7.24L3.09 5.57L9 2.29ZM8 17.16L2 13.83V7.26L5.13 9C5.04 9.31 5 9.65 5 10C5 11.86 6.27 13.43 8 13.87V17.16ZM7 10C7 8.9 7.9 8 9 8C10.1 8 11 8.9 11 10C11 11.1 10.1 12 9 12C7.9 12 7 11.1 7 10ZM10 17.16V13.88C11.73 13.44 13 11.87 13 10.01C13 9.66 12.96 9.32 12.87 9L16 7.26V13.83L10 17.16Z" fill="#41A07B"/>
</svg>
