<svg width="18" height="18" viewBox="0 0 18 18" fill="none" xmlns="http://www.w3.org/2000/svg">
<path d="M0 16H18V18H0V16ZM3 13C4.1 13 5 12.1 5 11C5 10.5 4.8 10 4.5 9.7L5.8 7H6C6.5 7 7 6.8 7.3 6.5L10 7.9V8C10 9.1 10.9 10 12 10C13.1 10 14 9.1 14 8C14 7.5 13.8 7.1 13.5 6.7L14.8 4H15C16.1 4 17 3.1 17 2C17 0.9 16.1 0 15 0C13.9 0 13 0.9 13 2C13 2.5 13.2 3 13.5 3.3L12.2 6H12C11.5 6 11 6.2 10.7 6.5L8 5.2V5C8 3.9 7.1 3 6 3C4.9 3 4 3.9 4 5C4 5.5 4.2 6 4.5 6.3L3.2 9H3C1.9 9 1 9.9 1 11C1 12.1 1.9 13 3 13Z" fill="#41A07B"/>
</svg>
