<svg width="20" height="20" viewBox="0 0 20 20" fill="none" xmlns="http://www.w3.org/2000/svg">
<path d="M11.5441 8.45602C10.7249 7.63726 9.61421 7.17731 8.45605 7.17731C7.2979 7.17731 6.18716 7.63726 5.36805 8.45602L2.27905 11.544C1.45993 12.3631 0.999756 13.4741 0.999756 14.6325C0.999756 15.7909 1.45993 16.9019 2.27905 17.721C3.09818 18.5401 4.20914 19.0003 5.36755 19.0003C6.52597 19.0003 7.63693 18.5401 8.45605 17.721L10.0001 16.177" stroke="white" stroke-width="2" stroke-linecap="round" stroke-linejoin="round"/>
<path d="M8.45605 11.544C9.27516 12.3628 10.3859 12.8227 11.5441 12.8227C12.7022 12.8227 13.8129 12.3628 14.6321 11.544L17.7211 8.45599C18.5402 7.63687 19.0004 6.52591 19.0004 5.36749C19.0004 4.20908 18.5402 3.09811 17.7211 2.27899C16.9019 1.45987 15.791 0.999695 14.6326 0.999695C13.4741 0.999695 12.3632 1.45987 11.5441 2.27899L10.0001 3.82299" stroke="white" stroke-width="2" stroke-linecap="round" stroke-linejoin="round"/>
</svg>
