<svg width="20" height="20" viewBox="0 0 20 20" fill="none" xmlns="http://www.w3.org/2000/svg">
<path d="M17.775 13.1548C16.848 12.1601 15.723 11.3662 14.4709 10.8233C13.2189 10.2803 11.8668 10 10.5 10C9.13316 10 7.78114 10.2803 6.52907 10.8233C5.27701 11.3662 4.15203 12.1601 3.225 13.1548C3.08187 13.3116 3.00181 13.5149 3 13.7262V17.1544C3.00303 17.3797 3.09555 17.5948 3.25751 17.753C3.41947 17.9113 3.63786 18 3.86538 18H17.1346C17.3641 18 17.5842 17.9097 17.7465 17.749C17.9088 17.5882 18 17.3703 18 17.143V13.7148C17.9954 13.5074 17.9155 13.3086 17.775 13.1548Z" fill="#41A07B"/>
<path d="M10.5 9C12.9853 9 15 6.98528 15 4.5C15 2.01472 12.9853 0 10.5 0C8.01472 0 6 2.01472 6 4.5C6 6.98528 8.01472 9 10.5 9Z" fill="#41A07B"/>
</svg>
