<svg width="21" height="20" viewBox="0 0 21 20" fill="none" xmlns="http://www.w3.org/2000/svg">
<path d="M15.2718 11C16.059 11 16.7518 10.59 17.1086 9.97L20.8663 3.48C21.2546 2.82 20.7508 2 19.9531 2H4.41886L3.43223 0H0V2H2.09922L5.87782 9.59L4.46084 12.03C3.69463 13.37 4.70225 15 6.29766 15H17V14V13H6.29766L7.45223 11H15.2718ZM5.41599 4H18.1688L15.2718 9H7.90356L5.41599 4ZM6.29766 16C5.14309 16 4.20894 16.9 4.20894 18C4.20894 19.1 5.14309 20 6.29766 20C7.45223 20 8.39688 19.1 8.39688 18C8.39688 16.9 7.45223 16 6.29766 16ZM16.7938 16C15.6392 16 14.705 16.9 14.705 18C14.705 19.1 15.6392 20 16.7938 20C17.9483 20 18.893 19.1 18.893 18C18.893 16.9 17.9483 16 16.7938 16Z" fill="#41A07B"/>
</svg>
