<svg width="20" height="18" viewBox="0 0 20 18" fill="none" xmlns="http://www.w3.org/2000/svg">
<path d="M6 13V14C6 14.7956 6.31607 15.5587 6.87868 16.1213C7.44129 16.6839 8.20435 17 9 17H16C16.7956 17 17.5587 16.6839 18.1213 16.1213C18.6839 15.5587 19 14.7956 19 14V4C19 3.20435 18.6839 2.44129 18.1213 1.87868C17.5587 1.31607 16.7956 1 16 1H9C8.20435 1 7.44129 1.31607 6.87868 1.87868C6.31607 2.44129 6 3.20435 6 4V5M11 13L15 9L11 13ZM15 9L11 5L15 9ZM15 9H1H15Z" stroke="#41A07B" stroke-width="2" stroke-linecap="round" stroke-linejoin="round"/>
</svg>
