<svg width="104" height="30" viewBox="0 0 104 30" fill="none" xmlns="http://www.w3.org/2000/svg">
<circle cx="15" cy="15" r="15" fill="#41A07B"/>
<path d="M15 25C9.477 25 5 20.523 5 15C5 9.477 9.477 5 15 5C20.523 5 25 9.477 25 15C25 20.523 20.523 25 15 25ZM12.71 22.667C11.7234 20.5743 11.1519 18.3102 11.027 16H7.062C7.25659 17.5389 7.89392 18.9882 8.89657 20.1717C9.89922 21.3552 11.224 22.2221 12.71 22.667ZM13.03 16C13.181 18.439 13.878 20.73 15 22.752C16.1523 20.6766 16.8254 18.3695 16.97 16H13.03ZM22.938 16H18.973C18.8481 18.3102 18.2766 20.5743 17.29 22.667C18.776 22.2221 20.1008 21.3552 21.1034 20.1717C22.1061 18.9882 22.7434 17.5389 22.938 16ZM7.062 14H11.027C11.1519 11.6898 11.7234 9.42569 12.71 7.333C11.224 7.77788 9.89922 8.64475 8.89657 9.8283C7.89392 11.0118 7.25659 12.4611 7.062 14ZM13.031 14H16.969C16.8248 11.6306 16.152 9.32353 15 7.248C13.8477 9.32345 13.1746 11.6305 13.03 14H13.031ZM17.29 7.333C18.2766 9.42569 18.8481 11.6898 18.973 14H22.938C22.7434 12.4611 22.1061 11.0118 21.1034 9.8283C20.1008 8.64475 18.776 7.77788 17.29 7.333Z" fill="white"/>
<circle cx="89" cy="15" r="15" fill="#62BDFF"/>
<path d="M96.7769 11.0856C96.2551 11.3169 95.6944 11.4731 95.1051 11.5437C95.7132 11.1799 96.1682 10.6072 96.3851 9.93249C95.8137 10.2719 95.1884 10.5107 94.5363 10.6387C94.0978 10.1705 93.517 9.86019 92.884 9.75591C92.2511 9.65163 91.6014 9.75923 91.0358 10.062C90.4703 10.3648 90.0206 10.8458 89.7564 11.4304C89.4923 12.015 89.4285 12.6705 89.5751 13.295C88.4174 13.2369 87.2848 12.936 86.251 12.4118C85.2171 11.8877 84.305 11.152 83.5738 10.2525C83.3238 10.6837 83.1801 11.1837 83.1801 11.7162C83.1798 12.1956 83.2978 12.6676 83.5237 13.0904C83.7496 13.5133 84.0764 13.8738 84.4751 14.14C84.0127 14.1253 83.5606 14.0004 83.1563 13.7756V13.8131C83.1563 14.4854 83.3888 15.1371 83.8146 15.6575C84.2403 16.1779 84.8329 16.5349 85.4919 16.6681C85.0631 16.7842 84.6134 16.8013 84.1769 16.7181C84.3629 17.2966 84.7251 17.8025 85.2128 18.1649C85.7005 18.5274 86.2894 18.7282 86.8969 18.7394C85.8656 19.549 84.5919 19.9882 83.2807 19.9862C83.0484 19.9863 82.8164 19.9727 82.5857 19.9456C83.9166 20.8013 85.4659 21.2555 87.0482 21.2537C92.4044 21.2537 95.3326 16.8175 95.3326 12.97C95.3326 12.845 95.3294 12.7187 95.3238 12.5937C95.8934 12.1818 96.385 11.6718 96.7757 11.0875L96.7769 11.0856Z" fill="white"/>
<circle cx="52" cy="15" r="15" fill="#4797D0"/>
<path d="M57.055 10.0723L44.6537 14.5526C43.8074 14.871 43.8123 15.3133 44.4984 15.5106L47.6823 16.4411L55.049 12.0867C55.3973 11.8881 55.7156 11.995 55.454 12.2125L49.4855 17.2589L49.2659 20.3342C49.5877 20.3342 49.7296 20.1959 49.9101 20.0327L51.4566 18.6239L54.6734 20.8499C55.2665 21.1559 55.6925 20.9986 55.8401 20.3355L57.9517 11.012C58.1679 10.2001 57.6209 9.83249 57.055 10.0723Z" fill="white"/>
</svg>
