<svg width="20" height="20" viewBox="0 0 20 20" fill="none" xmlns="http://www.w3.org/2000/svg">
<path d="M10.0005 0C4.47685 0 5.42613e-08 4.47685 5.42613e-08 9.99948C-0.000136758 11.3128 0.258441 12.6133 0.760966 13.8267C1.26349 15.0401 2.00012 16.1426 2.92878 17.0712C3.85744 17.9999 4.95994 18.7365 6.17332 19.239C7.38671 19.7416 8.68719 20.0001 10.0005 20C15.5221 20 20 15.5231 20 9.99948C20 4.47685 15.5221 0 10.0005 0ZM9.99948 17.9157C8.9599 17.9157 7.9305 17.711 6.97006 17.3131C6.00961 16.9153 5.13693 16.3322 4.40184 15.5971C3.66675 14.862 3.08364 13.9893 2.68581 13.0289C2.28798 12.0685 2.08322 11.0391 2.08322 9.99948C2.08322 8.9599 2.28798 7.9305 2.68581 6.97006C3.08364 6.00961 3.66675 5.13693 4.40184 4.40184C5.13693 3.66675 6.00961 3.08364 6.97006 2.68581C7.9305 2.28798 8.9599 2.08322 9.99948 2.08322C11.0391 2.08322 12.0685 2.28798 13.0289 2.68581C13.9893 3.08364 14.862 3.66675 15.5971 4.40184C16.3322 5.13693 16.9153 6.00961 17.3131 6.97006C17.711 7.9305 17.9157 8.9599 17.9157 9.99948C17.9157 11.0391 17.711 12.0685 17.3131 13.0289C16.9153 13.9893 16.3322 14.862 15.5971 15.5971C14.862 16.3322 13.9893 16.9153 13.0289 17.3131C12.0685 17.711 11.0391 17.9157 9.99948 17.9157ZM10.0005 5.31222L14.6878 9.99948H12.0837V14.1659H7.9173V9.99948H5.31326L10.0005 5.31222Z" fill="#41A07B"/>
</svg>
