<svg width="23" height="20" viewBox="0 0 23 20" fill="none" xmlns="http://www.w3.org/2000/svg">
<g clip-path="url(#clip0_29_207)">
<path d="M4.20737 0.101592L0.0126136 8.9062C-0.0212698 8.97393 -0.00771643 9.0552 0.0464969 9.10261L11.3703 19.9526C11.4381 20.0135 11.5397 20.0135 11.6075 19.9526L22.9381 9.10261C22.9923 9.04843 23.0058 8.97393 22.972 8.9062L18.7772 0.101592C18.7636 0.0406366 18.7027 0 18.6349 0H4.36323C4.30224 0 4.24125 0.0406366 4.20737 0.101592Z" fill="#41A07B"/>
<path d="M12.9569 9.80698C12.8756 9.81376 12.4554 9.84085 11.5202 9.84085C10.7748 9.84085 10.2462 9.82053 10.0565 9.80698C7.1764 9.6783 5.02819 9.17712 5.02819 8.58111C5.02819 7.98511 7.1764 7.47715 10.0565 7.34846V9.3058C10.2462 9.31934 10.7816 9.35321 11.527 9.35321C12.4215 9.35321 12.8688 9.31257 12.9501 9.3058V7.34846C15.8234 7.47715 17.9716 7.97833 17.9716 8.57434C17.9716 9.17034 15.8302 9.6783 12.9569 9.80698ZM12.9569 7.15205V5.3979H16.9687V2.72266H6.04469V5.3979H10.0565V7.15205C6.7969 7.30105 4.34375 7.94447 4.34375 8.72334C4.34375 9.50221 6.7969 10.1389 10.0565 10.2946V15.9093H12.9569V10.2946C16.2097 10.1456 18.6561 9.50221 18.6561 8.73011C18.6561 7.95801 16.2097 7.30105 12.9569 7.15205Z" fill="white"/>
</g>
<defs>
<clipPath id="clip0_29_207">
<rect width="23" height="20" fill="white"/>
</clipPath>
</defs>
</svg>
