<svg width="20" height="20" viewBox="0 0 20 20" fill="none" xmlns="http://www.w3.org/2000/svg">
<path d="M16 5.99999H3.5V5.49999L14.5 4.61999V5.49999H16V3.99999C16 2.89999 15.109 2.12799 14.021 2.28299L3.98 3.71699C2.891 3.87299 2 4.89999 2 5.99999V16C2 16.5304 2.21071 17.0391 2.58579 17.4142C2.96086 17.7893 3.46957 18 4 18H16C16.5304 18 17.0391 17.7893 17.4142 17.4142C17.7893 17.0391 18 16.5304 18 16V7.99999C18 7.46955 17.7893 6.96085 17.4142 6.58577C17.0391 6.2107 16.5304 5.99999 16 5.99999ZM14.5 13.006C14.303 13.0059 14.1078 12.967 13.9258 12.8916C13.7438 12.8161 13.5784 12.7055 13.4391 12.5661C13.2998 12.4268 13.1894 12.2613 13.114 12.0792C13.0387 11.8972 12.9999 11.702 13 11.505C13.0001 11.3079 13.0389 11.1128 13.1144 10.9308C13.1899 10.7488 13.3005 10.5834 13.4398 10.4441C13.5792 10.3048 13.7447 10.1944 13.9267 10.119C14.1088 10.0437 14.304 10.0049 14.501 10.005C14.899 10.0051 15.2806 10.1633 15.5619 10.4448C15.8432 10.7263 16.0011 11.108 16.001 11.506C16.0009 11.9039 15.8427 12.2855 15.5612 12.5669C15.2797 12.8482 14.898 13.0061 14.5 13.006Z" fill="#41A07B"/>
</svg>
