<?xml version="1.0" encoding="utf-8"?>
<!-- Generator: Adobe Illustrator 21.0.0, SVG Export Plug-In . SVG Version: 6.00 Build 0)  -->
<svg version="1.1" id="Layer_1" xmlns="http://www.w3.org/2000/svg" xmlns:xlink="http://www.w3.org/1999/xlink" x="0px" y="0px"
	 viewBox="0 0 180 180" style="enable-background:new 0 0 180 180;" xml:space="preserve">
<g>
	<g>
		<defs>
			<path id="SVGID_1_" d="M90,180c-49.7,0-90-40.3-90-90S40.3,0,90,0c49.7,0,90,40.3,90,90S139.7,180,90,180L90,180z"/>
		</defs>
		<use xlink:href="#SVGID_1_"  style="overflow:visible;fill-rule:evenodd;clip-rule:evenodd;fill:#27BBC0;"/>
		<clipPath id="SVGID_2_">
			<use xlink:href="#SVGID_1_"  style="overflow:visible;"/>
		</clipPath>
	</g>
	<g>
		<defs>
			<path id="SVGID_3_" d="M93.1,108.1c6.2,0.7,11.4-1.2,15.9-5.4l1.8-1.7l0.1,0.1l-2.2,12.6l-0.2,1.9c-1,0.5-2.1,0.9-3.2,1.3
				c-4.4,1.5-9.1,1.8-13.7,1.3c-8.8-1-16.2-4.6-21.3-12c-4.1-6-5.5-12.8-4.7-20c0.9-7.8,4.4-14.3,10.6-19.1
				c6.4-4.9,13.7-6.7,21.7-5.8c4.7,0.5,9.2,1.9,13.2,4.5c0.7,0.5,1.4,0.9,2.1,1.5L113,82.8l-0.2,0.1l-1.4-2.3
				c-1.5-2.6-3.5-4.7-6.1-6.3c-2.6-1.6-5.4-2.5-8.4-2.8c-3.4-0.4-6.6,0.1-9.8,1.4c-3,1.3-5.5,3.2-7.4,5.8c-2,2.7-3.1,5.7-3.4,9
				c-0.6,5.1,0.6,9.6,3.9,13.6C83.5,105.5,87.9,107.5,93.1,108.1L93.1,108.1z M121.8,71.5c-2.4-3.5-5.4-6.4-9-8.7
				c-4.5-2.8-9.5-4.4-14.8-5c-8.9-1-17.2,1-24.3,6.5c-7,5.4-11,12.8-12,21.5c-0.9,8,0.7,15.7,5.3,22.4c5.6,8.2,14,12.4,23.8,13.5
				c5.1,0.6,10.3,0.2,15.2-1.5c4.2-1.4,8-3.6,11.2-6.5l-2.5,20.9l-2.8,1.1c-2.5,1-5,1.8-7.6,2.4l-3.1,17.5l-11.6-2l2.5-14.3
				c-3-0.1-6-0.4-8.9-1L81,152.1l-11.6-2l2.7-15.5c-9.2-4.3-16.9-11.3-22.1-20.3c-13.9-24-5.7-54.7,18.3-68.5
				c5.7-3.3,12-5.4,18.3-6.2l2.7-15.1l11.6,2l-2.3,12.9c2.9,0.3,5.7,0.8,8.5,1.6l2.3-13l11.6,2l-2.7,15.7c1.4,0.8,2.7,1.6,4,2.6
				L121.8,71.5L121.8,71.5z"/>
		</defs>
		<use xlink:href="#SVGID_3_"  style="overflow:visible;fill-rule:evenodd;clip-rule:evenodd;fill:#FFFFFF;"/>
		<clipPath id="SVGID_4_">
			<use xlink:href="#SVGID_3_"  style="overflow:visible;"/>
		</clipPath>
	</g>
</g>
</svg>
