<svg id="svg" version="1.1" xmlns="http://www.w3.org/2000/svg" xmlns:xlink="http://www.w3.org/1999/xlink" width="400" height="400" viewBox="0, 0, 400,400"><g id="svgg"><path id="path0" d="M180.400 4.400 C 180.400 4.638,178.878 4.800,176.633 4.800 C 174.562 4.800,172.807 4.970,172.733 5.178 C 172.660 5.386,171.392 5.594,169.915 5.640 C 168.438 5.687,167.324 5.877,167.439 6.063 C 167.553 6.248,166.482 6.400,165.057 6.400 C 163.632 6.400,162.406 6.582,162.332 6.804 C 162.258 7.026,161.305 7.275,160.215 7.356 C 159.124 7.438,158.165 7.706,158.083 7.952 C 158.000 8.199,157.138 8.400,156.167 8.400 C 155.195 8.400,154.400 8.580,154.400 8.800 C 154.400 9.020,153.601 9.200,152.624 9.200 C 151.647 9.200,150.736 9.380,150.600 9.600 C 150.464 9.820,149.733 10.000,148.976 10.000 C 148.219 10.000,147.600 10.161,147.600 10.358 C 147.600 10.555,146.925 10.806,146.100 10.917 C 143.682 11.241,141.425 11.925,141.274 12.379 C 141.197 12.610,140.608 12.800,139.967 12.800 C 139.325 12.800,138.800 12.980,138.800 13.200 C 138.800 13.420,138.271 13.600,137.624 13.600 C 136.977 13.600,136.336 13.780,136.200 14.000 C 136.064 14.220,135.423 14.400,134.776 14.400 C 134.129 14.400,133.600 14.580,133.600 14.800 C 133.600 15.020,132.985 15.200,132.233 15.200 C 131.482 15.200,130.807 15.378,130.733 15.597 C 130.660 15.815,130.105 16.034,129.500 16.084 C 128.895 16.134,128.400 16.296,128.400 16.444 C 128.400 16.592,127.950 16.826,127.400 16.964 C 126.850 17.102,126.400 17.392,126.400 17.608 C 126.400 17.823,125.860 18.000,125.200 18.000 C 124.540 18.000,124.000 18.180,124.000 18.400 C 124.000 18.620,123.651 18.800,123.224 18.800 C 122.797 18.800,122.336 18.980,122.200 19.200 C 122.064 19.420,121.603 19.600,121.176 19.600 C 120.749 19.600,120.400 19.780,120.400 20.000 C 120.400 20.220,119.860 20.400,119.200 20.400 C 118.540 20.400,118.000 20.536,118.000 20.702 C 118.000 21.056,115.546 22.222,115.089 22.086 C 114.918 22.034,114.673 22.264,114.546 22.596 C 114.419 22.928,113.974 23.200,113.557 23.200 C 113.141 23.200,112.800 23.380,112.800 23.600 C 112.800 23.820,112.350 24.000,111.800 24.000 C 111.250 24.000,110.800 24.180,110.800 24.400 C 110.800 24.620,110.440 24.800,110.000 24.800 C 109.560 24.800,109.200 24.980,109.200 25.200 C 109.200 25.420,108.840 25.600,108.400 25.600 C 107.960 25.600,107.600 25.780,107.600 26.000 C 107.600 26.220,107.311 26.400,106.958 26.400 C 106.402 26.400,105.692 26.869,103.317 28.806 C 103.051 29.023,102.466 29.200,102.017 29.200 C 101.568 29.200,101.200 29.380,101.200 29.600 C 101.200 29.820,100.880 30.000,100.488 30.000 C 100.097 30.000,99.524 30.350,99.215 30.779 C 98.907 31.207,98.518 31.473,98.351 31.370 C 98.184 31.267,97.722 31.507,97.324 31.903 C 96.926 32.300,96.105 32.874,95.500 33.180 C 94.895 33.485,94.400 33.885,94.400 34.068 C 94.400 34.250,94.040 34.400,93.600 34.400 C 93.160 34.400,92.800 34.559,92.800 34.754 C 92.800 34.949,92.165 35.410,91.388 35.779 C 90.612 36.147,89.758 36.798,89.492 37.224 C 89.226 37.651,88.691 38.000,88.304 38.000 C 87.917 38.000,87.600 38.180,87.600 38.400 C 87.600 38.620,87.330 38.800,87.000 38.800 C 86.670 38.800,86.400 38.980,86.400 39.200 C 86.400 39.420,86.175 39.600,85.900 39.601 C 85.625 39.601,84.770 40.141,84.000 40.800 C 83.230 41.459,82.375 41.999,82.100 41.999 C 81.825 42.000,81.600 42.270,81.600 42.600 C 81.600 42.930,81.370 43.200,81.088 43.200 C 80.807 43.200,80.317 43.560,80.000 44.000 C 79.683 44.440,79.143 44.800,78.800 44.800 C 78.457 44.800,77.917 45.160,77.600 45.600 C 77.283 46.040,76.824 46.400,76.579 46.400 C 76.335 46.400,75.894 46.850,75.600 47.400 C 75.306 47.950,74.859 48.400,74.608 48.400 C 74.356 48.400,73.764 48.760,73.292 49.200 C 72.820 49.640,72.246 50.000,72.017 50.000 C 71.788 50.000,71.596 50.135,71.591 50.300 C 71.571 50.922,68.852 53.600,68.239 53.600 C 67.888 53.600,67.600 53.780,67.600 54.000 C 67.600 54.220,67.319 54.400,66.976 54.400 C 66.633 54.400,66.464 54.580,66.600 54.800 C 66.736 55.020,66.648 55.200,66.405 55.200 C 65.942 55.200,64.000 56.985,64.000 57.410 C 64.000 57.827,62.884 58.800,62.405 58.800 C 62.156 58.800,62.047 58.953,62.163 59.140 C 62.278 59.327,61.949 59.706,61.430 59.984 C 60.912 60.261,60.261 60.912,59.984 61.430 C 59.706 61.949,59.327 62.278,59.140 62.163 C 58.953 62.047,58.800 62.156,58.800 62.405 C 58.800 62.884,57.827 64.000,57.410 64.000 C 56.985 64.000,55.200 65.942,55.200 66.405 C 55.200 66.648,55.020 66.736,54.800 66.600 C 54.580 66.464,54.400 66.633,54.400 66.976 C 54.400 67.319,54.220 67.600,54.000 67.600 C 53.780 67.600,53.600 67.888,53.600 68.239 C 53.600 68.852,50.922 71.571,50.300 71.591 C 50.135 71.596,50.000 71.788,50.000 72.017 C 50.000 72.246,49.640 72.820,49.200 73.292 C 48.760 73.764,48.400 74.356,48.400 74.608 C 48.400 74.859,47.950 75.306,47.400 75.600 C 46.850 75.894,46.400 76.335,46.400 76.579 C 46.400 76.824,46.040 77.283,45.600 77.600 C 45.160 77.917,44.800 78.457,44.800 78.800 C 44.800 79.143,44.440 79.683,44.000 80.000 C 43.560 80.317,43.200 80.807,43.200 81.088 C 43.200 81.370,42.930 81.600,42.600 81.600 C 42.270 81.600,42.000 81.825,41.999 82.100 C 41.999 82.375,41.459 83.230,40.800 84.000 C 40.141 84.770,39.601 85.625,39.601 85.900 C 39.600 86.175,39.420 86.400,39.200 86.400 C 38.980 86.400,38.800 86.670,38.800 87.000 C 38.800 87.330,38.620 87.600,38.400 87.600 C 38.180 87.600,38.000 87.917,38.000 88.304 C 38.000 88.691,37.651 89.226,37.224 89.492 C 36.798 89.758,36.147 90.612,35.779 91.388 C 35.410 92.165,34.949 92.800,34.754 92.800 C 34.559 92.800,34.400 93.160,34.400 93.600 C 34.400 94.040,34.250 94.400,34.068 94.400 C 33.885 94.400,33.485 94.895,33.180 95.500 C 32.874 96.105,32.300 96.926,31.903 97.324 C 31.507 97.722,31.267 98.184,31.370 98.351 C 31.473 98.518,31.207 98.907,30.779 99.215 C 30.350 99.524,30.000 100.097,30.000 100.488 C 30.000 100.880,29.820 101.200,29.600 101.200 C 29.380 101.200,29.200 101.568,29.200 102.017 C 29.200 102.466,29.023 103.051,28.806 103.317 C 26.869 105.692,26.400 106.402,26.400 106.958 C 26.400 107.311,26.220 107.600,26.000 107.600 C 25.780 107.600,25.600 107.960,25.600 108.400 C 25.600 108.840,25.420 109.200,25.200 109.200 C 24.980 109.200,24.800 109.560,24.800 110.000 C 24.800 110.440,24.620 110.800,24.400 110.800 C 24.180 110.800,24.000 111.250,24.000 111.800 C 24.000 112.350,23.820 112.800,23.600 112.800 C 23.380 112.800,23.200 113.141,23.200 113.557 C 23.200 113.974,22.928 114.419,22.596 114.546 C 22.264 114.673,22.034 114.918,22.086 115.089 C 22.222 115.546,21.056 118.000,20.702 118.000 C 20.536 118.000,20.400 118.540,20.400 119.200 C 20.400 119.860,20.220 120.400,20.000 120.400 C 19.780 120.400,19.600 120.749,19.600 121.176 C 19.600 121.603,19.420 122.064,19.200 122.200 C 18.980 122.336,18.800 122.797,18.800 123.224 C 18.800 123.651,18.620 124.000,18.400 124.000 C 18.180 124.000,18.000 124.540,18.000 125.200 C 18.000 125.860,17.823 126.400,17.608 126.400 C 17.392 126.400,17.102 126.850,16.964 127.400 C 16.826 127.950,16.592 128.400,16.444 128.400 C 16.296 128.400,16.134 128.895,16.084 129.500 C 16.034 130.105,15.815 130.660,15.597 130.733 C 15.378 130.807,15.200 131.482,15.200 132.233 C 15.200 132.985,15.020 133.600,14.800 133.600 C 14.580 133.600,14.400 134.129,14.400 134.776 C 14.400 135.423,14.220 136.064,14.000 136.200 C 13.780 136.336,13.600 136.977,13.600 137.624 C 13.600 138.271,13.420 138.800,13.200 138.800 C 12.980 138.800,12.800 139.325,12.800 139.967 C 12.800 140.608,12.610 141.197,12.379 141.274 C 11.925 141.425,11.241 143.682,10.917 146.100 C 10.806 146.925,10.555 147.600,10.358 147.600 C 10.161 147.600,10.000 148.219,10.000 148.976 C 10.000 149.733,9.820 150.464,9.600 150.600 C 9.380 150.736,9.200 151.647,9.200 152.624 C 9.200 153.601,9.020 154.400,8.800 154.400 C 8.580 154.400,8.400 155.195,8.400 156.167 C 8.400 157.138,8.199 158.000,7.952 158.083 C 7.706 158.165,7.438 159.124,7.356 160.215 C 7.275 161.305,7.026 162.258,6.804 162.332 C 6.582 162.406,6.400 163.632,6.400 165.057 C 6.400 166.482,6.248 167.553,6.063 167.439 C 5.877 167.324,5.687 168.438,5.640 169.915 C 5.594 171.392,5.386 172.660,5.178 172.733 C 4.970 172.807,4.800 174.562,4.800 176.633 C 4.800 178.878,4.638 180.400,4.400 180.400 C 3.850 180.400,3.850 218.260,4.400 218.600 C 4.620 218.736,4.800 220.421,4.800 222.344 C 4.800 224.267,4.965 226.011,5.166 226.220 C 5.368 226.429,5.638 227.725,5.766 229.100 C 5.895 230.475,6.108 232.725,6.240 234.100 C 6.372 235.475,6.667 236.716,6.895 236.857 C 7.123 236.999,7.345 237.979,7.389 239.036 C 7.433 240.092,7.679 241.026,7.935 241.112 C 8.195 241.198,8.400 242.046,8.400 243.033 C 8.400 244.005,8.580 244.800,8.800 244.800 C 9.020 244.800,9.200 245.599,9.200 246.576 C 9.200 247.553,9.380 248.464,9.600 248.600 C 9.820 248.736,10.000 249.452,10.000 250.190 C 10.000 250.929,10.171 251.593,10.380 251.667 C 10.589 251.740,10.804 252.565,10.858 253.500 C 10.912 254.435,11.101 255.200,11.278 255.200 C 11.455 255.200,11.600 255.637,11.600 256.171 C 11.600 256.706,11.870 257.413,12.200 257.743 C 12.530 258.073,12.800 258.806,12.800 259.371 C 12.800 259.937,12.980 260.400,13.200 260.400 C 13.420 260.400,13.600 260.940,13.600 261.600 C 13.600 262.260,13.780 262.800,14.000 262.800 C 14.220 262.800,14.400 263.430,14.400 264.200 C 14.400 264.970,14.580 265.600,14.800 265.600 C 15.020 265.600,15.200 266.140,15.200 266.800 C 15.200 267.460,15.380 268.000,15.600 268.000 C 15.820 268.000,16.000 268.529,16.000 269.176 C 16.000 269.823,16.180 270.464,16.400 270.600 C 16.620 270.736,16.800 271.202,16.800 271.636 C 16.800 272.070,17.070 272.529,17.400 272.655 C 17.730 272.782,18.000 273.306,18.000 273.819 C 18.000 274.333,18.180 274.864,18.400 275.000 C 18.620 275.136,18.800 275.597,18.800 276.024 C 18.800 276.451,18.980 276.800,19.200 276.800 C 19.420 276.800,19.600 277.235,19.600 277.767 C 19.600 278.298,19.778 278.793,19.997 278.867 C 20.215 278.940,20.434 279.495,20.484 280.100 C 20.534 280.705,20.715 281.200,20.887 281.200 C 21.059 281.200,21.200 281.442,21.200 281.739 C 21.200 282.541,22.402 284.800,22.829 284.800 C 23.033 284.800,23.200 285.160,23.200 285.600 C 23.200 286.040,23.380 286.400,23.600 286.400 C 23.820 286.400,24.000 286.850,24.000 287.400 C 24.000 287.950,24.180 288.400,24.400 288.400 C 24.620 288.400,24.800 288.760,24.800 289.200 C 24.800 289.640,24.980 290.000,25.200 290.000 C 25.420 290.000,25.600 290.360,25.600 290.800 C 25.600 291.240,25.780 291.600,26.000 291.600 C 26.220 291.600,26.400 291.929,26.400 292.330 C 26.400 292.732,26.850 293.483,27.400 294.000 C 27.950 294.517,28.400 295.178,28.400 295.470 C 28.400 295.761,28.580 296.000,28.800 296.000 C 29.020 296.000,29.200 296.349,29.200 296.776 C 29.200 297.203,29.380 297.664,29.600 297.800 C 29.820 297.936,30.000 298.357,30.000 298.735 C 30.000 299.114,30.360 299.683,30.800 300.000 C 31.240 300.317,31.600 300.897,31.600 301.288 C 31.600 301.680,31.870 302.000,32.200 302.000 C 32.530 302.000,32.800 302.326,32.800 302.725 C 32.800 303.123,33.160 303.836,33.600 304.308 C 34.040 304.780,34.400 305.404,34.400 305.695 C 34.400 305.986,34.760 306.483,35.200 306.800 C 35.640 307.117,36.006 307.652,36.013 307.988 C 36.029 308.780,36.958 310.000,37.544 310.000 C 37.795 310.000,38.000 310.360,38.000 310.800 C 38.000 311.240,38.180 311.600,38.400 311.600 C 38.620 311.600,38.800 311.870,38.800 312.200 C 38.800 312.530,38.980 312.800,39.200 312.800 C 39.420 312.800,39.600 313.088,39.600 313.440 C 39.600 313.791,40.140 314.583,40.800 315.200 C 41.460 315.817,42.000 316.524,42.000 316.773 C 42.000 317.022,42.270 317.329,42.600 317.455 C 42.930 317.582,43.200 317.897,43.200 318.154 C 43.200 318.412,43.560 318.883,44.000 319.200 C 44.440 319.517,44.800 320.021,44.800 320.320 C 44.800 320.619,45.610 321.673,46.600 322.663 C 47.590 323.653,48.400 324.647,48.400 324.871 C 48.400 325.095,48.940 325.783,49.600 326.400 C 50.260 327.017,50.800 327.719,50.800 327.960 C 50.800 328.202,50.935 328.400,51.100 328.400 C 51.637 328.401,53.391 330.173,53.970 331.300 C 54.281 331.905,54.685 332.400,54.868 332.400 C 55.050 332.400,55.200 332.640,55.200 332.932 C 55.200 333.225,55.644 333.702,56.186 333.993 C 56.729 334.283,57.078 334.673,56.963 334.860 C 56.847 335.047,56.988 335.204,57.276 335.209 C 57.564 335.213,58.340 335.869,59.000 336.666 C 59.660 337.462,60.706 338.583,61.325 339.157 C 61.943 339.731,63.158 340.861,64.025 341.669 C 64.891 342.476,65.600 343.331,65.600 343.569 C 65.600 343.806,65.842 344.000,66.138 344.000 C 66.434 344.000,67.002 344.360,67.400 344.800 C 67.798 345.240,68.284 345.600,68.480 345.600 C 68.976 345.600,70.800 347.473,70.800 347.982 C 70.800 348.212,71.081 348.400,71.424 348.400 C 71.767 348.400,71.936 348.580,71.800 348.800 C 71.664 349.020,71.833 349.200,72.176 349.200 C 72.519 349.200,72.800 349.350,72.800 349.532 C 72.800 349.715,73.293 350.120,73.895 350.432 C 74.497 350.745,75.762 351.765,76.706 352.700 C 77.649 353.635,78.647 354.400,78.922 354.400 C 79.198 354.400,79.683 354.760,80.000 355.200 C 80.317 355.640,80.807 356.000,81.088 356.000 C 81.370 356.000,81.600 356.180,81.600 356.400 C 81.600 356.620,81.827 356.800,82.104 356.800 C 82.381 356.800,83.146 357.426,83.804 358.191 C 84.462 358.957,85.315 359.587,85.700 359.591 C 86.085 359.596,86.400 359.780,86.400 360.000 C 86.400 360.220,86.670 360.400,87.000 360.400 C 87.330 360.400,87.600 360.580,87.600 360.800 C 87.600 361.020,87.894 361.200,88.253 361.200 C 88.612 361.200,89.197 361.528,89.553 361.928 C 89.909 362.329,90.785 362.998,91.500 363.415 C 92.215 363.831,92.800 364.314,92.800 364.486 C 92.800 364.659,93.120 364.800,93.512 364.800 C 93.903 364.800,94.483 365.160,94.800 365.600 C 95.117 366.040,95.697 366.400,96.088 366.400 C 96.480 366.400,96.800 366.580,96.800 366.800 C 96.800 367.020,97.250 367.200,97.800 367.200 C 98.350 367.200,98.800 367.393,98.800 367.629 C 98.800 368.266,99.853 369.200,100.571 369.200 C 100.917 369.200,101.200 369.380,101.200 369.600 C 101.200 369.820,101.650 370.000,102.200 370.000 C 102.750 370.000,103.200 370.159,103.200 370.354 C 103.200 370.549,103.785 371.004,104.500 371.365 C 105.942 372.094,107.294 372.894,107.600 373.200 C 107.710 373.310,108.070 373.459,108.400 373.530 C 108.730 373.602,109.060 373.827,109.133 374.030 C 109.207 374.234,109.601 374.400,110.010 374.400 C 110.418 374.400,110.864 374.580,111.000 374.800 C 111.136 375.020,111.597 375.200,112.024 375.200 C 112.451 375.200,112.800 375.380,112.800 375.600 C 112.800 375.820,113.160 376.000,113.600 376.000 C 114.040 376.000,114.400 376.180,114.400 376.400 C 114.400 376.620,114.831 376.800,115.357 376.800 C 115.884 376.800,116.401 377.026,116.507 377.301 C 116.613 377.577,117.397 378.040,118.250 378.329 C 119.697 378.820,122.499 380.025,124.095 380.844 C 124.477 381.040,125.152 381.200,125.595 381.200 C 126.038 381.200,126.400 381.380,126.400 381.600 C 126.400 381.820,126.856 382.000,127.413 382.000 C 127.969 382.000,128.514 382.232,128.623 382.516 C 128.732 382.799,129.219 383.061,129.705 383.098 C 130.191 383.135,130.651 383.352,130.727 383.582 C 130.804 383.812,131.482 384.000,132.233 384.000 C 132.985 384.000,133.600 384.180,133.600 384.400 C 133.600 384.620,134.140 384.800,134.800 384.800 C 135.460 384.800,136.000 384.980,136.000 385.200 C 136.000 385.420,136.630 385.600,137.400 385.600 C 138.170 385.600,138.800 385.780,138.800 386.000 C 138.800 386.220,139.340 386.400,140.000 386.400 C 140.660 386.400,141.200 386.580,141.200 386.800 C 141.200 387.020,141.815 387.200,142.567 387.200 C 143.318 387.200,143.997 387.392,144.075 387.626 C 144.153 387.860,144.978 388.154,145.909 388.278 C 146.839 388.403,147.600 388.662,147.600 388.853 C 147.600 389.044,148.230 389.200,149.000 389.200 C 149.770 389.200,150.400 389.380,150.400 389.600 C 150.400 389.820,151.300 390.000,152.400 390.000 C 153.500 390.000,154.400 390.180,154.400 390.400 C 154.400 390.620,155.210 390.800,156.200 390.800 C 157.190 390.800,158.000 390.980,158.000 391.200 C 158.000 391.420,158.878 391.600,159.951 391.600 C 161.144 391.600,162.084 391.820,162.371 392.165 C 162.629 392.477,163.912 392.837,165.220 392.965 C 166.529 393.094,168.725 393.305,170.100 393.434 C 171.475 393.562,172.771 393.832,172.980 394.034 C 173.189 394.235,174.944 394.400,176.880 394.400 C 178.960 394.400,180.400 394.564,180.400 394.800 C 180.400 395.330,218.088 395.351,218.620 394.822 C 218.829 394.613,220.661 394.410,222.691 394.369 C 224.721 394.328,226.295 394.154,226.188 393.981 C 226.081 393.807,227.210 393.565,228.697 393.442 C 235.382 392.887,236.458 392.715,236.669 392.163 C 236.818 391.775,237.557 391.600,239.043 391.600 C 240.229 391.600,241.200 391.420,241.200 391.200 C 241.200 390.980,242.100 390.800,243.200 390.800 C 244.300 390.800,245.200 390.639,245.200 390.442 C 245.200 390.245,245.920 389.975,246.800 389.842 C 247.680 389.709,249.120 389.491,250.000 389.358 C 250.880 389.225,251.600 388.955,251.600 388.758 C 251.600 388.561,252.217 388.400,252.971 388.400 C 253.726 388.400,254.613 388.130,254.943 387.800 C 255.273 387.470,256.096 387.200,256.771 387.200 C 257.447 387.200,258.000 387.020,258.000 386.800 C 258.000 386.580,258.540 386.400,259.200 386.400 C 259.860 386.400,260.400 386.220,260.400 386.000 C 260.400 385.780,260.929 385.600,261.576 385.600 C 262.223 385.600,262.864 385.420,263.000 385.200 C 263.136 384.980,263.777 384.800,264.424 384.800 C 265.071 384.800,265.600 384.620,265.600 384.400 C 265.600 384.180,266.140 384.000,266.800 384.000 C 267.460 384.000,268.000 383.840,268.000 383.645 C 268.000 383.449,268.630 383.171,269.400 383.026 C 270.170 382.882,270.800 382.592,270.800 382.382 C 270.800 382.172,271.250 382.000,271.800 382.000 C 272.350 382.000,272.800 381.820,272.800 381.600 C 272.800 381.380,273.340 381.200,274.000 381.200 C 274.660 381.200,275.200 381.020,275.200 380.800 C 275.200 380.580,275.560 380.400,276.000 380.400 C 276.440 380.400,276.800 380.220,276.800 380.000 C 276.800 379.780,277.124 379.600,277.520 379.600 C 277.916 379.600,278.411 379.451,278.620 379.270 C 278.829 379.088,279.768 378.698,280.706 378.404 C 281.644 378.109,282.611 377.628,282.855 377.334 C 283.098 377.040,283.636 376.800,284.049 376.800 C 284.462 376.800,284.800 376.620,284.800 376.400 C 284.800 376.180,285.160 376.000,285.600 376.000 C 286.040 376.000,286.400 375.820,286.400 375.600 C 286.400 375.380,286.850 375.200,287.400 375.200 C 287.950 375.200,288.400 375.064,288.400 374.898 C 288.400 374.549,290.851 373.377,291.300 373.511 C 291.465 373.560,291.600 373.440,291.600 373.243 C 291.600 373.047,292.050 372.774,292.600 372.636 C 293.150 372.498,293.600 372.208,293.600 371.992 C 293.600 371.777,293.971 371.600,294.424 371.600 C 294.877 371.600,295.136 371.420,295.000 371.200 C 294.864 370.980,295.033 370.800,295.376 370.800 C 295.719 370.800,296.000 370.620,296.000 370.400 C 296.000 370.180,296.349 370.000,296.776 370.000 C 297.203 370.000,297.664 369.820,297.800 369.600 C 297.936 369.380,298.354 369.200,298.729 369.200 C 299.103 369.200,299.748 368.750,300.161 368.200 C 300.574 367.650,301.157 367.200,301.456 367.200 C 301.755 367.200,302.000 367.020,302.000 366.800 C 302.000 366.580,302.326 366.400,302.725 366.400 C 303.123 366.400,303.836 366.040,304.308 365.600 C 304.780 365.160,305.404 364.800,305.695 364.800 C 305.986 364.800,306.483 364.440,306.800 364.000 C 307.117 363.560,307.599 363.200,307.870 363.200 C 308.142 363.200,308.814 362.750,309.364 362.200 C 309.914 361.650,310.642 361.200,310.982 361.200 C 311.322 361.200,311.600 361.020,311.600 360.800 C 311.600 360.580,311.870 360.400,312.200 360.400 C 312.530 360.400,312.800 360.220,312.800 360.000 C 312.800 359.780,313.171 359.600,313.624 359.600 C 314.077 359.600,314.336 359.420,314.200 359.200 C 314.064 358.980,314.125 358.800,314.334 358.800 C 314.544 358.800,315.140 358.353,315.658 357.807 C 316.176 357.261,316.733 356.811,316.895 356.807 C 317.181 356.800,318.329 355.932,319.416 354.900 C 319.706 354.625,320.119 354.400,320.335 354.400 C 320.550 354.400,321.560 353.590,322.579 352.600 C 323.597 351.610,324.622 350.800,324.855 350.800 C 325.088 350.800,325.783 350.260,326.400 349.600 C 327.017 348.940,327.719 348.400,327.960 348.400 C 328.202 348.400,328.400 348.202,328.400 347.960 C 328.400 347.416,330.784 345.147,331.141 345.352 C 331.479 345.547,345.367 331.546,345.509 330.866 C 345.651 330.187,347.443 328.400,347.982 328.400 C 348.212 328.400,348.400 328.202,348.400 327.960 C 348.400 327.719,348.940 327.017,349.600 326.400 C 350.260 325.783,350.800 325.088,350.800 324.855 C 350.800 324.622,351.610 323.597,352.600 322.579 C 353.590 321.560,354.400 320.565,354.400 320.368 C 354.400 320.028,355.192 318.951,356.300 317.784 C 356.575 317.494,356.803 317.109,356.807 316.929 C 356.811 316.748,357.261 316.176,357.807 315.658 C 358.353 315.140,358.800 314.544,358.800 314.334 C 358.800 314.125,358.980 314.064,359.200 314.200 C 359.420 314.336,359.600 314.077,359.600 313.624 C 359.600 313.171,359.780 312.800,360.000 312.800 C 360.220 312.800,360.400 312.530,360.400 312.200 C 360.400 311.870,360.580 311.600,360.800 311.600 C 361.020 311.600,361.200 311.322,361.200 310.982 C 361.200 310.642,361.650 309.914,362.200 309.364 C 362.750 308.814,363.200 308.142,363.200 307.870 C 363.200 307.599,363.560 307.117,364.000 306.800 C 364.440 306.483,364.800 305.986,364.800 305.695 C 364.800 305.404,365.160 304.780,365.600 304.308 C 366.040 303.836,366.400 303.123,366.400 302.725 C 366.400 302.326,366.580 302.000,366.800 302.000 C 367.020 302.000,367.200 301.755,367.200 301.456 C 367.200 301.157,367.650 300.574,368.200 300.161 C 368.750 299.748,369.200 299.103,369.200 298.729 C 369.200 298.354,369.380 297.936,369.600 297.800 C 369.820 297.664,370.000 297.203,370.000 296.776 C 370.000 296.349,370.180 296.000,370.400 296.000 C 370.620 296.000,370.800 295.719,370.800 295.376 C 370.800 295.033,370.980 294.864,371.200 295.000 C 371.420 295.136,371.600 294.877,371.600 294.424 C 371.600 293.971,371.777 293.600,371.992 293.600 C 372.208 293.600,372.498 293.150,372.636 292.600 C 372.774 292.050,373.047 291.600,373.243 291.600 C 373.440 291.600,373.560 291.465,373.511 291.300 C 373.377 290.851,374.549 288.400,374.898 288.400 C 375.064 288.400,375.200 287.950,375.200 287.400 C 375.200 286.850,375.380 286.400,375.600 286.400 C 375.820 286.400,376.000 286.040,376.000 285.600 C 376.000 285.160,376.180 284.800,376.400 284.800 C 376.620 284.800,376.800 284.462,376.800 284.049 C 376.800 283.636,377.040 283.098,377.334 282.855 C 377.628 282.611,378.109 281.644,378.404 280.706 C 378.698 279.768,379.088 278.829,379.270 278.620 C 379.451 278.411,379.600 277.916,379.600 277.520 C 379.600 277.124,379.780 276.800,380.000 276.800 C 380.220 276.800,380.400 276.440,380.400 276.000 C 380.400 275.560,380.580 275.200,380.800 275.200 C 381.020 275.200,381.200 274.660,381.200 274.000 C 381.200 273.340,381.380 272.800,381.600 272.800 C 381.820 272.800,382.000 272.350,382.000 271.800 C 382.000 271.250,382.172 270.800,382.382 270.800 C 382.592 270.800,382.882 270.170,383.026 269.400 C 383.171 268.630,383.449 268.000,383.645 268.000 C 383.840 268.000,384.000 267.460,384.000 266.800 C 384.000 266.140,384.180 265.600,384.400 265.600 C 384.620 265.600,384.800 265.071,384.800 264.424 C 384.800 263.777,384.980 263.136,385.200 263.000 C 385.420 262.864,385.600 262.223,385.600 261.576 C 385.600 260.929,385.780 260.400,386.000 260.400 C 386.220 260.400,386.400 259.860,386.400 259.200 C 386.400 258.540,386.580 258.000,386.800 258.000 C 387.020 258.000,387.200 257.447,387.200 256.771 C 387.200 256.096,387.470 255.273,387.800 254.943 C 388.130 254.613,388.400 253.726,388.400 252.971 C 388.400 252.217,388.561 251.600,388.758 251.600 C 388.955 251.600,389.225 250.880,389.358 250.000 C 389.491 249.120,389.709 247.680,389.842 246.800 C 389.975 245.920,390.245 245.200,390.442 245.200 C 390.639 245.200,390.800 244.300,390.800 243.200 C 390.800 242.100,390.980 241.200,391.200 241.200 C 391.420 241.200,391.600 240.229,391.600 239.043 C 391.600 237.557,391.775 236.818,392.163 236.669 C 392.715 236.458,392.887 235.382,393.442 228.697 C 393.565 227.210,393.807 226.081,393.981 226.188 C 394.154 226.295,394.328 224.721,394.369 222.691 C 394.410 220.661,394.613 218.829,394.822 218.620 C 395.351 218.088,395.330 180.400,394.800 180.400 C 394.564 180.400,394.400 178.960,394.400 176.880 C 394.400 174.944,394.235 173.189,394.034 172.980 C 393.832 172.771,393.562 171.475,393.434 170.100 C 393.305 168.725,393.094 166.529,392.965 165.220 C 392.837 163.912,392.477 162.629,392.165 162.371 C 391.820 162.084,391.600 161.144,391.600 159.951 C 391.600 158.878,391.420 158.000,391.200 158.000 C 390.980 158.000,390.800 157.190,390.800 156.200 C 390.800 155.210,390.620 154.400,390.400 154.400 C 390.180 154.400,390.000 153.500,390.000 152.400 C 390.000 151.300,389.820 150.400,389.600 150.400 C 389.380 150.400,389.200 149.770,389.200 149.000 C 389.200 148.230,389.044 147.600,388.853 147.600 C 388.662 147.600,388.403 146.839,388.278 145.909 C 388.154 144.978,387.860 144.153,387.626 144.075 C 387.392 143.997,387.200 143.318,387.200 142.567 C 387.200 141.815,387.020 141.200,386.800 141.200 C 386.580 141.200,386.400 140.660,386.400 140.000 C 386.400 139.340,386.220 138.800,386.000 138.800 C 385.780 138.800,385.600 138.170,385.600 137.400 C 385.600 136.630,385.420 136.000,385.200 136.000 C 384.980 136.000,384.800 135.460,384.800 134.800 C 384.800 134.140,384.620 133.600,384.400 133.600 C 384.180 133.600,384.000 132.985,384.000 132.233 C 384.000 131.482,383.812 130.804,383.582 130.727 C 383.352 130.651,383.135 130.191,383.098 129.705 C 383.061 129.219,382.799 128.732,382.516 128.623 C 382.232 128.514,382.000 127.969,382.000 127.413 C 382.000 126.856,381.820 126.400,381.600 126.400 C 381.380 126.400,381.200 126.038,381.200 125.595 C 381.200 125.152,381.040 124.477,380.844 124.095 C 380.025 122.499,378.820 119.697,378.329 118.250 C 378.040 117.397,377.577 116.613,377.301 116.507 C 377.026 116.401,376.800 115.884,376.800 115.357 C 376.800 114.831,376.620 114.400,376.400 114.400 C 376.180 114.400,376.000 114.040,376.000 113.600 C 376.000 113.160,375.820 112.800,375.600 112.800 C 375.380 112.800,375.200 112.451,375.200 112.024 C 375.200 111.597,375.020 111.136,374.800 111.000 C 374.580 110.864,374.400 110.418,374.400 110.010 C 374.400 109.601,374.233 109.207,374.030 109.133 C 373.826 109.060,373.601 108.730,373.530 108.400 C 373.458 108.070,373.310 107.710,373.200 107.600 C 372.894 107.294,372.094 105.942,371.365 104.500 C 371.004 103.785,370.549 103.200,370.354 103.200 C 370.159 103.200,370.000 102.750,370.000 102.200 C 370.000 101.650,369.820 101.200,369.600 101.200 C 369.380 101.200,369.200 100.917,369.200 100.571 C 369.200 99.853,368.266 98.800,367.629 98.800 C 367.393 98.800,367.200 98.350,367.200 97.800 C 367.200 97.250,367.020 96.800,366.800 96.800 C 366.580 96.800,366.400 96.480,366.400 96.088 C 366.400 95.697,366.040 95.117,365.600 94.800 C 365.160 94.483,364.800 93.903,364.800 93.512 C 364.800 93.120,364.659 92.800,364.486 92.800 C 364.314 92.800,363.831 92.215,363.415 91.500 C 362.998 90.785,362.329 89.909,361.928 89.553 C 361.528 89.197,361.200 88.612,361.200 88.253 C 361.200 87.894,361.020 87.600,360.800 87.600 C 360.580 87.600,360.400 87.330,360.400 87.000 C 360.400 86.670,360.220 86.400,360.000 86.400 C 359.780 86.400,359.596 86.085,359.591 85.700 C 359.587 85.315,358.957 84.462,358.191 83.804 C 357.426 83.146,356.800 82.381,356.800 82.104 C 356.800 81.827,356.620 81.600,356.400 81.600 C 356.180 81.600,356.000 81.370,356.000 81.088 C 356.000 80.807,355.640 80.317,355.200 80.000 C 354.760 79.683,354.400 79.198,354.400 78.922 C 354.400 78.647,353.635 77.649,352.700 76.706 C 351.765 75.762,350.745 74.497,350.432 73.895 C 350.120 73.293,349.715 72.800,349.532 72.800 C 349.350 72.800,349.200 72.519,349.200 72.176 C 349.200 71.833,349.020 71.664,348.800 71.800 C 348.580 71.936,348.400 71.767,348.400 71.424 C 348.400 71.081,348.212 70.800,347.982 70.800 C 347.473 70.800,345.600 68.976,345.600 68.480 C 345.600 68.284,345.240 67.798,344.800 67.400 C 344.360 67.002,344.000 66.434,344.000 66.138 C 344.000 65.842,343.806 65.600,343.569 65.600 C 343.331 65.600,342.476 64.891,341.669 64.025 C 340.861 63.158,339.731 61.943,339.157 61.325 C 338.583 60.706,337.462 59.660,336.666 59.000 C 335.869 58.340,335.213 57.564,335.209 57.276 C 335.204 56.988,335.047 56.847,334.860 56.963 C 334.673 57.078,334.283 56.729,333.993 56.186 C 333.702 55.644,333.225 55.200,332.932 55.200 C 332.640 55.200,332.400 55.050,332.400 54.868 C 332.400 54.685,331.905 54.281,331.300 53.970 C 330.173 53.391,328.401 51.637,328.400 51.100 C 328.400 50.935,328.202 50.800,327.960 50.800 C 327.719 50.800,327.017 50.260,326.400 49.600 C 325.783 48.940,325.095 48.400,324.871 48.400 C 324.647 48.400,323.653 47.590,322.663 46.600 C 321.673 45.610,320.619 44.800,320.320 44.800 C 320.021 44.800,319.517 44.440,319.200 44.000 C 318.883 43.560,318.412 43.200,318.154 43.200 C 317.897 43.200,317.582 42.930,317.455 42.600 C 317.329 42.270,317.022 42.000,316.773 42.000 C 316.524 42.000,315.817 41.460,315.200 40.800 C 314.583 40.140,313.791 39.600,313.440 39.600 C 313.088 39.600,312.800 39.420,312.800 39.200 C 312.800 38.980,312.530 38.800,312.200 38.800 C 311.870 38.800,311.600 38.620,311.600 38.400 C 311.600 38.180,311.240 38.000,310.800 38.000 C 310.360 38.000,310.000 37.795,310.000 37.544 C 310.000 36.958,308.780 36.029,307.988 36.013 C 307.652 36.006,307.117 35.640,306.800 35.200 C 306.483 34.760,305.986 34.400,305.695 34.400 C 305.404 34.400,304.780 34.040,304.308 33.600 C 303.836 33.160,303.123 32.800,302.725 32.800 C 302.326 32.800,302.000 32.530,302.000 32.200 C 302.000 31.870,301.680 31.600,301.288 31.600 C 300.897 31.600,300.317 31.240,300.000 30.800 C 299.683 30.360,299.114 30.000,298.735 30.000 C 298.357 30.000,297.936 29.820,297.800 29.600 C 297.664 29.380,297.203 29.200,296.776 29.200 C 296.349 29.200,296.000 29.020,296.000 28.800 C 296.000 28.580,295.761 28.400,295.470 28.400 C 295.178 28.400,294.517 27.950,294.000 27.400 C 293.483 26.850,292.732 26.400,292.330 26.400 C 291.929 26.400,291.600 26.220,291.600 26.000 C 291.600 25.780,291.240 25.600,290.800 25.600 C 290.360 25.600,290.000 25.420,290.000 25.200 C 290.000 24.980,289.640 24.800,289.200 24.800 C 288.760 24.800,288.400 24.620,288.400 24.400 C 288.400 24.180,287.950 24.000,287.400 24.000 C 286.850 24.000,286.400 23.820,286.400 23.600 C 286.400 23.380,286.040 23.200,285.600 23.200 C 285.160 23.200,284.800 23.033,284.800 22.829 C 284.800 22.402,282.541 21.200,281.739 21.200 C 281.442 21.200,281.200 21.059,281.200 20.887 C 281.200 20.715,280.705 20.534,280.100 20.484 C 279.495 20.434,278.940 20.215,278.867 19.997 C 278.793 19.778,278.298 19.600,277.767 19.600 C 277.235 19.600,276.800 19.420,276.800 19.200 C 276.800 18.980,276.451 18.800,276.024 18.800 C 275.597 18.800,275.136 18.620,275.000 18.400 C 274.864 18.180,274.333 18.000,273.819 18.000 C 273.306 18.000,272.782 17.730,272.655 17.400 C 272.529 17.070,272.070 16.800,271.636 16.800 C 271.202 16.800,270.736 16.620,270.600 16.400 C 270.464 16.180,269.823 16.000,269.176 16.000 C 268.529 16.000,268.000 15.820,268.000 15.600 C 268.000 15.380,267.460 15.200,266.800 15.200 C 266.140 15.200,265.600 15.020,265.600 14.800 C 265.600 14.580,264.970 14.400,264.200 14.400 C 263.430 14.400,262.800 14.220,262.800 14.000 C 262.800 13.780,262.260 13.600,261.600 13.600 C 260.940 13.600,260.400 13.420,260.400 13.200 C 260.400 12.980,259.937 12.800,259.371 12.800 C 258.806 12.800,258.073 12.530,257.743 12.200 C 257.413 11.870,256.706 11.600,256.171 11.600 C 255.637 11.600,255.200 11.455,255.200 11.278 C 255.200 11.101,254.435 10.912,253.500 10.858 C 252.565 10.804,251.740 10.589,251.667 10.380 C 251.593 10.171,250.929 10.000,250.190 10.000 C 249.452 10.000,248.736 9.820,248.600 9.600 C 248.464 9.380,247.553 9.200,246.576 9.200 C 245.599 9.200,244.800 9.020,244.800 8.800 C 244.800 8.580,244.005 8.400,243.033 8.400 C 242.046 8.400,241.198 8.195,241.112 7.935 C 241.026 7.679,240.092 7.433,239.036 7.389 C 237.979 7.345,236.999 7.123,236.857 6.895 C 236.716 6.667,235.475 6.372,234.100 6.240 C 232.725 6.108,230.475 5.895,229.100 5.766 C 227.725 5.638,226.429 5.368,226.220 5.166 C 226.011 4.965,224.267 4.800,222.344 4.800 C 220.421 4.800,218.736 4.620,218.600 4.400 C 218.260 3.850,180.400 3.850,180.400 4.400 M214.400 38.200 C 324.139 49.371,391.104 162.521,347.611 263.287 C 302.368 368.109,165.648 394.086,84.770 313.228 C 39.268 267.738,24.566 196.111,49.007 139.000 C 67.598 95.559,95.559 67.598,139.000 49.007 C 159.814 40.099,190.229 35.740,214.400 38.200 M84.357 127.227 C 84.155 127.351,83.902 132.301,83.793 138.227 C 83.397 159.795,82.374 186.182,81.195 205.200 C 79.608 230.798,78.053 249.429,75.957 267.934 C 75.724 269.987,75.623 271.756,75.732 271.866 C 75.842 271.975,101.282 272.065,132.266 272.066 L 188.600 272.067 188.887 269.534 C 189.183 266.919,189.721 259.605,190.376 249.264 C 190.583 246.000,190.865 242.881,191.002 242.335 C 191.456 240.526,191.168 240.501,174.200 240.879 C 165.400 241.075,150.751 241.116,141.646 240.970 L 125.092 240.704 125.344 231.852 C 125.595 223.028,125.805 218.623,126.985 197.400 C 127.328 191.240,127.786 182.870,128.003 178.800 C 128.394 171.478,128.885 163.243,129.603 152.000 C 129.807 148.810,130.154 143.320,130.376 139.800 C 130.597 136.280,130.899 132.005,131.047 130.300 C 131.264 127.790,131.209 127.197,130.758 127.187 C 124.240 127.031,84.619 127.065,84.357 127.227 M212.271 127.129 C 211.666 127.246,211.598 128.203,211.584 136.929 C 211.570 146.023,211.353 154.640,210.398 184.000 C 209.263 218.873,207.975 242.558,206.426 257.000 C 205.406 266.512,205.122 269.893,205.255 270.953 L 205.400 272.106 228.600 272.071 C 241.360 272.052,251.996 272.028,252.235 272.018 C 252.537 272.005,252.749 266.262,252.930 253.100 C 253.172 235.565,253.855 216.026,254.240 215.630 C 254.935 214.918,301.858 214.630,308.400 215.298 L 309.400 215.400 309.847 207.211 C 310.093 202.707,310.363 195.507,310.447 191.211 L 310.600 183.400 283.200 183.400 L 255.800 183.400 255.932 177.800 C 256.004 174.720,256.184 169.140,256.332 165.400 L 256.600 158.600 289.600 158.400 L 322.600 158.200 322.846 153.200 C 322.982 150.450,323.337 144.510,323.634 140.000 C 323.932 135.490,324.181 130.754,324.188 129.477 L 324.200 127.153 268.571 127.077 C 237.975 127.034,212.640 127.058,212.271 127.129 " stroke="none" fill="#fbcb43" fill-rule="evenodd"></path><path id="path1" d="M183.400 38.221 C 167.439 39.899,150.886 43.920,139.000 49.007 C 95.559 67.598,67.598 95.559,49.007 139.000 C 20.954 204.551,44.954 287.624,104.200 330.046 C 201.574 399.767,337.436 344.812,358.454 227.200 C 377.153 122.563,288.765 27.143,183.400 38.221 M130.758 127.187 C 131.209 127.197,131.264 127.790,131.047 130.300 C 130.899 132.005,130.597 136.280,130.376 139.800 C 130.154 143.320,129.807 148.810,129.603 152.000 C 128.885 163.243,128.394 171.478,128.003 178.800 C 127.786 182.870,127.328 191.240,126.985 197.400 C 125.805 218.623,125.595 223.028,125.344 231.852 L 125.092 240.704 141.646 240.970 C 150.751 241.116,165.400 241.075,174.200 240.879 C 191.168 240.501,191.456 240.526,191.002 242.335 C 190.865 242.881,190.583 246.000,190.376 249.264 C 189.721 259.605,189.183 266.919,188.887 269.534 L 188.600 272.067 132.266 272.066 C 101.282 272.065,75.842 271.975,75.732 271.866 C 75.623 271.756,75.724 269.987,75.957 267.934 C 78.053 249.429,79.608 230.798,81.195 205.200 C 82.374 186.182,83.397 159.795,83.793 138.227 C 83.902 132.301,84.155 127.351,84.357 127.227 C 84.619 127.065,124.240 127.031,130.758 127.187 M324.188 129.477 C 324.181 130.754,323.932 135.490,323.634 140.000 C 323.337 144.510,322.982 150.450,322.846 153.200 L 322.600 158.200 289.600 158.400 L 256.600 158.600 256.332 165.400 C 256.184 169.140,256.004 174.720,255.932 177.800 L 255.800 183.400 283.200 183.400 L 310.600 183.400 310.447 191.211 C 310.363 195.507,310.093 202.707,309.847 207.211 L 309.400 215.400 308.400 215.298 C 301.858 214.630,254.935 214.918,254.240 215.630 C 253.855 216.026,253.172 235.565,252.930 253.100 C 252.749 266.262,252.537 272.005,252.235 272.018 C 251.996 272.028,241.360 272.052,228.600 272.071 L 205.400 272.106 205.255 270.953 C 205.122 269.893,205.406 266.512,206.426 257.000 C 207.975 242.558,209.263 218.873,210.398 184.000 C 211.353 154.640,211.570 146.023,211.584 136.929 C 211.598 128.203,211.666 127.246,212.271 127.129 C 212.640 127.058,237.975 127.034,268.571 127.077 L 324.200 127.153 324.188 129.477 " stroke="none" fill="#d48404" fill-rule="evenodd"></path></g></svg>