<?xml version="1.0" encoding="utf-8"?>
<!-- Generator: Adobe Illustrator 21.0.0, SVG Export Plug-In . SVG Version: 6.00 Build 0)  -->
<svg version="1.1" id="Layer_1" xmlns="http://www.w3.org/2000/svg" xmlns:xlink="http://www.w3.org/1999/xlink" x="0px" y="0px"
	 viewBox="0 0 199.3 199.3" style="enable-background:new 0 0 199.3 199.3;" xml:space="preserve">
<style type="text/css">
	.st0{fill:#18543D;}
</style>
<circle class="st0" cx="99.7" cy="99.7" r="99.7"/>
<g>
	<g>
		<defs>
			<path id="SVGID_1_" d="M102.2,122.3c-1.7,0-3,1.3-3,3v36c0,0-24-10.7-24-24v-7v-9"/>
		</defs>
		<linearGradient id="SVGID_2_" gradientUnits="userSpaceOnUse" x1="80.8937" y1="118.0264" x2="104.2144" y2="158.4191">
			<stop  offset="0.1514" style="stop-color:#147A52"/>
			<stop  offset="0.5514" style="stop-color:#41A07B"/>
			<stop  offset="1" style="stop-color:#3D9C77"/>
		</linearGradient>
		<use xlink:href="#SVGID_1_"  style="overflow:visible;fill-rule:evenodd;clip-rule:evenodd;fill:url(#SVGID_2_);"/>
		<clipPath id="SVGID_3_">
			<use xlink:href="#SVGID_1_"  style="overflow:visible;"/>
		</clipPath>
	</g>
	<g>
		<defs>
			<path id="SVGID_4_" d="M101.2,61.3h3c19.9,0,43,5.1,43,25c0,19.9-16.1,36-36,36h-3h-6c-0.2,0-0.3,0-0.5,0c-0.3,0-0.6,0-1,0
				c-11.5,0-20.8,9.3-20.8,20.8c0,2,0.3,3.9,0.8,5.7c-3.2-3.4-5.6-7.3-5.6-11.5v-15v-9c0-8.3,6.7-15,15-15h6h3h6h5.5
				c6.3,0,11.9-4.6,12.5-10.8c0.7-7.2-4.9-13.2-11.9-13.2h-6"/>
		</defs>
		<linearGradient id="SVGID_5_" gradientUnits="userSpaceOnUse" x1="68.708" y1="136.749" x2="137.4659" y2="67.9911">
			<stop  offset="0" style="stop-color:#41A07B"/>
			<stop  offset="0.7216" style="stop-color:#3D9C77"/>
			<stop  offset="1" style="stop-color:#147A52"/>
		</linearGradient>
		<use xlink:href="#SVGID_4_"  style="overflow:visible;fill-rule:evenodd;clip-rule:evenodd;fill:url(#SVGID_5_);"/>
		<clipPath id="SVGID_6_">
			<use xlink:href="#SVGID_4_"  style="overflow:visible;"/>
		</clipPath>
	</g>
	<g>
		<defs>
			<path id="SVGID_7_" d="M142.4,104.3c-0.2-16.6-13.6-29.9-30.2-29.9c-0.1,0-0.2,0-0.2,0v0h-0.7c0,0,0,0,0,0h-6h-21
				c-13.3,0-24-10.7-24-24h48h3c19.9,0,36,16.1,36,36C147.2,92.9,145.4,99,142.4,104.3L142.4,104.3z"/>
		</defs>
		<use xlink:href="#SVGID_7_"  style="overflow:visible;fill-rule:evenodd;clip-rule:evenodd;fill:#408cae;"/>
		<clipPath id="SVGID_8_">
			<use xlink:href="#SVGID_7_"  style="overflow:visible;"/>
		</clipPath>
	</g>
</g>
</svg>
