<?xml version="1.0" encoding="iso-8859-1"?>
<!-- Generator: Adobe Illustrator 16.0.0, SVG Export Plug-In . SVG Version: 6.00 Build 0)  -->
<!DOCTYPE svg PUBLIC "-//W3C//DTD SVG 1.1//EN" "http://www.w3.org/Graphics/SVG/1.1/DTD/svg11.dtd">
<svg xmlns="http://www.w3.org/2000/svg" xmlns:xlink="http://www.w3.org/1999/xlink" version="1.1" id="Capa_1" x="0px" y="0px" width="512px" height="512px" viewBox="0 0 27.834 27.834" style="enable-background:new 0 0 27.834 27.834;" xml:space="preserve">
<g>
	<path d="M9.258,23.087v-2.576H6.991v-2.284h2.267v-1.279H6.991V14.66h2.267V6.69H16.8c1.894,0,3.164,0.374,3.892,1.143   c0.72,0.763,1.07,2.098,1.07,4.08c0,1.913-0.367,3.198-1.123,3.932c-0.75,0.729-2.07,1.085-4.031,1.085l-0.681,0.012h-2.046   l-0.195,0.004h-1.868v1.279h2.263v2.286h-2.263v2.576H9.258L9.258,23.087z M15.588,14.652c2.057,0,2.83-0.25,3.119-0.459   c0.261-0.19,0.572-0.717,0.572-2.146c0-1.843-0.254-2.425-0.405-2.607c-0.142-0.169-0.595-0.454-2.052-0.454l-0.682-0.012h-4.324   v5.677H15.588L15.588,14.652z M13.917,27.834C6.244,27.834,0,21.591,0,13.917S6.243,0,13.917,0s13.917,6.243,13.917,13.917   S21.59,27.834,13.917,27.834z M13.917,3.001C7.897,3.001,3,7.898,3,13.918c0,6.021,4.897,10.917,10.917,10.917   c6.021,0,10.917-4.896,10.917-10.917C24.834,7.898,19.938,3.001,13.917,3.001z" fill="#4c4c4c"/>
</g>
<g>
</g>
<g>
</g>
<g>
</g>
<g>
</g>
<g>
</g>
<g>
</g>
<g>
</g>
<g>
</g>
<g>
</g>
<g>
</g>
<g>
</g>
<g>
</g>
<g>
</g>
<g>
</g>
<g>
</g>
</svg>
