<?xml version="1.0"?>
<svg width="512" height="512" xmlns="http://www.w3.org/2000/svg">
 <g>
     <rect fill="none" id="canvas_background" height="514" width="514" y="-1" x="-1"/>
      </g>
       <g>
           <path stroke="null" id="svg_1" fill="#4c4c4c" d="m255.615997,0c-141.170456,0 -255.615997,114.44561 -255.615997,255.615997s114.441429,255.615997 255.615997,255.615997c141.174591,0 255.615997,-114.445618 255.615997,-255.615997s-114.445618,-255.615997 -255.615997,-255.615997zm74.889343,377.541443c-12.918579,15.278992 -32.292175,24.71701 -58.125153,28.317871l0,28.317932l-34.648529,0l0,-29.247223c-20.120407,-1.987152 -37.693573,-9.715759 -52.719589,-23.194458c-15.03009,-13.474365 -22.543091,-36.97583 -22.543091,-70.512543l0,-14.714813l75.26268,0l0,18.444305c0,20.244873 0.775818,32.819061 2.327347,37.722565c1.555695,4.907776 5.310104,7.355377 11.271606,7.355377c5.094376,0 8.877792,-1.704956 11.362747,-5.123352c2.484985,-3.414246 3.725433,-8.475464 3.725433,-15.183655c0,-16.888733 -1.182343,-28.965057 -3.542847,-36.233337c-2.360535,-7.26413 -10.43364,-15.179474 -24.219193,-23.750366c-22.978745,-14.403656 -38.593719,-24.990723 -46.849396,-31.7612c-8.263885,-6.77037 -15.403427,-16.303711 -21.427078,-28.595734c-6.027893,-12.296341 -9.035538,-26.20636 -9.035538,-41.730194c0,-22.476746 6.363831,-40.112061 19.095673,-52.906204c12.727676,-12.789955 31.82338,-20.676323 57.287079,-23.659096l0,-24.03244l34.648605,0l0,24.03244c23.22345,2.978729 40.610016,10.773804 52.159515,23.377037c11.5495,12.607391 17.324249,30.0271 17.324249,52.254959c0,3.107208 -0.248901,7.824066 -0.742645,14.15892l-75.258514,0l0,-12.482956c0,-13.287766 -0.866974,-21.983124 -2.605225,-26.081894c-1.738281,-4.098648 -5.463684,-6.148117 -11.176147,-6.148117c-4.596588,0 -8.044006,1.771439 -10.342346,5.31012c-2.298248,3.542877 -3.447418,8.848801 -3.447418,15.9263c0,11.802582 2.356354,20.058121 7.077377,24.77916c4.592407,4.721039 18.133255,13.910004 40.614182,27.571136c19.120605,11.5495 32.163544,20.3983 39.120636,26.546417c6.952911,6.148209 12.818939,14.843445 17.606445,26.077698c4.779022,11.242493 7.172699,25.243805 7.172699,42.008087c0,26.832672 -6.459167,47.882324 -19.373566,63.157257z"/>
            </g>
            </svg>
