<svg width="223" height="234" viewBox="0 0 223 234" fill="none" xmlns="http://www.w3.org/2000/svg">
<path fill-rule="evenodd" clip-rule="evenodd" d="M199.588 42.7214L134.207 6.47193C120.011 -1.39941 102.519 -1.39941 88.3225 6.47193L22.9425 42.7214C8.74562 50.5928 0 65.1396 0 80.8823V153.381C0 169.124 8.74562 183.671 22.9425 191.542L88.3225 227.792C102.519 235.663 120.011 235.663 134.207 227.792L199.588 191.542C213.784 183.671 222.53 169.124 222.53 153.381V80.8823C222.53 65.1396 213.784 50.5928 199.588 42.7214ZM170.525 113.619C170.579 112.527 170.606 111.42 170.606 110.297C170.606 78.3166 148.303 58.8501 117.285 58.8501H75.927V113.619H101.332V82.0244H117.432C135.452 82.0244 144.61 94.3841 144.61 110.297C144.61 111.417 144.556 112.526 144.45 113.619H170.525ZM51.9237 124.857V175.414H93.4352C123.86 175.414 145.965 156.229 146.603 124.857H120.589C119.999 139.65 110.046 152.08 93.2875 152.08H77.3329V124.857H51.9237Z" fill="#1452F0"/>
<path fill-rule="evenodd" clip-rule="evenodd" d="M170.524 113.619C170.579 112.527 170.606 111.42 170.606 110.297C170.606 78.3166 148.303 58.8501 117.285 58.8501H75.9269V113.619H101.332V82.0244H117.432C135.452 82.0244 144.61 94.3841 144.61 110.297C144.61 111.417 144.556 112.526 144.45 113.619H170.524ZM51.9236 124.857V175.414H93.4351C123.86 175.414 145.965 156.229 146.603 124.857H120.589C119.999 139.65 110.046 152.08 93.2875 152.08H77.3328V124.857H51.9236Z" fill="white"/>
</svg>
