<?xml version="1.0" encoding="utf-8"?>
<!-- Generator: Adobe Illustrator 23.0.1, SVG Export Plug-In . SVG Version: 6.00 Build 0)  -->
<svg version="1.1" id="Layer_1" xmlns="http://www.w3.org/2000/svg" xmlns:xlink="http://www.w3.org/1999/xlink" x="0px" y="0px"
	 viewBox="0 0 452.7 452.7" style="enable-background:new 0 0 452.7 452.7;" xml:space="preserve">
<style type="text/css">
	.st0{fill:url(#SVGID_1_);}
	.st1{fill:url(#SVGID_2_);}
	.st2{fill:url(#SVGID_3_);}
	.st3{fill:url(#SVGID_4_);}
	.st4{fill:url(#SVGID_5_);}
</style>
<g>
	<g>
		<g>
			<linearGradient id="SVGID_1_" gradientUnits="userSpaceOnUse" x1="197.8885" y1="409.2458" x2="339.4938" y2="50.5129">
				<stop  offset="0" style="stop-color:#0E567D"/>
				<stop  offset="1" style="stop-color:#01A39B"/>
			</linearGradient>
			<path class="st0" d="M430.9,226.5c0,110.3-89.7,200-200,200h-25.5c-25.1,0-45.6-19.4-47.4-44c-0.1-1.2-0.2-2.4-0.2-3.6
				c0-26.3,21.3-47.6,47.6-47.6h25.5c57.8,0,104.8-47,104.8-104.8c0-57.8-47-104.8-104.8-104.8h-25.5c-26.3,0-47.6-21.3-47.6-47.6
				c0-1.2,0-2.4,0.2-3.6c1.8-24.6,22.4-44,47.4-44h25.5C341.2,26.5,430.9,116.2,430.9,226.5z"/>
		</g>
		<g>
			<linearGradient id="SVGID_2_" gradientUnits="userSpaceOnUse" x1="77.5722" y1="226.4642" x2="289.003" y2="226.4642">
				<stop  offset="0" style="stop-color:#0E567D"/>
				<stop  offset="1" style="stop-color:#01A39B"/>
			</linearGradient>
			<path class="st1" d="M362.5,226.5c0,92.2-75,167.1-167.1,167.1h-9.8c-10.7,0-20.4-4.2-27.6-11.1c-0.1-1.2-0.2-2.4-0.2-3.6
				c0-26.3,21.3-47.6,47.6-47.6h25.5c57.8,0,104.8-47,104.8-104.8c0-57.8-47-104.8-104.8-104.8h-25.5c-26.3,0-47.6-21.3-47.6-47.6
				c0-1.2,0-2.4,0.2-3.6c7.2-6.9,16.9-11.1,27.6-11.1h9.8C287.6,59.3,362.5,134.3,362.5,226.5z"/>
		</g>
	</g>
	<g>
		<g>
			
				<linearGradient id="SVGID_3_" gradientUnits="userSpaceOnUse" x1="-486.1753" y1="385.4449" x2="-335.4563" y2="3.624" gradientTransform="matrix(1 0 0 1 518 -20)">
				<stop  offset="0" style="stop-color:#FFA608"/>
				<stop  offset="1" style="stop-color:#FFE308"/>
			</linearGradient>
			<path class="st2" d="M179.5,226.5c0,12.6-5,24.7-14,33.7L100.7,325c-1.1,1.1-2.2,2.1-3.4,3.1c-2.8,2.4-5.9,4.3-9.1,5.9
				c-6.6,3.3-13.9,5-21.2,5c-12.2,0-24.4-4.7-33.7-14c-18.6-18.6-18.6-48.7,0-67.3l31.2-31.2l-31.2-31.2
				c-18.6-18.6-18.6-48.7,0-67.3c14.8-14.8,37-17.8,54.8-9c3.2,1.6,6.3,3.6,9.2,6c1.1,1,2.2,1.9,3.3,3l2.6,2.6l62.2,62.2
				C174.5,201.7,179.5,213.9,179.5,226.5z"/>
		</g>
		<g>
			
				<linearGradient id="SVGID_4_" gradientUnits="userSpaceOnUse" x1="-327.9742" y1="413.5114" x2="-439.351" y2="197.4574" gradientTransform="matrix(1 0 0 1 518 -20)">
				<stop  offset="0" style="stop-color:#FFA608"/>
				<stop  offset="1" style="stop-color:#FFE308"/>
			</linearGradient>
			<path class="st3" d="M179.5,226.5c0,12.6-5,24.7-14,33.7L100.7,325c-1.1,1.1-2.2,2.1-3.4,3.1c-2.8,2.4-5.9,4.3-9.1,5.9
				c-4.5-2.2-8.8-5.2-12.5-9c-18.6-18.6-18.6-48.7,0-67.3l31.2-31.2l-31.2-31.2c-18.6-18.6-18.6-48.7,0-67.3c3.8-3.8,8-6.7,12.5-9
				c3.2,1.6,6.3,3.6,9.2,6c1.1,1,2.2,1.9,3.3,3l2.6,2.6l62.2,62.2C174.5,201.7,179.5,213.9,179.5,226.5z"/>
		</g>
	</g>
</g>
<linearGradient id="SVGID_5_" gradientUnits="userSpaceOnUse" x1="231.7861" y1="272.9084" x2="284.1743" y2="140.1919">
	<stop  offset="0" style="stop-color:#ED1C24"/>
	<stop  offset="1" style="stop-color:#FFE308"/>
</linearGradient>
<circle class="st4" cx="249.9" cy="226.9" r="37.5"/>
</svg>
