<svg width="35" height="36" viewBox="0 0 35 36" fill="none" xmlns="http://www.w3.org/2000/svg">
<g clip-path="url(#clip0_167_75)">
<ellipse cx="17.5" cy="18" rx="17.5" ry="18" fill="#E22E2E"/>
<path d="M16.206 29.3C15.786 29.3 15.326 29.27 14.826 29.21C14.326 29.17 13.876 29.1 13.476 29V19.82L10.566 20.81V18.2L13.476 17.21V15.35L10.566 16.34V13.73L13.476 12.74V7.58H17.856V11.24L22.536 9.62V12.23L17.856 13.85V15.71L22.536 14.09V16.67L17.856 18.29V25.64C19.116 25.42 20.096 25 20.796 24.38C21.516 23.76 22.016 22.95 22.296 21.95C22.596 20.95 22.746 19.8 22.746 18.5H26.856C26.856 19.88 26.676 21.22 26.316 22.52C25.956 23.8 25.366 24.95 24.546 25.97C23.746 26.99 22.656 27.8 21.276 28.4C19.916 29 18.226 29.3 16.206 29.3Z" fill="white"/>
</g>
<defs>
<clipPath id="clip0_167_75">
<rect width="35" height="36" fill="white"/>
</clipPath>
</defs>
</svg>
