<?xml version="1.0" encoding="utf-8"?>
<!-- Generator: Adobe Illustrator 21.0.0, SVG Export Plug-In . SVG Version: 6.00 Build 0)  -->
<svg version="1.1" id="Layer_1" xmlns="http://www.w3.org/2000/svg" xmlns:xlink="http://www.w3.org/1999/xlink" x="0px" y="0px"
	 viewBox="0 0 7.7 15.8" style="enable-background:new 0 0 7.7 15.8;" xml:space="preserve">
<style type="text/css">
	.st0{clip-path:url(#SVGID_4_);}
	.st1{clip-path:url(#SVGID_5_);}
</style>
<g>
	<g>
		<defs>
			<path id="SVGID_1_" d="M3.8,15.8c-0.6,0-1-0.4-1-1v-12c0-0.6,0.4-1,1-1c0.6,0,1,0.4,1,1v12C4.8,15.4,4.4,15.8,3.8,15.8L3.8,15.8z
				"/>
		</defs>
		<defs>
			<path id="SVGID_2_" d="M4.5,1.7L1.7,4.5c-0.4,0.4-1,0.4-1.4,0c-0.4-0.4-0.4-1,0-1.4l2.8-2.8c0.4-0.4,1-0.4,1.4,0
				C4.9,0.7,4.9,1.3,4.5,1.7L4.5,1.7z"/>
		</defs>
		<defs>
			<path id="SVGID_3_" d="M7.4,4.5C7,4.9,6.3,4.9,6,4.5L3.1,1.7c-0.4-0.4-0.4-1,0-1.4c0.4-0.4,1-0.4,1.4,0l2.8,2.8
				C7.8,3.5,7.8,4.1,7.4,4.5L7.4,4.5z"/>
		</defs>
		<use xlink:href="#SVGID_1_"  style="overflow:visible;fill:#35A462;"/>
		<use xlink:href="#SVGID_2_"  style="overflow:visible;fill:#35A462;"/>
		<use xlink:href="#SVGID_3_"  style="overflow:visible;fill:#35A462;"/>
		<clipPath id="SVGID_4_">
			<use xlink:href="#SVGID_1_"  style="overflow:visible;"/>
		</clipPath>
		<clipPath id="SVGID_5_" class="st0">
			<use xlink:href="#SVGID_2_"  style="overflow:visible;"/>
		</clipPath>
		<clipPath id="SVGID_6_" class="st1">
			<use xlink:href="#SVGID_3_"  style="overflow:visible;"/>
		</clipPath>
	</g>
</g>
</svg>
