<svg width="30" height="34" viewBox="0 0 30 34" fill="none" xmlns="http://www.w3.org/2000/svg">
<path d="M10 15.3334H6.66667V18.6667H10V15.3334ZM16.6667 15.3334H13.3333V18.6667H16.6667V15.3334ZM23.3333 15.3334H20V18.6667H23.3333V15.3334ZM26.6667 3.66671H25V0.333374H21.6667V3.66671H8.33333V0.333374H5V3.66671H3.33333C1.48333 3.66671 0.0166667 5.16671 0.0166667 7.00004L0 30.3334C0 32.1667 1.48333 33.6667 3.33333 33.6667H26.6667C28.5 33.6667 30 32.1667 30 30.3334V7.00004C30 5.16671 28.5 3.66671 26.6667 3.66671ZM26.6667 30.3334H3.33333V12H26.6667V30.3334Z" fill="black"/>
</svg>
