<svg width="60" height="60" viewBox="0 0 60 60" fill="none" xmlns="http://www.w3.org/2000/svg">
<g clip-path="url(#clip0_45_277)">
<path d="M59.9997 30.1837C59.9997 13.5112 46.5672 -0.00378418 29.9997 -0.00378418C13.4247 -3.41795e-05 -0.0078125 13.5112 -0.0078125 30.1875C-0.0078125 45.2512 10.9647 57.7387 25.3047 60.0037V38.91H17.6922V30.1875H25.3122V23.5312C25.3122 15.9675 29.7934 11.79 36.6447 11.79C39.9297 11.79 43.3609 12.3787 43.3609 12.3787V19.8037H39.5772C35.8534 19.8037 34.6909 22.1325 34.6909 24.5212V30.1837H43.0084L41.6809 38.9062H34.6872V60C49.0272 57.735 59.9997 45.2475 59.9997 30.1837Z" fill="white"/>
</g>
<defs>
<clipPath id="clip0_45_277">
<rect width="60" height="60" fill="white"/>
</clipPath>
</defs>
</svg>
