<svg width="60" height="60" viewBox="0 0 60 60" fill="none" xmlns="http://www.w3.org/2000/svg">
<g clip-path="url(#clip0_45_272)">
<path d="M29.9919 19.9957C24.4833 19.9957 19.9879 24.4913 19.9879 30C19.9879 35.5087 24.4833 40.0043 29.9919 40.0043C35.5006 40.0043 39.996 35.5087 39.996 30C39.996 24.4913 35.5006 19.9957 29.9919 19.9957ZM59.9967 30C59.9967 25.8572 60.0342 21.7519 59.8015 17.6166C59.5689 12.8134 58.4732 8.55051 54.9608 5.03813C51.441 1.51826 47.1857 0.430021 42.3826 0.197364C38.2399 -0.0352931 34.1347 0.00223234 29.9994 0.00223234C25.8567 0.00223234 21.7515 -0.0352931 17.6163 0.197364C12.8132 0.430021 8.55035 1.52576 5.03804 5.03813C1.51823 8.55801 0.430013 12.8134 0.19736 17.6166C-0.0352925 21.7594 0.0022323 25.8647 0.0022323 30C0.0022323 34.1353 -0.0352925 38.2481 0.19736 42.3834C0.430013 47.1866 1.52573 51.4495 5.03804 54.9619C8.55785 58.4817 12.8132 59.57 17.6163 59.8026C21.759 60.0353 25.8642 59.9978 29.9994 59.9978C34.1422 59.9978 38.2474 60.0353 42.3826 59.8026C47.1857 59.57 51.4485 58.4742 54.9608 54.9619C58.4807 51.442 59.5689 47.1866 59.8015 42.3834C60.0417 38.2481 59.9967 34.1428 59.9967 30ZM29.9919 45.3929C21.4738 45.3929 14.5993 38.5183 14.5993 30C14.5993 21.4817 21.4738 14.6071 29.9919 14.6071C38.51 14.6071 45.3845 21.4817 45.3845 30C45.3845 38.5183 38.51 45.3929 29.9919 45.3929ZM46.015 17.5716C44.0262 17.5716 42.4201 15.9655 42.4201 13.9767C42.4201 11.9878 44.0262 10.3817 46.015 10.3817C48.0038 10.3817 49.6098 11.9878 49.6098 13.9767C49.6104 14.4489 49.5178 14.9167 49.3374 15.3531C49.1569 15.7895 48.8922 16.1861 48.5582 16.52C48.2243 16.8539 47.8278 17.1187 47.3914 17.2992C46.9549 17.4796 46.4872 17.5722 46.015 17.5716Z" fill="white"/>
</g>
<defs>
<clipPath id="clip0_45_272">
<rect width="60" height="60" fill="white"/>
</clipPath>
</defs>
</svg>
