<svg width="60" height="60" viewBox="0 0 60 60" fill="none" xmlns="http://www.w3.org/2000/svg">
<path d="M35.0094 29.4781L27.9906 26.2031C27.3781 25.9187 26.875 26.2375 26.875 26.9156V33.0844C26.875 33.7625 27.3781 34.0812 27.9906 33.7969L35.0062 30.5219C35.6219 30.2344 35.6219 29.7656 35.0094 29.4781ZM30 0C13.4312 0 0 13.4312 0 30C0 46.5687 13.4312 60 30 60C46.5687 60 60 46.5687 60 30C60 13.4312 46.5687 0 30 0ZM30 42.1875C14.6438 42.1875 14.375 40.8031 14.375 30C14.375 19.1969 14.6438 17.8125 30 17.8125C45.3562 17.8125 45.625 19.1969 45.625 30C45.625 40.8031 45.3562 42.1875 30 42.1875Z" fill="white"/>
</svg>
