<svg width="49" height="50" viewBox="0 0 49 50" fill="none" xmlns="http://www.w3.org/2000/svg">
<g clip-path="url(#clip0_9:368)">
<path d="M24.5 0C38.0113 0 48.9643 11.1929 48.9643 25C48.9643 38.8071 38.0113 50 24.5 50C10.9887 50 0.0357056 38.8071 0.0357056 25C0.0357056 11.1929 10.9887 0 24.5 0Z" fill="#F0B90B"/>
<path d="M18.4524 35.17L14.6472 31.28L30.542 15.0371L34.3472 18.9257L18.4524 35.17Z" fill="#252525"/>
<path d="M24.2847 41.1285L20.4781 37.2399L36.3742 20.9971L40.1795 24.8856L24.2847 41.1285Z" fill="#252525"/>
<path d="M18.6397 23.0571L14.8345 19.1685L24.897 8.88565L28.7036 12.7742L18.6397 23.0571Z" fill="#252525"/>
<path d="M12.6201 29.2086L8.81488 25.32L12.6201 21.4314L16.4254 25.32L12.6201 29.2086Z" fill="#252525"/>
</g>
<defs>
<clipPath id="clip0_9:368">
<rect width="48.9286" height="50" fill="white" transform="translate(0.0357056)"/>
</clipPath>
</defs>
</svg>
