<svg width="50" height="50" viewBox="0 0 50 50" fill="none" xmlns="http://www.w3.org/2000/svg">
<path d="M25 50C38.8071 50 50 38.8071 50 25C50 11.1929 38.8071 0 25 0C11.1929 0 0 11.1929 0 25C0 38.8071 11.1929 50 25 50Z" fill="#627EEA"/>
<path d="M25.778 6.25V20.11L37.4921 25.344L25.778 6.25Z" fill="white" fill-opacity="0.602"/>
<path d="M25.778 6.25L14.062 25.344L25.778 20.11V6.25Z" fill="white"/>
<path d="M25.778 34.3259V43.7439L37.5 27.5259L25.778 34.3259Z" fill="white" fill-opacity="0.602"/>
<path d="M25.778 43.7419V34.3239L14.062 27.5259L25.778 43.7419Z" fill="white"/>
<path d="M25.778 32.146L37.4921 25.344L25.778 20.112V32.146Z" fill="white" fill-opacity="0.2"/>
<path d="M14.062 25.344L25.778 32.1459V20.114L14.062 25.344Z" fill="white" fill-opacity="0.602"/>
</svg>
