<svg width="210" height="50" viewBox="0 0 210 50" fill="none" xmlns="http://www.w3.org/2000/svg">
<rect width="210" height="50" rx="5" fill="#5876C5"/>
<path d="M84.0757 30V24.528H90.3217V23.196H84.0757V19.326H90.4477V17.994H82.5817V30H84.0757ZM99.2102 30V24.024C99.2102 21.918 97.6802 21.09 95.8442 21.09C94.4222 21.09 93.3062 21.558 92.3702 22.53L93.0002 23.466C93.7742 22.638 94.6202 22.26 95.6642 22.26C96.9242 22.26 97.8602 22.926 97.8602 24.096V25.662C97.1582 24.852 96.1682 24.474 94.9802 24.474C93.5042 24.474 91.9382 25.392 91.9382 27.336C91.9382 29.226 93.5042 30.216 94.9802 30.216C96.1502 30.216 97.1402 29.802 97.8602 29.01V30H99.2102ZM95.4662 29.244C94.2062 29.244 93.3242 28.452 93.3242 27.354C93.3242 26.238 94.2062 25.446 95.4662 25.446C96.4202 25.446 97.3382 25.806 97.8602 26.526V28.164C97.3382 28.884 96.4202 29.244 95.4662 29.244ZM105.75 30.216C107.334 30.216 108.27 29.568 108.936 28.704L108.036 27.876C107.46 28.65 106.722 29.01 105.822 29.01C103.968 29.01 102.816 27.57 102.816 25.644C102.816 23.718 103.968 22.296 105.822 22.296C106.722 22.296 107.46 22.638 108.036 23.43L108.936 22.602C108.27 21.738 107.334 21.09 105.75 21.09C103.158 21.09 101.412 23.07 101.412 25.644C101.412 28.236 103.158 30.216 105.75 30.216ZM114.753 30.216C116.175 30.216 117.345 29.748 118.209 28.884L117.561 28.002C116.877 28.704 115.869 29.1 114.879 29.1C113.007 29.1 111.855 27.732 111.747 26.094H118.785V25.752C118.785 23.142 117.237 21.09 114.609 21.09C112.125 21.09 110.325 23.124 110.325 25.644C110.325 28.362 112.179 30.216 114.753 30.216ZM117.453 25.104H111.747C111.819 23.772 112.737 22.206 114.591 22.206C116.571 22.206 117.435 23.808 117.453 25.104ZM122.321 27.642V23.7C122.789 22.944 123.851 22.296 124.913 22.296C126.677 22.296 127.721 23.736 127.721 25.662C127.721 27.588 126.677 29.01 124.913 29.01C123.851 29.01 122.789 28.398 122.321 27.642ZM122.321 30V28.704C122.969 29.586 124.031 30.216 125.255 30.216C127.523 30.216 129.125 28.488 129.125 25.662C129.125 22.89 127.523 21.09 125.255 21.09C124.067 21.09 123.023 21.666 122.321 22.62V17.994H120.971V30H122.321ZM135.123 30.216C137.769 30.216 139.425 28.164 139.425 25.644C139.425 23.124 137.769 21.09 135.123 21.09C132.477 21.09 130.821 23.124 130.821 25.644C130.821 28.164 132.477 30.216 135.123 30.216ZM135.123 29.01C133.269 29.01 132.225 27.426 132.225 25.644C132.225 23.88 133.269 22.296 135.123 22.296C136.977 22.296 138.003 23.88 138.003 25.644C138.003 27.426 136.977 29.01 135.123 29.01ZM145.423 30.216C148.069 30.216 149.725 28.164 149.725 25.644C149.725 23.124 148.069 21.09 145.423 21.09C142.777 21.09 141.121 23.124 141.121 25.644C141.121 28.164 142.777 30.216 145.423 30.216ZM145.423 29.01C143.569 29.01 142.525 27.426 142.525 25.644C142.525 23.88 143.569 22.296 145.423 22.296C147.277 22.296 148.303 23.88 148.303 25.644C148.303 27.426 147.277 29.01 145.423 29.01ZM159.576 30L155.706 25.248L159.558 21.306H157.848L153.276 25.932V17.994H151.926V30H153.276V27.516L154.716 26.094L157.848 30H159.576Z" fill="white"/>
<path d="M71.5909 24C71.5909 18.48 67.3145 14 62.0455 14C56.7764 14 52.5 18.48 52.5 24C52.5 28.84 55.7836 32.87 60.1364 33.8V27H58.2273V24H60.1364V21.5C60.1364 19.57 61.635 18 63.4773 18H65.8636V21H63.9545C63.4295 21 63 21.45 63 22V24H65.8636V27H63V33.95C67.8205 33.45 71.5909 29.19 71.5909 24Z" fill="white"/>
</svg>
