<svg width="23" height="24" viewBox="0 0 23 24" fill="none" xmlns="http://www.w3.org/2000/svg">
<path d="M18.2083 2H14.2025C13.8 0.84 12.7458 0 11.5 0C10.2542 0 9.2 0.84 8.7975 2H4.79167C3.7375 2 2.875 2.9 2.875 4V20C2.875 21.1 3.7375 22 4.79167 22H18.2083C19.2625 22 20.125 21.1 20.125 20V4C20.125 2.9 19.2625 2 18.2083 2ZM11.5 2C12.0271 2 12.4583 2.45 12.4583 3C12.4583 3.55 12.0271 4 11.5 4C10.9729 4 10.5417 3.55 10.5417 3C10.5417 2.45 10.9729 2 11.5 2ZM18.2083 20H4.79167V4H6.70833V7H16.2917V4H18.2083V20Z" fill="#EBF3FA"/>
</svg>
