<svg xmlns="http://www.w3.org/2000/svg" id="Layer_1" data-name="Layer 1" viewBox="0 0 512 512">
  <path
    d="M458.57,161.14,282.66,8.1a14.07,14.07,0,0,0-8-2.87H68.78a30.2,30.2,0,0,0-8.93,1.65L52,13.72a20.13,20.13,0,0,0-1.92,7.76v469A20.28,20.28,0,0,0,52,498.3l7.83,6.81a29.89,29.89,0,0,0,8.93,1.67H443.2a29.66,29.66,0,0,0,8.93-1.67L460,498.3a20.7,20.7,0,0,0,1.89-7.78V168.1A10.68,10.68,0,0,0,458.57,161.14ZM450,492.91l-4.08,3.56a18.38,18.38,0,0,1-2.74.39H68.78a18.48,18.48,0,0,1-2.73-.39L62,492.91a11.13,11.13,0,0,1-.43-2.39v-469A11.07,11.07,0,0,1,62,19.1l4.09-3.57a16,16,0,0,1,2.73-.39h201V172.22H450.46v318.3A10.47,10.47,0,0,1,450,492.91Z"
    fill="#48B58B"/>
  <path
    d="M443.2,512H68.78a36,36,0,0,1-11.37-2.13,6,6,0,0,1-1.8-1.06L47.78,502a5.31,5.31,0,0,1-1.25-1.56,24.87,24.87,0,0,1-2.42-9.92v-469a24.4,24.4,0,0,1,2.44-9.9A4.83,4.83,0,0,1,47.78,10l7.83-6.84a5.85,5.85,0,0,1,1.84-1.09A36.56,36.56,0,0,1,68.78,0h205.9A20.65,20.65,0,0,1,286.9,4.4L462.82,157.45a15.53,15.53,0,0,1,5.06,10.66V490.52a25.34,25.34,0,0,1-2.41,9.89,5.26,5.26,0,0,1-1.26,1.59l-7.85,6.81a5.79,5.79,0,0,1-1.78,1.06A36.09,36.09,0,0,1,443.2,512ZM67.54,490.36,69,491.64H443l1.46-1.26V177.44H269.82a6.45,6.45,0,0,1-4.24-1.53,4.91,4.91,0,0,1-1.77-3.69l0-151.84H69l-1.46,1.28ZM275.83,167H450.46a6.13,6.13,0,0,1,5.41,3V168.1a6,6,0,0,0-1.57-3.28l-175.89-153a8.13,8.13,0,0,0-3.74-1.34h-2.23a6,6,0,0,1,1.63,1,4.88,4.88,0,0,1,1.75,3.69Z"
    fill="#48B58B"/>
  <path
    d="M251.91,325.73h-10.8v54.1h10.94q14.37,0,22.56-7.49t8.14-20.44c0-8.11-2.68-14.52-8.09-19.2S261.68,325.73,251.91,325.73Z"
    fill="#48B58B"/>
  <path d="M167.36,324.83h-8.67v26.6h8.67Q185,351.44,185,338,185,324.82,167.36,324.83Z" fill="#48B58B"/>
  <path
    d="M448,275.9H64c-5.91,0-10.73,4.16-10.73,9.31V420.29c0,5.16,4.81,9.32,10.73,9.32H448c5.93,0,10.74-4.17,10.74-9.32V285.21C458.71,280.05,453.9,275.9,448,275.9ZM197.65,358.08Q187,366,169.23,366H158.69v29.42h-22.1V310.07h34.62q37.07,0,37.07,27.2Q208.28,350.13,197.65,358.08Zm94.1,25.45q-14.26,11.89-38,11.91H219V310.07h34.74q52.26,0,52.27,41.6Q306,371.63,291.76,383.53Zm83.63-57.8H340.77v20.95h31.81v15.59H340.77v33.17h-22.1V310.07h56.71Z"
    fill="#48B58B"/>
</svg>
