<svg width="24" height="24" viewBox="0 0 24 24" fill="none" xmlns="http://www.w3.org/2000/svg">
<path d="M6.5 3C5.57174 3 4.6815 3.36875 4.02513 4.02513C3.36875 4.6815 3 5.57174 3 6.5V8.364C3 8.62922 3.10536 8.88357 3.29289 9.07111C3.48043 9.25864 3.73478 9.364 4 9.364C4.26522 9.364 4.51957 9.25864 4.70711 9.07111C4.89464 8.88357 5 8.62922 5 8.364V6.5C5 6.10218 5.15804 5.72064 5.43934 5.43934C5.72064 5.15804 6.10218 5 6.5 5H8.364C8.62922 5 8.88357 4.89464 9.07111 4.70711C9.25864 4.51957 9.364 4.26522 9.364 4C9.364 3.73478 9.25864 3.48043 9.07111 3.29289C8.88357 3.10536 8.62922 3 8.364 3H6.5ZM15.636 3C15.3708 3 15.1164 3.10536 14.9289 3.29289C14.7414 3.48043 14.636 3.73478 14.636 4C14.636 4.26522 14.7414 4.51957 14.9289 4.70711C15.1164 4.89464 15.3708 5 15.636 5H17.5C17.8978 5 18.2794 5.15804 18.5607 5.43934C18.842 5.72064 19 6.10218 19 6.5V8.364C19 8.62922 19.1054 8.88357 19.2929 9.07111C19.4804 9.25864 19.7348 9.364 20 9.364C20.2652 9.364 20.5196 9.25864 20.7071 9.07111C20.8946 8.88357 21 8.62922 21 8.364V6.5C21 5.57174 20.6313 4.6815 19.9749 4.02513C19.3185 3.36875 18.4283 3 17.5 3H15.636ZM5 15.636C5 15.3708 4.89464 15.1164 4.70711 14.9289C4.51957 14.7414 4.26522 14.636 4 14.636C3.73478 14.636 3.48043 14.7414 3.29289 14.9289C3.10536 15.1164 3 15.3708 3 15.636V17.5C3 18.4283 3.36875 19.3185 4.02513 19.9749C4.6815 20.6313 5.57174 21 6.5 21H8.364C8.62922 21 8.88357 20.8946 9.07111 20.7071C9.25864 20.5196 9.364 20.2652 9.364 20C9.364 19.7348 9.25864 19.4804 9.07111 19.2929C8.88357 19.1054 8.62922 19 8.364 19H6.5C6.10218 19 5.72064 18.842 5.43934 18.5607C5.15804 18.2794 5 17.8978 5 17.5V15.636ZM21 15.636C21 15.3708 20.8946 15.1164 20.7071 14.9289C20.5196 14.7414 20.2652 14.636 20 14.636C19.7348 14.636 19.4804 14.7414 19.2929 14.9289C19.1054 15.1164 19 15.3708 19 15.636V17.5C19 17.8978 18.842 18.2794 18.5607 18.5607C18.2794 18.842 17.8978 19 17.5 19H15.636C15.3708 19 15.1164 19.1054 14.9289 19.2929C14.7414 19.4804 14.636 19.7348 14.636 20C14.636 20.2652 14.7414 20.5196 14.9289 20.7071C15.1164 20.8946 15.3708 21 15.636 21H17.5C18.4283 21 19.3185 20.6313 19.9749 19.9749C20.6313 19.3185 21 18.4283 21 17.5V15.636ZM8 11C7.73478 11 7.48043 11.1054 7.29289 11.2929C7.10536 11.4804 7 11.7348 7 12C7 12.2652 7.10536 12.5196 7.29289 12.7071C7.48043 12.8946 7.73478 13 8 13H16C16.2652 13 16.5196 12.8946 16.7071 12.7071C16.8946 12.5196 17 12.2652 17 12C17 11.7348 16.8946 11.4804 16.7071 11.2929C16.5196 11.1054 16.2652 11 16 11H8Z" fill="white"/>
</svg>
