<svg width="557" height="409" viewBox="0 0 557 409" fill="none" xmlns="http://www.w3.org/2000/svg">
<rect width="409" height="409" rx="45" fill="#336853"/>
<path d="M177.527 251.549C173.39 251.549 167.418 254.835 167.418 259.132V350.121C167.418 350.121 109.286 332.429 106.758 284.407V271.769V249.022" fill="url(#paint0_linear_8:596)"/>
<path d="M170.647 92.3186H178.019C226.918 92.3186 283.681 105.577 283.681 157.311C283.681 209.045 244.119 250.899 195.22 250.899H187.848H173.104C172.613 250.899 172.367 250.899 171.876 250.899C171.139 250.899 170.401 250.899 169.418 250.899C141.16 250.899 118.307 275.077 118.307 304.973C118.307 310.172 118.167 312.584 119.396 317.264C111.778 308.425 106.758 295.758 106.758 284.84V250.899V227.502C106.758 205.925 123.222 188.507 143.617 188.507H158.361H165.733H180.476H193.991C209.472 188.507 223.233 176.548 224.707 160.43C226.181 141.713 212.421 126.115 195.22 126.115H180.476" fill="url(#paint1_linear_8:596)"/>
<path d="M271.968 203.527C271.48 161.747 238.779 127.816 198.27 127.816C198.026 127.816 197.782 127.816 197.782 127.816H195.83H181.188H129.941C97.4851 127.816 71.3737 100.722 71.3737 67.0439H188.509H195.83C244.392 67.0439 283.681 107.812 283.681 158.202C283.681 174.661 279.533 190.36 271.968 203.527Z" fill="#408cae"/>
<g filter="url(#filter0_d_8:596)">
<rect x="345" y="296" width="206" height="46" rx="6" fill="#48B58B"/>
</g>
<path d="M385.165 324V311.994H382.609V319.536L377.047 311.994H374.419V324H376.975V316.17L382.699 324H385.165ZM390.628 324V319.032H396.442V316.782H390.628V314.244H396.568V311.994H388.072V324H390.628ZM404.241 324V314.244H407.733V311.994H398.157V314.244H401.667V324H404.241ZM428.071 324V311.994H424.471L421.555 319.248L418.639 311.994H415.057V324H417.613V315.594L420.997 324H422.113L425.497 315.594V324H428.071ZM442.192 324L437.566 311.994H434.362L429.718 324H432.634L433.39 321.966H438.538L439.276 324H442.192ZM437.836 319.716H434.092L435.964 314.55L437.836 319.716ZM446.072 324V318.258C446.45 317.7 447.458 317.268 448.214 317.268C448.466 317.268 448.682 317.286 448.844 317.322V315.09C447.764 315.09 446.684 315.72 446.072 316.494V315.306H443.786V324H446.072ZM459.309 324L455.763 319.248L459.201 315.306H456.393L453.099 319.176V311.994H450.813V324H453.099V321.768L454.143 320.652L456.447 324H459.309ZM464.966 324.216C466.316 324.216 467.684 323.802 468.548 323.01L467.54 321.534C466.982 322.074 465.956 322.398 465.218 322.398C463.742 322.398 462.86 321.48 462.716 320.382H469.178V319.878C469.178 317.034 467.414 315.09 464.822 315.09C462.176 315.09 460.322 317.124 460.322 319.644C460.322 322.434 462.32 324.216 464.966 324.216ZM466.964 318.834H462.68C462.788 317.97 463.4 316.908 464.822 316.908C466.334 316.908 466.91 318.006 466.964 318.834ZM474.285 324.216C475.239 324.216 475.851 323.964 476.193 323.658L475.707 321.93C475.581 322.056 475.257 322.182 474.915 322.182C474.411 322.182 474.123 321.768 474.123 321.228V317.304H475.887V315.306H474.123V312.93H471.819V315.306H470.379V317.304H471.819V321.84C471.819 323.388 472.683 324.216 474.285 324.216ZM482.959 324.216C485.191 324.216 486.811 322.542 486.811 319.644C486.811 316.746 485.191 315.09 482.959 315.09C481.897 315.09 480.943 315.558 480.277 316.404V315.306H477.991V327.312H480.277V322.884C480.979 323.784 481.933 324.216 482.959 324.216ZM482.239 322.182C481.501 322.182 480.655 321.732 480.277 321.192V318.114C480.655 317.556 481.501 317.124 482.239 317.124C483.553 317.124 484.435 318.15 484.435 319.644C484.435 321.156 483.553 322.182 482.239 322.182ZM491.311 324V311.994H489.025V324H491.311ZM501.624 324V318.384C501.624 315.882 499.806 315.09 497.826 315.09C496.458 315.09 495.09 315.522 494.028 316.458L494.892 317.988C495.63 317.304 496.494 316.962 497.43 316.962C498.582 316.962 499.338 317.538 499.338 318.42V319.59C498.762 318.906 497.736 318.528 496.584 318.528C495.198 318.528 493.56 319.302 493.56 321.336C493.56 323.28 495.198 324.216 496.584 324.216C497.718 324.216 498.744 323.802 499.338 323.1V324H501.624ZM497.502 322.668C496.602 322.668 495.864 322.2 495.864 321.39C495.864 320.544 496.602 320.076 497.502 320.076C498.24 320.076 498.96 320.328 499.338 320.832V321.912C498.96 322.416 498.24 322.668 497.502 322.668ZM508.482 324.216C510.264 324.216 511.344 323.442 511.92 322.632L510.426 321.246C510.012 321.822 509.382 322.182 508.59 322.182C507.204 322.182 506.232 321.156 506.232 319.644C506.232 318.132 507.204 317.124 508.59 317.124C509.382 317.124 510.012 317.448 510.426 318.06L511.92 316.656C511.344 315.864 510.264 315.09 508.482 315.09C505.8 315.09 503.874 316.98 503.874 319.644C503.874 322.326 505.8 324.216 508.482 324.216ZM518.04 324.216C519.39 324.216 520.758 323.802 521.622 323.01L520.614 321.534C520.056 322.074 519.03 322.398 518.292 322.398C516.816 322.398 515.934 321.48 515.79 320.382H522.252V319.878C522.252 317.034 520.488 315.09 517.896 315.09C515.25 315.09 513.396 317.124 513.396 319.644C513.396 322.434 515.394 324.216 518.04 324.216ZM520.038 318.834H515.754C515.862 317.97 516.474 316.908 517.896 316.908C519.408 316.908 519.984 318.006 520.038 318.834Z" fill="white"/>
<g filter="url(#filter1_d_8:596)">
<rect x="345" y="239" width="167" height="46" rx="6" fill="#48B58B"/>
</g>
<path d="M377.451 267V257.244H380.943V254.994H371.367V257.244H374.877V267H377.451ZM384.123 267V261.258C384.501 260.7 385.509 260.268 386.265 260.268C386.517 260.268 386.733 260.286 386.895 260.322V258.09C385.815 258.09 384.735 258.72 384.123 259.494V258.306H381.837V267H384.123ZM396.37 267V261.384C396.37 258.882 394.552 258.09 392.572 258.09C391.204 258.09 389.836 258.522 388.774 259.458L389.638 260.988C390.376 260.304 391.24 259.962 392.176 259.962C393.328 259.962 394.084 260.538 394.084 261.42V262.59C393.508 261.906 392.482 261.528 391.33 261.528C389.944 261.528 388.306 262.302 388.306 264.336C388.306 266.28 389.944 267.216 391.33 267.216C392.464 267.216 393.49 266.802 394.084 266.1V267H396.37ZM392.248 265.668C391.348 265.668 390.61 265.2 390.61 264.39C390.61 263.544 391.348 263.076 392.248 263.076C392.986 263.076 393.706 263.328 394.084 263.832V264.912C393.706 265.416 392.986 265.668 392.248 265.668ZM407.457 267V254.994H405.153V259.422C404.469 258.54 403.497 258.09 402.471 258.09C400.257 258.09 398.619 259.818 398.619 262.662C398.619 265.56 400.275 267.216 402.471 267.216C403.515 267.216 404.469 266.748 405.153 265.884V267H407.457ZM403.173 265.182C401.877 265.182 400.977 264.156 400.977 262.662C400.977 261.15 401.877 260.124 403.173 260.124C403.947 260.124 404.775 260.538 405.153 261.114V264.192C404.775 264.768 403.947 265.182 403.173 265.182ZM411.398 257.37C412.154 257.37 412.766 256.758 412.766 256.002C412.766 255.246 412.154 254.652 411.398 254.652C410.66 254.652 410.03 255.246 410.03 256.002C410.03 256.758 410.66 257.37 411.398 257.37ZM412.55 267V258.306H410.264V267H412.55ZM423.511 267V260.862C423.511 259.17 422.593 258.09 420.685 258.09C419.263 258.09 418.201 258.774 417.643 259.44V258.306H415.357V267H417.643V261.15C418.021 260.628 418.723 260.124 419.623 260.124C420.595 260.124 421.225 260.538 421.225 261.744V267H423.511ZM429.885 270.528C432.027 270.528 434.583 269.718 434.583 266.406V258.306H432.279V259.422C431.577 258.54 430.641 258.09 429.597 258.09C427.401 258.09 425.763 259.674 425.763 262.518C425.763 265.416 427.419 266.946 429.597 266.946C430.659 266.946 431.595 266.442 432.279 265.578V266.46C432.279 268.17 430.983 268.656 429.885 268.656C428.787 268.656 427.869 268.35 427.167 267.576L426.141 269.232C427.239 270.186 428.391 270.528 429.885 270.528ZM430.317 264.912C429.021 264.912 428.121 264.012 428.121 262.518C428.121 261.024 429.021 260.124 430.317 260.124C431.073 260.124 431.901 260.538 432.279 261.114V263.922C431.901 264.48 431.073 264.912 430.317 264.912ZM447.935 267V257.244H451.427V254.994H441.851V257.244H445.361V267H447.935ZM455.826 267.216C458.706 267.216 460.434 265.128 460.434 262.644C460.434 260.178 458.706 258.09 455.826 258.09C452.964 258.09 451.236 260.178 451.236 262.644C451.236 265.128 452.964 267.216 455.826 267.216ZM455.826 265.182C454.404 265.182 453.612 264.012 453.612 262.644C453.612 261.294 454.404 260.124 455.826 260.124C457.248 260.124 458.058 261.294 458.058 262.644C458.058 264.012 457.248 265.182 455.826 265.182ZM466.702 267.216C469.582 267.216 471.31 265.128 471.31 262.644C471.31 260.178 469.582 258.09 466.702 258.09C463.84 258.09 462.112 260.178 462.112 262.644C462.112 265.128 463.84 267.216 466.702 267.216ZM466.702 265.182C465.28 265.182 464.488 264.012 464.488 262.644C464.488 261.294 465.28 260.124 466.702 260.124C468.124 260.124 468.934 261.294 468.934 262.644C468.934 264.012 468.124 265.182 466.702 265.182ZM475.832 267V254.994H473.546V267H475.832ZM481.771 267.216C484.183 267.216 485.533 266.01 485.533 264.426C485.533 260.916 480.385 261.996 480.385 260.7C480.385 260.214 480.925 259.836 481.753 259.836C482.815 259.836 483.805 260.286 484.327 260.844L485.245 259.278C484.381 258.594 483.211 258.09 481.735 258.09C479.449 258.09 478.171 259.368 478.171 260.826C478.171 264.246 483.337 263.076 483.337 264.516C483.337 265.056 482.869 265.452 481.879 265.452C480.799 265.452 479.503 264.858 478.873 264.264L477.883 265.866C478.801 266.712 480.259 267.216 481.771 267.216Z" fill="white"/>
<g filter="url(#filter2_d_8:596)">
<rect x="345" y="183" width="142" height="46" rx="6" fill="#48B58B"/>
</g>
<path d="M384.27 211V208.75H378.33V206.032H384.144V203.782H378.33V201.244H384.27V198.994H375.774V211H384.27ZM394.692 211L391.578 206.536L394.494 202.306H391.938L390.156 204.988L388.356 202.306H385.8L388.698 206.536L385.62 211H388.158L390.156 208.066L392.136 211H394.692ZM399.799 211.216C401.581 211.216 402.661 210.442 403.237 209.632L401.743 208.246C401.329 208.822 400.699 209.182 399.907 209.182C398.521 209.182 397.549 208.156 397.549 206.644C397.549 205.132 398.521 204.124 399.907 204.124C400.699 204.124 401.329 204.448 401.743 205.06L403.237 203.656C402.661 202.864 401.581 202.09 399.799 202.09C397.117 202.09 395.191 203.98 395.191 206.644C395.191 209.326 397.117 211.216 399.799 211.216ZM413.443 211V204.826C413.443 203.134 412.525 202.09 410.617 202.09C409.195 202.09 408.115 202.774 407.557 203.44V198.994H405.271V211H407.557V205.15C407.953 204.628 408.655 204.124 409.537 204.124C410.527 204.124 411.157 204.502 411.157 205.708V211H413.443ZM423.759 211V205.384C423.759 202.882 421.941 202.09 419.961 202.09C418.593 202.09 417.225 202.522 416.163 203.458L417.027 204.988C417.765 204.304 418.629 203.962 419.565 203.962C420.717 203.962 421.473 204.538 421.473 205.42V206.59C420.897 205.906 419.871 205.528 418.719 205.528C417.333 205.528 415.695 206.302 415.695 208.336C415.695 210.28 417.333 211.216 418.719 211.216C419.853 211.216 420.879 210.802 421.473 210.1V211H423.759ZM419.637 209.668C418.737 209.668 417.999 209.2 417.999 208.39C417.999 207.544 418.737 207.076 419.637 207.076C420.375 207.076 421.095 207.328 421.473 207.832V208.912C421.095 209.416 420.375 209.668 419.637 209.668ZM434.72 211V204.862C434.72 203.17 433.802 202.09 431.894 202.09C430.472 202.09 429.41 202.774 428.852 203.44V202.306H426.566V211H428.852V205.15C429.23 204.628 429.932 204.124 430.832 204.124C431.804 204.124 432.434 204.538 432.434 205.744V211H434.72ZM441.094 214.528C443.236 214.528 445.792 213.718 445.792 210.406V202.306H443.488V203.422C442.786 202.54 441.85 202.09 440.806 202.09C438.61 202.09 436.972 203.674 436.972 206.518C436.972 209.416 438.628 210.946 440.806 210.946C441.868 210.946 442.804 210.442 443.488 209.578V210.46C443.488 212.17 442.192 212.656 441.094 212.656C439.996 212.656 439.078 212.35 438.376 211.576L437.35 213.232C438.448 214.186 439.6 214.528 441.094 214.528ZM441.526 208.912C440.23 208.912 439.33 208.012 439.33 206.518C439.33 205.024 440.23 204.124 441.526 204.124C442.282 204.124 443.11 204.538 443.488 205.114V207.922C443.11 208.48 442.282 208.912 441.526 208.912ZM452.685 211.216C454.035 211.216 455.403 210.802 456.267 210.01L455.259 208.534C454.701 209.074 453.675 209.398 452.937 209.398C451.461 209.398 450.579 208.48 450.435 207.382H456.897V206.878C456.897 204.034 455.133 202.09 452.541 202.09C449.895 202.09 448.041 204.124 448.041 206.644C448.041 209.434 450.039 211.216 452.685 211.216ZM454.683 205.834H450.399C450.507 204.97 451.119 203.908 452.541 203.908C454.053 203.908 454.629 205.006 454.683 205.834Z" fill="white"/>
<g filter="url(#filter3_d_8:596)">
<rect x="345" y="71" width="110" height="46" rx="6" fill="#48B58B"/>
</g>
<path d="M380.976 99V89.244H384.468V86.994H374.892V89.244H378.402V99H380.976ZM388.867 99.216C391.747 99.216 393.475 97.128 393.475 94.644C393.475 92.178 391.747 90.09 388.867 90.09C386.005 90.09 384.277 92.178 384.277 94.644C384.277 97.128 386.005 99.216 388.867 99.216ZM388.867 97.182C387.445 97.182 386.653 96.012 386.653 94.644C386.653 93.294 387.445 92.124 388.867 92.124C390.289 92.124 391.099 93.294 391.099 94.644C391.099 96.012 390.289 97.182 388.867 97.182ZM404.207 99L400.661 94.248L404.099 90.306H401.291L397.997 94.176V86.994H395.711V99H397.997V96.768L399.041 95.652L401.345 99H404.207ZM409.864 99.216C411.214 99.216 412.582 98.802 413.446 98.01L412.438 96.534C411.88 97.074 410.854 97.398 410.116 97.398C408.64 97.398 407.758 96.48 407.614 95.382H414.076V94.878C414.076 92.034 412.312 90.09 409.72 90.09C407.074 90.09 405.22 92.124 405.22 94.644C405.22 97.434 407.218 99.216 409.864 99.216ZM411.862 93.834H407.578C407.686 92.97 408.298 91.908 409.72 91.908C411.232 91.908 411.808 93.006 411.862 93.834ZM424.422 99V92.862C424.422 91.17 423.504 90.09 421.596 90.09C420.174 90.09 419.112 90.774 418.554 91.44V90.306H416.268V99H418.554V93.15C418.932 92.628 419.634 92.124 420.534 92.124C421.506 92.124 422.136 92.538 422.136 93.744V99H424.422Z" fill="white"/>
<g filter="url(#filter4_d_8:596)">
<rect x="345" y="127" width="127" height="46" rx="6" fill="#48B58B"/>
</g>
<path d="M394.88 155L398.3 142.994H395.42L393.332 151.67L391.064 142.994H389.066L386.78 151.67L384.674 142.994H381.812L385.25 155H387.968L390.056 146.756L392.162 155H394.88ZM406.776 155V149.384C406.776 146.882 404.958 146.09 402.978 146.09C401.61 146.09 400.242 146.522 399.18 147.458L400.044 148.988C400.782 148.304 401.646 147.962 402.582 147.962C403.734 147.962 404.49 148.538 404.49 149.42V150.59C403.914 149.906 402.888 149.528 401.736 149.528C400.35 149.528 398.712 150.302 398.712 152.336C398.712 154.28 400.35 155.216 401.736 155.216C402.87 155.216 403.896 154.802 404.49 154.1V155H406.776ZM402.654 153.668C401.754 153.668 401.016 153.2 401.016 152.39C401.016 151.544 401.754 151.076 402.654 151.076C403.392 151.076 404.112 151.328 404.49 151.832V152.912C404.112 153.416 403.392 153.668 402.654 153.668ZM411.87 155V142.994H409.584V155H411.87ZM416.962 155V142.994H414.676V155H416.962ZM423.855 155.216C425.205 155.216 426.573 154.802 427.437 154.01L426.429 152.534C425.871 153.074 424.845 153.398 424.107 153.398C422.631 153.398 421.749 152.48 421.605 151.382H428.067V150.878C428.067 148.034 426.303 146.09 423.711 146.09C421.065 146.09 419.211 148.124 419.211 150.644C419.211 153.434 421.209 155.216 423.855 155.216ZM425.853 149.834H421.569C421.677 148.97 422.289 147.908 423.711 147.908C425.223 147.908 425.799 149.006 425.853 149.834ZM433.174 155.216C434.128 155.216 434.74 154.964 435.082 154.658L434.596 152.93C434.47 153.056 434.146 153.182 433.804 153.182C433.3 153.182 433.012 152.768 433.012 152.228V148.304H434.776V146.306H433.012V143.93H430.708V146.306H429.268V148.304H430.708V152.84C430.708 154.388 431.572 155.216 433.174 155.216Z" fill="white"/>
<defs>
<filter id="filter0_d_8:596" x="343" y="294" width="214" height="54" filterUnits="userSpaceOnUse" color-interpolation-filters="sRGB">
<feFlood flood-opacity="0" result="BackgroundImageFix"/>
<feColorMatrix in="SourceAlpha" type="matrix" values="0 0 0 0 0 0 0 0 0 0 0 0 0 0 0 0 0 0 127 0" result="hardAlpha"/>
<feOffset dx="2" dy="2"/>
<feGaussianBlur stdDeviation="2"/>
<feComposite in2="hardAlpha" operator="out"/>
<feColorMatrix type="matrix" values="0 0 0 0 0.102431 0 0 0 0 0.245833 0 0 0 0 0.190563 0 0 0 0.2 0"/>
<feBlend mode="normal" in2="BackgroundImageFix" result="effect1_dropShadow_8:596"/>
<feBlend mode="normal" in="SourceGraphic" in2="effect1_dropShadow_8:596" result="shape"/>
</filter>
<filter id="filter1_d_8:596" x="343" y="237" width="175" height="54" filterUnits="userSpaceOnUse" color-interpolation-filters="sRGB">
<feFlood flood-opacity="0" result="BackgroundImageFix"/>
<feColorMatrix in="SourceAlpha" type="matrix" values="0 0 0 0 0 0 0 0 0 0 0 0 0 0 0 0 0 0 127 0" result="hardAlpha"/>
<feOffset dx="2" dy="2"/>
<feGaussianBlur stdDeviation="2"/>
<feComposite in2="hardAlpha" operator="out"/>
<feColorMatrix type="matrix" values="0 0 0 0 0.102431 0 0 0 0 0.245833 0 0 0 0 0.190563 0 0 0 0.2 0"/>
<feBlend mode="normal" in2="BackgroundImageFix" result="effect1_dropShadow_8:596"/>
<feBlend mode="normal" in="SourceGraphic" in2="effect1_dropShadow_8:596" result="shape"/>
</filter>
<filter id="filter2_d_8:596" x="343" y="181" width="150" height="54" filterUnits="userSpaceOnUse" color-interpolation-filters="sRGB">
<feFlood flood-opacity="0" result="BackgroundImageFix"/>
<feColorMatrix in="SourceAlpha" type="matrix" values="0 0 0 0 0 0 0 0 0 0 0 0 0 0 0 0 0 0 127 0" result="hardAlpha"/>
<feOffset dx="2" dy="2"/>
<feGaussianBlur stdDeviation="2"/>
<feComposite in2="hardAlpha" operator="out"/>
<feColorMatrix type="matrix" values="0 0 0 0 0.102431 0 0 0 0 0.245833 0 0 0 0 0.190563 0 0 0 0.2 0"/>
<feBlend mode="normal" in2="BackgroundImageFix" result="effect1_dropShadow_8:596"/>
<feBlend mode="normal" in="SourceGraphic" in2="effect1_dropShadow_8:596" result="shape"/>
</filter>
<filter id="filter3_d_8:596" x="343" y="69" width="118" height="54" filterUnits="userSpaceOnUse" color-interpolation-filters="sRGB">
<feFlood flood-opacity="0" result="BackgroundImageFix"/>
<feColorMatrix in="SourceAlpha" type="matrix" values="0 0 0 0 0 0 0 0 0 0 0 0 0 0 0 0 0 0 127 0" result="hardAlpha"/>
<feOffset dx="2" dy="2"/>
<feGaussianBlur stdDeviation="2"/>
<feComposite in2="hardAlpha" operator="out"/>
<feColorMatrix type="matrix" values="0 0 0 0 0.102431 0 0 0 0 0.245833 0 0 0 0 0.190563 0 0 0 0.2 0"/>
<feBlend mode="normal" in2="BackgroundImageFix" result="effect1_dropShadow_8:596"/>
<feBlend mode="normal" in="SourceGraphic" in2="effect1_dropShadow_8:596" result="shape"/>
</filter>
<filter id="filter4_d_8:596" x="343" y="125" width="135" height="54" filterUnits="userSpaceOnUse" color-interpolation-filters="sRGB">
<feFlood flood-opacity="0" result="BackgroundImageFix"/>
<feColorMatrix in="SourceAlpha" type="matrix" values="0 0 0 0 0 0 0 0 0 0 0 0 0 0 0 0 0 0 127 0" result="hardAlpha"/>
<feOffset dx="2" dy="2"/>
<feGaussianBlur stdDeviation="2"/>
<feComposite in2="hardAlpha" operator="out"/>
<feColorMatrix type="matrix" values="0 0 0 0 0.102431 0 0 0 0 0.245833 0 0 0 0 0.190563 0 0 0 0.2 0"/>
<feBlend mode="normal" in2="BackgroundImageFix" result="effect1_dropShadow_8:596"/>
<feBlend mode="normal" in="SourceGraphic" in2="effect1_dropShadow_8:596" result="shape"/>
</filter>
<linearGradient id="paint0_linear_8:596" x1="120.694" y1="240.664" x2="180.727" y2="340.792" gradientUnits="userSpaceOnUse">
<stop offset="0.1514" stop-color="#147A52"/>
<stop offset="0.5514" stop-color="#41A07B"/>
<stop offset="1" stop-color="#3D9C77"/>
</linearGradient>
<linearGradient id="paint1_linear_8:596" x1="90.8843" y1="288.376" x2="269.35" y2="119.687" gradientUnits="userSpaceOnUse">
<stop stop-color="#41A07B"/>
<stop offset="0.7216" stop-color="#3D9C77"/>
<stop offset="1" stop-color="#147A52"/>
</linearGradient>
</defs>
</svg>
