<svg width="24" height="24" viewBox="0 0 24 24" fill="none" xmlns="http://www.w3.org/2000/svg">
<path d="M18.65 2.85L19.26 6.71L22.77 8.5L21 12L22.78 15.5L19.24 17.29L18.63 21.15L14.74 20.54L11.97 23.3L9.18997 20.5L5.32997 21.14L4.70997 17.25L1.21997 15.47L2.99997 11.97L1.22997 8.5L4.73997 6.69L5.34997 2.86L9.21997 3.5L12 0.690002L14.77 3.46L18.65 2.85ZM9.49997 7C9.10215 7 8.72061 7.15804 8.43931 7.43934C8.15801 7.72065 7.99997 8.10218 7.99997 8.5C7.99997 8.89783 8.15801 9.27936 8.43931 9.56066C8.72061 9.84197 9.10215 10 9.49997 10C9.89779 10 10.2793 9.84197 10.5606 9.56066C10.8419 9.27936 11 8.89783 11 8.5C11 8.10218 10.8419 7.72065 10.5606 7.43934C10.2793 7.15804 9.89779 7 9.49997 7ZM14.5 14C14.1021 14 13.7206 14.158 13.4393 14.4393C13.158 14.7206 13 15.1022 13 15.5C13 15.8978 13.158 16.2794 13.4393 16.5607C13.7206 16.842 14.1021 17 14.5 17C14.8978 17 15.2793 16.842 15.5606 16.5607C15.8419 16.2794 16 15.8978 16 15.5C16 15.1022 15.8419 14.7206 15.5606 14.4393C15.2793 14.158 14.8978 14 14.5 14ZM8.40997 17L17 8.41L15.59 7L6.99997 15.59L8.40997 17Z" fill="#48B58B"/>
</svg>
