<svg width="24" height="24" viewBox="0 0 24 24" fill="none" xmlns="http://www.w3.org/2000/svg">
<path d="M18.65 2.85L19.26 6.71L22.77 8.5L21 12L22.78 15.5L19.24 17.29L18.63 21.15L14.74 20.54L11.97 23.3L9.19 20.5L5.33 21.14L4.71 17.25L1.22 15.47L3 11.97L1.23 8.5L4.74 6.69L5.35 2.86L9.22 3.5L12 0.690002L14.77 3.46L18.65 2.85ZM9.5 7C9.10218 7 8.72064 7.15804 8.43934 7.43934C8.15804 7.72065 8 8.10218 8 8.5C8 8.89783 8.15804 9.27936 8.43934 9.56066C8.72064 9.84197 9.10218 10 9.5 10C9.89783 10 10.2794 9.84197 10.5607 9.56066C10.842 9.27936 11 8.89783 11 8.5C11 8.10218 10.842 7.72065 10.5607 7.43934C10.2794 7.15804 9.89783 7 9.5 7ZM14.5 14C14.1022 14 13.7206 14.158 13.4393 14.4393C13.158 14.7206 13 15.1022 13 15.5C13 15.8978 13.158 16.2794 13.4393 16.5607C13.7206 16.842 14.1022 17 14.5 17C14.8978 17 15.2794 16.842 15.5607 16.5607C15.842 16.2794 16 15.8978 16 15.5C16 15.1022 15.842 14.7206 15.5607 14.4393C15.2794 14.158 14.8978 14 14.5 14ZM8.41 17L17 8.41L15.59 7L7 15.59L8.41 17Z" fill="#48B58B"/>
</svg>
