<svg width="24" height="24" viewBox="0 0 24 24" fill="none" xmlns="http://www.w3.org/2000/svg">
<path d="M12 2C9.243 2 7 4.243 7 7V10H6C5.46957 10 4.96086 10.2107 4.58579 10.5858C4.21071 10.9609 4 11.4696 4 12V20C4 20.5304 4.21071 21.0391 4.58579 21.4142C4.96086 21.7893 5.46957 22 6 22H18C18.5304 22 19.0391 21.7893 19.4142 21.4142C19.7893 21.0391 20 20.5304 20 20V12C20 11.4696 19.7893 10.9609 19.4142 10.5858C19.0391 10.2107 18.5304 10 18 10H17V7C17 4.243 14.757 2 12 2ZM9 7C9 5.346 10.346 4 12 4C13.654 4 15 5.346 15 7V10H9V7ZM13 16.723V19H11V16.723C10.6504 16.5228 10.3697 16.2213 10.1948 15.8584C10.02 15.4954 9.95928 15.0879 10.0207 14.6898C10.0821 14.2916 10.2627 13.9214 10.5388 13.6279C10.8148 13.3345 11.1733 13.1316 11.567 13.046C11.8594 12.9813 12.1626 12.9832 12.4542 13.0513C12.7459 13.1194 13.0185 13.2521 13.252 13.4397C13.4855 13.6272 13.6739 13.8647 13.8034 14.1348C13.9328 14.4049 14 14.7005 14 15C13.9994 15.3497 13.9067 15.6932 13.7311 15.9956C13.5556 16.2981 13.3034 16.549 13 16.723Z" fill="#48B58B"/>
</svg>
