<svg width="24" height="24" viewBox="0 0 24 24" fill="none" xmlns="http://www.w3.org/2000/svg">
<g clip-path="url(#clip0_9_429)">
<path d="M23.47 11.58L17.05 5.17001C16.8865 5.00552 16.6708 4.903 16.44 4.88001L7.09001 4.00001C6.94354 3.98654 6.7959 4.00554 6.65762 4.05567C6.51934 4.10579 6.39382 4.18581 6.29001 4.29001C6.18581 4.39382 6.10579 4.51934 6.05567 4.65762C6.00554 4.7959 5.98654 4.94354 6.00001 5.09001L6.88001 14.44C6.903 14.6708 7.00552 14.8865 7.17001 15.05L13.58 21.47C13.9238 21.8091 14.3871 21.9995 14.87 22C15.3499 21.999 15.8099 21.8085 16.15 21.47L23.47 14.15C23.8101 13.8088 24.0011 13.3468 24.0011 12.865C24.0011 12.3833 23.8101 11.9212 23.47 11.58ZM13.56 11.58C13.3503 11.79 13.083 11.933 12.792 11.991C12.501 12.0491 12.1993 12.0195 11.9251 11.906C11.6509 11.7925 11.4165 11.6003 11.2516 11.3536C11.0867 11.1068 10.9987 10.8168 10.9987 10.52C10.9987 10.2233 11.0867 9.93317 11.2516 9.68646C11.4165 9.43974 11.6509 9.24749 11.9251 9.13401C12.1993 9.02053 12.501 8.99094 12.792 9.04897C13.083 9.10699 13.3503 9.25004 13.56 9.46001C13.8372 9.73914 13.9928 10.1166 13.9928 10.51C13.9928 10.9034 13.8372 11.2809 13.56 11.56V11.58Z" fill="#48B58B"/>
</g>
<defs>
<clipPath id="clip0_9_429">
<rect width="24" height="24" fill="white"/>
</clipPath>
</defs>
</svg>
