<svg width="24" height="24" viewBox="0 0 24 24" fill="none" xmlns="http://www.w3.org/2000/svg">
<g clip-path="url(#clip0_9_404)">
<path d="M9.33 10.5H11.5C12.6935 10.5 13.8381 10.9741 14.682 11.818C15.5259 12.6619 16 13.8065 16 15H8.999L9 16H17V15C16.9968 13.936 16.6894 12.895 16.114 12H19C19.9453 11.9997 20.8712 12.2674 21.6705 12.772C22.4698 13.2767 23.1097 13.9975 23.516 14.851C21.151 17.972 17.322 20 13 20C10.239 20 7.9 19.41 6 18.375V9.071C7.21661 9.24528 8.36547 9.73829 9.33 10.5ZM5 18C5 18.2652 4.89464 18.5196 4.70711 18.7071C4.51957 18.8946 4.26522 19 4 19H2C1.73478 19 1.48043 18.8946 1.29289 18.7071C1.10536 18.5196 1 18.2652 1 18V9C1 8.73478 1.10536 8.48043 1.29289 8.29289C1.48043 8.10536 1.73478 8 2 8H4C4.26522 8 4.51957 8.10536 4.70711 8.29289C4.89464 8.48043 5 8.73478 5 9V18ZM18 4C18.7956 4 19.5587 4.31607 20.1213 4.87868C20.6839 5.44129 21 6.20435 21 7C21 7.79565 20.6839 8.55871 20.1213 9.12132C19.5587 9.68393 18.7956 10 18 10C17.2044 10 16.4413 9.68393 15.8787 9.12132C15.3161 8.55871 15 7.79565 15 7C15 6.20435 15.3161 5.44129 15.8787 4.87868C16.4413 4.31607 17.2044 4 18 4ZM11 1C11.7956 1 12.5587 1.31607 13.1213 1.87868C13.6839 2.44129 14 3.20435 14 4C14 4.79565 13.6839 5.55871 13.1213 6.12132C12.5587 6.68393 11.7956 7 11 7C10.2044 7 9.44129 6.68393 8.87868 6.12132C8.31607 5.55871 8 4.79565 8 4C8 3.20435 8.31607 2.44129 8.87868 1.87868C9.44129 1.31607 10.2044 1 11 1Z" fill="#48B58B"/>
</g>
<defs>
<clipPath id="clip0_9_404">
<rect width="24" height="24" fill="white"/>
</clipPath>
</defs>
</svg>
