<svg width="208" height="50" viewBox="0 0 208 50" fill="none" xmlns="http://www.w3.org/2000/svg">
<rect width="208" height="50" rx="5" fill="#2BA3D6"/>
<path d="M92.2057 30V19.326H96.0217V17.994H86.9137V19.326H90.7117V30H92.2057ZM99.8031 30.216C101.225 30.216 102.395 29.748 103.259 28.884L102.611 28.002C101.927 28.704 100.919 29.1 99.9291 29.1C98.0571 29.1 96.9051 27.732 96.7971 26.094H103.835V25.752C103.835 23.142 102.287 21.09 99.6591 21.09C97.1751 21.09 95.3751 23.124 95.3751 25.644C95.3751 28.362 97.2291 30.216 99.8031 30.216ZM102.503 25.104H96.7971C96.8691 23.772 97.7871 22.206 99.6411 22.206C101.621 22.206 102.485 23.808 102.503 25.104ZM107.372 30V17.994H106.022V30H107.372ZM113.989 30.216C115.411 30.216 116.581 29.748 117.445 28.884L116.797 28.002C116.113 28.704 115.105 29.1 114.115 29.1C112.243 29.1 111.091 27.732 110.983 26.094H118.021V25.752C118.021 23.142 116.473 21.09 113.845 21.09C111.361 21.09 109.561 23.124 109.561 25.644C109.561 28.362 111.415 30.216 113.989 30.216ZM116.689 25.104H110.983C111.055 23.772 111.973 22.206 113.827 22.206C115.807 22.206 116.671 23.808 116.689 25.104ZM123.699 33.528C125.823 33.528 127.839 32.628 127.839 29.748V21.306H126.489V22.62C125.787 21.666 124.743 21.09 123.573 21.09C121.287 21.09 119.703 22.818 119.703 25.608C119.703 28.416 121.305 30.108 123.573 30.108C124.797 30.108 125.859 29.442 126.489 28.56V29.802C126.489 31.71 125.139 32.412 123.699 32.412C122.457 32.412 121.593 32.088 120.873 31.224L120.189 32.232C121.215 33.24 122.223 33.528 123.699 33.528ZM123.897 28.92C122.151 28.92 121.107 27.516 121.107 25.608C121.107 23.682 122.151 22.296 123.897 22.296C124.977 22.296 126.021 22.944 126.489 23.7V27.498C126.021 28.254 124.977 28.92 123.897 28.92ZM131.893 30V23.844C132.289 23.142 133.423 22.458 134.251 22.458C134.467 22.458 134.629 22.476 134.791 22.512V21.126C133.603 21.126 132.595 21.792 131.893 22.71V21.306H130.543V30H131.893ZM143.271 30V24.024C143.271 21.918 141.741 21.09 139.905 21.09C138.483 21.09 137.367 21.558 136.431 22.53L137.061 23.466C137.835 22.638 138.681 22.26 139.725 22.26C140.985 22.26 141.921 22.926 141.921 24.096V25.662C141.219 24.852 140.229 24.474 139.041 24.474C137.565 24.474 135.999 25.392 135.999 27.336C135.999 29.226 137.565 30.216 139.041 30.216C140.211 30.216 141.201 29.802 141.921 29.01V30H143.271ZM139.527 29.244C138.267 29.244 137.385 28.452 137.385 27.354C137.385 26.238 138.267 25.446 139.527 25.446C140.481 25.446 141.399 25.806 141.921 26.526V28.164C141.399 28.884 140.481 29.244 139.527 29.244ZM157.821 30V23.718C157.821 21.972 156.975 21.09 155.391 21.09C154.131 21.09 152.961 21.918 152.475 22.71C152.223 21.81 151.467 21.09 150.135 21.09C148.857 21.09 147.687 22.008 147.327 22.566V21.306H145.977V30H147.327V23.646C147.795 22.944 148.731 22.296 149.613 22.296C150.747 22.296 151.215 22.998 151.215 24.096V30H152.565V23.628C153.015 22.944 153.969 22.296 154.869 22.296C155.985 22.296 156.471 22.998 156.471 24.096V30H157.821Z" fill="white"/>
<path d="M70.3536 15.2636C70.3536 15.2636 72.4962 14.3799 72.317 16.526C72.2579 17.4097 71.7224 20.5031 71.3055 23.8486L69.8771 33.7594C69.8771 33.7594 69.7579 35.2113 68.6863 35.4639C67.6153 35.7159 66.0082 34.5801 65.7104 34.3276C65.4721 34.138 61.2464 31.2971 59.7584 29.9088C59.3415 29.5296 58.865 28.7725 59.818 27.8887L66.0672 21.5759C66.7814 20.8187 67.4956 19.0512 64.5196 21.1973L56.1862 27.194C56.1862 27.194 55.2338 27.8257 53.4485 27.2576L49.5791 25.9946C49.5791 25.9946 48.1507 25.0479 50.5911 24.1011C56.5436 21.1343 63.865 18.1045 70.3525 15.2636H70.3536Z" fill="white"/>
</svg>
