<svg width="45" height="45" viewBox="0 0 45 45" fill="none" xmlns="http://www.w3.org/2000/svg">
<path d="M22.5 0C34.9254 0 45 10.0746 45 22.5C45 34.9254 34.9254 45 22.5 45C10.0746 45 0 34.929 0 22.5C0 10.071 10.0728 0 22.5 0Z" fill="#53AE94"/>
<path d="M25.2774 19.5013V16.1551H32.931V11.0557H12.0888V16.1551H19.7442V19.4995C13.5234 19.7857 8.84515 21.0169 8.84515 22.4929C8.84515 23.9689 13.5252 25.2019 19.7442 25.4881V36.2089H25.2792V25.4881C31.4892 25.2019 36.1565 23.9707 36.1565 22.4947C36.1565 21.0187 31.4892 19.7893 25.2774 19.5013ZM25.2792 24.5809V24.5791C25.1226 24.5881 24.3198 24.6367 22.5342 24.6367C21.1068 24.6367 20.1006 24.5953 19.7478 24.5773V24.5809C14.2524 24.3379 10.1484 23.3803 10.1484 22.2355C10.1484 21.0907 14.2506 20.1349 19.7478 19.8901V23.6269C20.1078 23.6521 21.1374 23.7133 22.5576 23.7133C24.264 23.7133 25.1226 23.6431 25.281 23.6269V19.8901C30.7673 20.1349 34.8587 21.0925 34.8587 22.2337C34.8587 23.3749 30.7638 24.3325 25.281 24.5773" fill="white"/>
</svg>
