<svg width="209" height="50" viewBox="0 0 209 50" fill="none" xmlns="http://www.w3.org/2000/svg">
<rect width="209" height="50" rx="5" fill="#3FABF0"/>
<path d="M98.3353 30V19.326H102.151V17.994H93.0433V19.326H96.8413V30H98.3353ZM111.955 30L114.727 21.306H113.323L111.199 28.236L108.913 21.306H107.761L105.475 28.236L103.351 21.306H101.947L104.719 30H106.069L108.337 23.016L110.605 30H111.955ZM116.966 20.064C117.47 20.064 117.884 19.668 117.884 19.164C117.884 18.66 117.47 18.246 116.966 18.246C116.48 18.246 116.066 18.66 116.066 19.164C116.066 19.668 116.48 20.064 116.966 20.064ZM117.65 30V21.306H116.3V30H117.65ZM122.539 30.216C123.331 30.216 123.817 29.982 124.159 29.658L123.763 28.65C123.583 28.848 123.223 29.01 122.845 29.01C122.251 29.01 121.963 28.542 121.963 27.894V22.494H123.727V21.306H121.963V18.93H120.613V21.306H119.173V22.494H120.613V28.182C120.613 29.478 121.261 30.216 122.539 30.216ZM127.83 30.216C128.622 30.216 129.108 29.982 129.45 29.658L129.054 28.65C128.874 28.848 128.514 29.01 128.136 29.01C127.542 29.01 127.254 28.542 127.254 27.894V22.494H129.018V21.306H127.254V18.93H125.904V21.306H124.464V22.494H125.904V28.182C125.904 29.478 126.552 30.216 127.83 30.216ZM134.849 30.216C136.271 30.216 137.441 29.748 138.305 28.884L137.657 28.002C136.973 28.704 135.965 29.1 134.975 29.1C133.103 29.1 131.951 27.732 131.843 26.094H138.881V25.752C138.881 23.142 137.333 21.09 134.705 21.09C132.221 21.09 130.421 23.124 130.421 25.644C130.421 28.362 132.275 30.216 134.849 30.216ZM137.549 25.104H131.843C131.915 23.772 132.833 22.206 134.687 22.206C136.667 22.206 137.531 23.808 137.549 25.104ZM142.417 30V23.844C142.813 23.142 143.947 22.458 144.775 22.458C144.991 22.458 145.153 22.476 145.315 22.512V21.126C144.127 21.126 143.119 21.792 142.417 22.71V21.306H141.067V30H142.417Z" fill="white"/>
<path d="M83.706 17.937C82.871 18.307 81.974 18.557 81.031 18.67C82.004 18.0877 82.7319 17.1714 83.079 16.092C82.1648 16.6349 81.1643 17.0172 80.121 17.222C79.4194 16.4728 78.4901 15.9763 77.4773 15.8094C76.4646 15.6426 75.4251 15.8147 74.5202 16.2992C73.6154 16.7837 72.8958 17.5533 72.4732 18.4887C72.0505 19.424 71.9485 20.4727 72.183 21.472C70.3307 21.379 68.5186 20.8975 66.8644 20.0589C65.2102 19.2202 63.7508 18.0431 62.581 16.604C62.181 17.294 61.951 18.094 61.951 18.946C61.9506 19.713 62.1394 20.4682 62.5009 21.1447C62.8623 21.8212 63.3852 22.398 64.023 22.824C63.2833 22.8004 62.5599 22.6005 61.913 22.241V22.301C61.9129 23.3767 62.285 24.4193 62.9662 25.252C63.6473 26.0846 64.5956 26.6559 65.65 26.869C64.9638 27.0547 64.2443 27.082 63.546 26.949C63.8435 27.8746 64.423 28.684 65.2034 29.2639C65.9837 29.8438 66.9259 30.1651 67.898 30.183C66.2478 31.4784 64.2099 32.181 62.112 32.178C61.7404 32.1781 61.3691 32.1564 61 32.113C63.1295 33.4821 65.6083 34.2088 68.14 34.206C76.71 34.206 81.395 27.108 81.395 20.952C81.395 20.752 81.39 20.55 81.381 20.35C82.2923 19.6909 83.0789 18.8749 83.704 17.94L83.706 17.937Z" fill="white"/>
</svg>
