<?xml version="1.0" encoding="utf-8"?>
<!-- Generator: Adobe Illustrator 21.0.2, SVG Export Plug-In . SVG Version: 6.00 Build 0)  -->
<svg version="1.1" id="Ñëîé_1" xmlns="http://www.w3.org/2000/svg" xmlns:xlink="http://www.w3.org/1999/xlink" x="0px" y="0px"
	 viewBox="0 0 500 500" style="enable-background:new 0 0 500 500;" xml:space="preserve">
<style type="text/css">
	.st0{fill:#6295BF;}
	.st1{fill:#D78C74;}
	.st2{opacity:0.12;fill:#FFFFFF;}
	.st3{fill:#3D4041;}
	.st4{fill:#DFE5EA;}
	.st5{fill:#73AAC9;}
	.st6{opacity:8.000000e-02;fill:#002A3D;}
	.st7{fill:#568DB2;}
	.st8{fill:#A5C5D3;}
	.st9{fill:#B0B5C1;}
	.st10{fill:#381911;}
	.st11{fill:#E5A185;}
	.st12{opacity:0.38;}
	.st13{fill:#E5A084;}
	.st14{fill:#E59F83;}
	.st15{fill:#E49E83;}
	.st16{fill:#E49D82;}
	.st17{fill:#E49C81;}
	.st18{fill:#E49B80;}
	.st19{fill:#E49A80;}
	.st20{fill:#E3997F;}
	.st21{fill:#E3987E;}
	.st22{fill:#E3977D;}
	.st23{fill:#E3967C;}
	.st24{fill:#E2957C;}
	.st25{fill:#E2947B;}
	.st26{fill:#E2937A;}
	.st27{fill:#E29279;}
	.st28{fill:#E29179;}
	.st29{fill:#E19078;}
	.st30{fill:#E18F77;}
	.st31{fill:#E18E76;}
	.st32{fill:#E18D75;}
	.st33{fill:#E18C75;}
	.st34{fill:#E08B74;}
	.st35{fill:#E08A73;}
	.st36{fill:#E08972;}
	.st37{fill:#E08872;}
	.st38{fill:#DF8771;}
	.st39{fill:#DF8670;}
	.st40{fill:#DF856F;}
	.st41{fill:#DF846F;}
	.st42{fill:#DF836E;}
	.st43{fill:#DE826D;}
	.st44{fill:#DE816C;}
	.st45{fill:#DE806B;}
	.st46{fill:#DE7F6B;}
	.st47{fill:#DE7E6A;}
	.st48{fill:#DD7D69;}
	.st49{fill:#DD7C68;}
	.st50{fill:#DD7B68;}
	.st51{fill:#DD7A67;}
	.st52{fill:#DD7A66;}
	.st53{fill:#DC7965;}
	.st54{fill:#DC7864;}
	.st55{fill:#DC7764;}
	.st56{fill:#DC7663;}
	.st57{fill:#DB7562;}
	.st58{fill:#DB7461;}
	.st59{fill:#DB7361;}
	.st60{fill:#DB7260;}
	.st61{fill:#DB715F;}
	.st62{fill:#DA705E;}
	.st63{fill:#DA6F5D;}
	.st64{fill:#DA6E5D;}
	.st65{fill:#DA6D5C;}
	.st66{fill:#DA6C5B;}
	.st67{fill:#D96B5A;}
	.st68{fill:#D96A5A;}
	.st69{fill:#D96959;}
	.st70{fill:#D96858;}
	.st71{fill:#D86757;}
	.st72{fill:#D86657;}
	.st73{fill:#D86556;}
	.st74{fill:#D86455;}
	.st75{fill:#D86354;}
	.st76{fill:#D76253;}
	.st77{fill:#D76153;}
	.st78{fill:#D76052;}
	.st79{fill:#D75F51;}
	.st80{fill:#D75E50;}
	.st81{fill:#D65D50;}
	.st82{fill:#D65C4F;}
	.st83{fill:#D65B4E;}
	.st84{fill:#D65A4D;}
	.st85{fill:#D5594C;}
	.st86{fill:#D5584C;}
	.st87{fill:#D5574B;}
	.st88{fill:#D5564A;}
	.st89{fill:#D55549;}
	.st90{fill:#D45449;}
	.st91{fill:#D45348;}
	.st92{fill:#D45247;}
	.st93{opacity:0.72;fill:#D78C74;}
	.st94{fill:#CE826E;}
	.st95{fill:#422E26;}
	.st96{fill:#6C332E;}
	.st97{fill:#4F372D;}
	.st98{opacity:0.2;fill:#FFFFFF;}
	.st99{opacity:0.11;fill:#E5912F;}
	.st100{opacity:0.19;}
	.st101{fill:#787B9B;}
	.st102{fill:#D6D6D6;}
	.st103{fill:#A8A8A8;}
	.st104{fill:#E8E8E8;}
	.st105{fill:#8185A5;}
	.st106{fill:#E3E4E5;}
	.st107{fill:#BCBCBC;}
	.st108{fill:#F4F4F4;}
	.st109{fill:#2B3033;}
	.st110{fill:#C6CACC;}
	.st111{fill:#49535E;}
	.st112{fill:#7B859B;}
	.st113{fill:#DCDEE2;}
	.st114{fill:#363C42;}
	.st115{fill:#525B66;}
	.st116{fill:#959CAF;}
	.st117{opacity:8.000000e-02;}
	.st118{fill:#B6C5CC;}
	.st119{opacity:0.44;fill:#D78C74;}
	.st120{opacity:0.17;fill:#D78C74;}
	.st121{opacity:0.77;fill:#D78C74;}
	.st122{opacity:0.11;fill:#FFFFFF;}
	.st123{opacity:7.000000e-02;fill:#FFFFFF;}
	.st124{opacity:6.000000e-02;fill:#FFFFFF;}
	.st125{opacity:3.000000e-02;fill:#FFFFFF;}
</style>
<path id="XMLID_557_" class="st0" d="M325,206c10.8,12.7,29.8,70.2,30.7,73.2c-0.8-0.3-1.6-0.5-2.5-0.5c-10.2,0.2-16.4,7-18.4,16.6
	c-1.3,6.4-0.1,12.4,3.3,17.1c-11.7-5.4-30.7-43.8-30.7-43.8l-11.8-82.8C295.6,185.9,312.5,191.3,325,206z"/>
<path id="XMLID_566_" class="st0" d="M178.1,207.4c-11,12.5-29.4,70.8-30.3,73.8c0.8-0.3,1.6-0.5,2.5-0.5c10.2,0.2,16.4,7,18.4,16.6
	c1.3,6.4,0.1,12.4-3.3,17.1c11.7-5.4,29.7-48.6,29.7-48.6l13.3-78.2C208.5,187.5,191,192.7,178.1,207.4z"/>
<path id="XMLID_1636_" class="st1" d="M253.6,143.7L253.6,143.7c-9.3-0.2-16.1,4.5-16.2,11.2l-3.3,30.3c-0.1,6.7,9.3,7.7,18.7,7.9
	c9.3,0.2,17-0.9,17.1-7.6l0-28.7C269.9,150,262.9,143.8,253.6,143.7z"/>
<path id="XMLID_1621_" class="st2" d="M235.2,172.7c0,0-1.1,0.4-3,1.9c-4.3,4.1-3.6,12.4-1.7,18.9c4.5-0.2,11.2,8.1,11.2,8.1
	s-1-5.7-3.4-11.1C234.7,182.4,235.2,172.7,235.2,172.7z"/>
<polygon id="XMLID_2727_" class="st3" points="274.7,369.8 260,394 270.4,395.1 284.6,369.8 "/>
<path id="XMLID_2721_" class="st1" d="M285.5,208v-25.1c-20.3-6-48.1-6-67.7,2.3V208H285.5z"/>
<path id="XMLID_2720_" class="st4" d="M293.3,184.8c-1.8-0.7-3.7-1.3-5.7-1.7c-1.8-0.5-3.6-1-5.5-1.5c-2,11.7-16.7,14.3-32.8,14.6
	c-14.5,0.2-21.1-2.9-23.7-14c-4.8,0.8-17.1,4.7-23.9,9.1v196.3c10.8,2.4,26.6,4.8,45.9,4.6c20.7-0.3,36.1-3.1,45.7-5.6V184.8z"/>
<path id="XMLID_2719_" class="st0" d="M241.9,201.5c-0.6-3-9.8-11.8-11.7-20.3c-8.7,0-26.1,7.1-31.4,12.3
	c-11.4,11.1-10.6,50.8-11.8,93.3c-1.1,42.6,0.4,51.1-12,85.2c0,0,29.5,27.9,59,29.5C239.7,313,241,211.1,241.9,201.5z"/>
<path id="XMLID_550_" class="st5" d="M229.7,190.5l-2.6,0c0,0.6,0.6,65.1-5.3,124.8c-3.6,36.9-7.8,64.6-10.5,80.5
	c1.4,0.6,2.7,1.1,4.1,1.6c2.7-15.8,7-44,10.7-81.7c5.4-54.4,5.4-112.7,5.3-123.5C230.8,191.6,230.3,191,229.7,190.5z"/>
<path id="XMLID_2718_" class="st0" d="M287.5,183.1c-1.8-0.5-9.9-2.6-11.7-3.1c-1.7,10-5.8,8-17.7,21.3c-1.2,11.7,3.3,91-8.4,200.3
	c35.7-0.8,72.3-19.1,72.3-19.1c-10.8-40.2-12.4-121.6-9.6-163.8C312.6,214.8,313.1,188.4,287.5,183.1z"/>
<path id="XMLID_2717_" class="st6" d="M225.5,181.7L225.5,181.7c0,0-4.4,19.9,0,28.5c0,0,1.1-12.4,6.6-10.3c3.6,1.4,7.2,6.6,9.2,9.8
	c0.3-4.3,0.5-7.2,0.6-8.3c-0.6-2.9-9.2-11.3-11.5-19.5C227.6,181.6,225.5,181.7,225.5,181.7z"/>
<path id="XMLID_551_" class="st5" d="M257.7,401.1c1.5-0.1,3-0.3,4.4-0.5c2.1-15.3,5.5-43.8,7.6-81.3c3.1-57.4,0.7-126,0.7-126.7
	l-3.5,0.1c-0.3,0.3-0.5,0.7-0.8,1c0.3,8.6,2.2,71.8-0.7,125.3C263.3,357.4,259.8,386.2,257.7,401.1z"/>
<path id="XMLID_2714_" class="st6" d="M272.2,200c5.5-2.2,6.6,10.3,6.6,10.3c4.4-8.6,0-28.5,0-28.5h0c0,0-1.4-0.1-3.4,0.1
	c-1.9,8-6.2,7-17.4,19.4c-0.1,1.3-0.1,4.7-0.4,9.8C261.3,207.3,269.2,201.2,272.2,200z"/>
<g id="XMLID_2712_">
	<polygon id="XMLID_2713_" class="st5" points="191.2,221.7 193.4,217.2 228.2,211.1 228.9,215.4 	"/>
</g>
<path id="XMLID_2711_" class="st7" d="M241.9,201.5c0,0-11.7-14.5-14.6-4.7c-2,6.6-2.9,10.6-2.9,10.6s-5.4-16.8,0.5-24.9
	c5.9-8.1,10.4-9.8,10.4-9.8s-0.5,9.6,3.1,17.8C240.9,195.8,241.9,201.5,241.9,201.5z"/>
<ellipse id="XMLID_2710_" transform="matrix(0.1037 -0.9946 0.9946 0.1037 -67.4787 482.53)" class="st8" cx="234" cy="278.7" rx="2.6" ry="2.9"/>
<ellipse id="XMLID_2709_" transform="matrix(0.1038 -0.9946 0.9946 0.1038 -103.9666 512.1357)" class="st8" cx="232.2" cy="313.8" rx="2.6" ry="2.9"/>
<ellipse id="XMLID_2708_" transform="matrix(0.1038 -0.9946 0.9946 0.1038 -137.8663 538.9606)" class="st8" cx="230.1" cy="346" rx="2.6" ry="2.9"/>
<ellipse id="XMLID_2707_" transform="matrix(0.1038 -0.9946 0.9946 0.1038 -172.8919 566.4623)" class="st9" cx="227.9" cy="379.2" rx="2.6" ry="2.9"/>
<ellipse id="XMLID_2706_" transform="matrix(0.1037 -0.9946 0.9946 0.1037 -2.978 428.2439)" class="st8" cx="236.1" cy="215.8" rx="2.6" ry="2.9"/>
<ellipse id="XMLID_2705_" transform="matrix(0.1037 -0.9946 0.9946 0.1037 -32.1032 454.2651)" class="st8" cx="236" cy="244.9" rx="2.6" ry="2.9"/>
<g id="XMLID_2703_">
	<polygon id="XMLID_2704_" class="st5" points="303.9,222.7 267.2,215.5 268,211.3 303,218.5 	"/>
</g>
<path id="XMLID_2702_" class="st7" d="M258,201.7c0,0,16.1-14.7,19-4.9c2,6.6,2.9,10.6,2.9,10.6s5.4-16.8-0.5-24.9
	c-5.9-8.1-9.7-8.4-9.7-8.4s0.3,3.5-3.3,11.6C264,191,258.8,194.9,258,201.7z"/>
<path id="XMLID_2700_" class="st2" d="M238.5,190.5c-3.6-8.1-3.1-17.8-3.1-17.8s-1.1,0.4-3,1.9c-4.3,4.1-3.6,12.4-1.7,18.9
	c4.5-0.2,11.2,8.1,11.2,8.1S240.9,195.8,238.5,190.5z"/>
<path id="XMLID_2699_" class="st2" d="M273.1,193.5c1.1-6.8,1.1-13.6-3.3-19.4c-0.1,0-0.1,0-0.1,0s0.3,3.5-3.3,11.6
	c-2.4,5.3-7.6,9.2-8.4,16C258,201.7,267.3,193.2,273.1,193.5z"/>
<path id="XMLID_552_" class="st5" d="M187.8,251.6c-0.2,7.2-0.4,14.8-0.5,22.6c5.2-60.1,17.5-81,22.3-87.2c-3,0.9-4.3,1.5-6.7,2.7
	c-0.1,0.2-0.2,0.4-0.3,0.5C193.5,209.4,188.5,230.4,187.8,251.6z"/>
<path id="XMLID_553_" class="st5" d="M297.1,186.4c-2-1.1-4.4-1.9-7-2.6c4.3,4.8,13.7,23.1,21.2,91.3c-0.1-5.8-0.1-11.5-0.1-17
	c0-12-1.1-24-3.5-35.8C303.9,203.7,300,192.3,297.1,186.4z"/>
<path id="XMLID_2690_" class="st5" d="M196.9,242.9l-1.8,25.5c-0.2,2.5,1,4.9,3,6.2l5.8,3.8c1.6,1.1,3.7,1,5.3,0l7.6-5.1
	c1.6-1.1,2.7-3,2.8-5l1.8-25.4H196.9z"/>
<path id="XMLID_2689_" class="st5" d="M276.1,244.3v25.2c0,2.4,1.2,4.7,3.1,6.1l5.3,3.7c2.8,2,6.6,1.9,9.3-0.3l7.7-6.3
	c2.3-1.8,3.5-4.6,3.4-7.5l-0.7-20.8H276.1z"/>
<path id="XMLID_1846_" class="st1" d="M210.3,119.2c-4.3,1.4-6.3,7.8-4.4,14.2c1.9,6.4,7,10.4,11.4,9c4.3-1.4,6.3-7.8,4.4-14.2
	C219.7,121.8,214.6,117.8,210.3,119.2z"/>
<path id="XMLID_1844_" class="st10" d="M236.8,61.6c0,0,0-0.1,0-0.2C236.7,61.6,236.8,61.6,236.8,61.6z"/>
<path id="XMLID_1843_" class="st11" d="M284.6,81.3c-2.5-15.1-45-22.2-57.5-1.5c-4,9.6-10.5,27.5-12.6,45.3c0-0.2,0-0.3,0-0.3
	S202.9,172.1,245,175c42.1,2.9,46.8-19.3,45-46.9l0,0C290.1,112.5,287.8,92.8,284.6,81.3z"/>
<g id="XMLID_1757_" class="st12">
	
		<ellipse id="XMLID_83_" transform="matrix(1.376168e-02 -0.9999 0.9999 1.376168e-02 92.8505 360.6005)" class="st11" cx="229.2" cy="133.2" rx="16.5" ry="15.1"/>
	
		<ellipse id="XMLID_162_" transform="matrix(1.376280e-02 -0.9999 0.9999 1.376280e-02 92.8503 360.6003)" class="st13" cx="229.2" cy="133.2" rx="16.4" ry="15"/>
	
		<ellipse id="XMLID_161_" transform="matrix(1.376393e-02 -0.9999 0.9999 1.376393e-02 92.85 360.6002)" class="st14" cx="229.2" cy="133.2" rx="16.3" ry="14.9"/>
	
		<ellipse id="XMLID_160_" transform="matrix(1.376503e-02 -0.9999 0.9999 1.376503e-02 92.8497 360.6)" class="st15" cx="229.2" cy="133.2" rx="16.2" ry="14.9"/>
	
		<ellipse id="XMLID_159_" transform="matrix(1.376618e-02 -0.9999 0.9999 1.376618e-02 92.8495 360.5998)" class="st16" cx="229.2" cy="133.2" rx="16.1" ry="14.8"/>
	
		<ellipse id="XMLID_158_" transform="matrix(1.376110e-02 -0.9999 0.9999 1.376110e-02 92.8506 360.6006)" class="st17" cx="229.2" cy="133.2" rx="16" ry="14.7"/>
	
		<ellipse id="XMLID_157_" transform="matrix(1.376225e-02 -0.9999 0.9999 1.376225e-02 92.8504 360.6003)" class="st18" cx="229.2" cy="133.2" rx="15.9" ry="14.6"/>
	
		<ellipse id="XMLID_156_" transform="matrix(1.376341e-02 -0.9999 0.9999 1.376341e-02 92.8501 360.6002)" class="st19" cx="229.2" cy="133.2" rx="15.8" ry="14.5"/>
	
		<ellipse id="XMLID_155_" transform="matrix(1.376454e-02 -0.9999 0.9999 1.376454e-02 92.8498 360.6)" class="st20" cx="229.2" cy="133.2" rx="15.7" ry="14.4"/>
	
		<ellipse id="XMLID_154_" transform="matrix(1.376574e-02 -0.9999 0.9999 1.376574e-02 92.8496 360.5999)" class="st21" cx="229.2" cy="133.2" rx="15.6" ry="14.3"/>
	
		<ellipse id="XMLID_153_" transform="matrix(1.376048e-02 -0.9999 0.9999 1.376048e-02 92.8508 360.6006)" class="st22" cx="229.2" cy="133.2" rx="15.5" ry="14.2"/>
	
		<ellipse id="XMLID_152_" transform="matrix(1.376166e-02 -0.9999 0.9999 1.376166e-02 92.8505 360.6004)" class="st23" cx="229.2" cy="133.2" rx="15.4" ry="14.1"/>
	
		<ellipse id="XMLID_151_" transform="matrix(1.376286e-02 -0.9999 0.9999 1.376286e-02 92.8502 360.6003)" class="st24" cx="229.2" cy="133.2" rx="15.3" ry="14"/>
	
		<ellipse id="XMLID_150_" transform="matrix(1.376402e-02 -0.9999 0.9999 1.376402e-02 92.8499 360.6001)" class="st25" cx="229.2" cy="133.2" rx="15.1" ry="13.9"/>
	
		<ellipse id="XMLID_149_" transform="matrix(1.376525e-02 -0.9999 0.9999 1.376525e-02 92.8497 360.5999)" class="st26" cx="229.2" cy="133.2" rx="15" ry="13.8"/>
	
		<ellipse id="XMLID_148_" transform="matrix(1.376650e-02 -0.9999 0.9999 1.376650e-02 92.8494 360.5998)" class="st27" cx="229.2" cy="133.2" rx="14.9" ry="13.7"/>
	
		<ellipse id="XMLID_147_" transform="matrix(1.376103e-02 -0.9999 0.9999 1.376103e-02 92.8507 360.6005)" class="st28" cx="229.2" cy="133.2" rx="14.8" ry="13.6"/>
	
		<ellipse id="XMLID_146_" transform="matrix(1.376227e-02 -0.9999 0.9999 1.376227e-02 92.8503 360.6003)" class="st29" cx="229.2" cy="133.2" rx="14.7" ry="13.5"/>
	
		<ellipse id="XMLID_145_" transform="matrix(1.376347e-02 -0.9999 0.9999 1.376347e-02 92.8501 360.6002)" class="st30" cx="229.2" cy="133.2" rx="14.6" ry="13.4"/>
	
		<ellipse id="XMLID_144_" transform="matrix(1.376474e-02 -0.9999 0.9999 1.376474e-02 92.8498 360.6)" class="st31" cx="229.2" cy="133.2" rx="14.5" ry="13.3"/>
	
		<ellipse id="XMLID_143_" transform="matrix(1.376603e-02 -0.9999 0.9999 1.376603e-02 92.8495 360.5998)" class="st32" cx="229.2" cy="133.2" rx="14.4" ry="13.2"/>
	
		<ellipse id="XMLID_142_" transform="matrix(1.376036e-02 -0.9999 0.9999 1.376036e-02 92.8508 360.6006)" class="st33" cx="229.2" cy="133.2" rx="14.3" ry="13.2"/>
	
		<ellipse id="XMLID_141_" transform="matrix(1.376158e-02 -0.9999 0.9999 1.376158e-02 92.8505 360.6004)" class="st34" cx="229.2" cy="133.2" rx="14.2" ry="13.1"/>
	
		<ellipse id="XMLID_140_" transform="matrix(1.376288e-02 -0.9999 0.9999 1.376288e-02 92.8502 360.6003)" class="st35" cx="229.2" cy="133.2" rx="14.1" ry="13"/>
	
		<ellipse id="XMLID_139_" transform="matrix(1.376419e-02 -0.9999 0.9999 1.376419e-02 92.8499 360.6001)" class="st36" cx="229.2" cy="133.2" rx="14" ry="12.9"/>
	
		<ellipse id="XMLID_138_" transform="matrix(1.376552e-02 -0.9999 0.9999 1.376552e-02 92.8496 360.5999)" class="st37" cx="229.2" cy="133.2" rx="13.9" ry="12.8"/>
	
		<ellipse id="XMLID_137_" transform="matrix(1.376687e-02 -0.9999 0.9999 1.376687e-02 92.8493 360.5997)" class="st38" cx="229.2" cy="133.2" rx="13.8" ry="12.7"/>
	
		<ellipse id="XMLID_136_" transform="matrix(1.376090e-02 -0.9999 0.9999 1.376090e-02 92.8507 360.6005)" class="st39" cx="229.2" cy="133.2" rx="13.7" ry="12.6"/>
	
		<ellipse id="XMLID_135_" transform="matrix(1.376224e-02 -0.9999 0.9999 1.376224e-02 92.8503 360.6003)" class="st40" cx="229.2" cy="133.2" rx="13.6" ry="12.5"/>
	
		<ellipse id="XMLID_134_" transform="matrix(1.376360e-02 -0.9999 0.9999 1.376360e-02 92.8501 360.6001)" class="st41" cx="229.2" cy="133.2" rx="13.5" ry="12.4"/>
	
		<ellipse id="XMLID_133_" transform="matrix(1.376497e-02 -0.9999 0.9999 1.376497e-02 92.8497 360.6)" class="st42" cx="229.2" cy="133.2" rx="13.4" ry="12.3"/>
	
		<ellipse id="XMLID_132_" transform="matrix(1.376632e-02 -0.9999 0.9999 1.376632e-02 92.8494 360.5998)" class="st43" cx="229.2" cy="133.2" rx="13.3" ry="12.2"/>
	
		<ellipse id="XMLID_131_" transform="matrix(1.376016e-02 -0.9999 0.9999 1.376016e-02 92.8508 360.6006)" class="st44" cx="229.2" cy="133.2" rx="13.2" ry="12.1"/>
	
		<ellipse id="XMLID_130_" transform="matrix(1.376155e-02 -0.9999 0.9999 1.376155e-02 92.8505 360.6005)" class="st45" cx="229.2" cy="133.2" rx="13.1" ry="12"/>
	
		<ellipse id="XMLID_129_" transform="matrix(1.376296e-02 -0.9999 0.9999 1.376296e-02 92.8502 360.6003)" class="st46" cx="229.2" cy="133.2" rx="13" ry="11.9"/>
	
		<ellipse id="XMLID_128_" transform="matrix(1.376438e-02 -0.9999 0.9999 1.376438e-02 92.8498 360.6001)" class="st47" cx="229.2" cy="133.2" rx="12.9" ry="11.8"/>
	
		<ellipse id="XMLID_127_" transform="matrix(1.376578e-02 -0.9999 0.9999 1.376578e-02 92.8495 360.5999)" class="st48" cx="229.2" cy="133.2" rx="12.8" ry="11.7"/>
	
		<ellipse id="XMLID_126_" transform="matrix(1.376726e-02 -0.9999 0.9999 1.376726e-02 92.8492 360.5997)" class="st49" cx="229.2" cy="133.2" rx="12.7" ry="11.6"/>
	
		<ellipse id="XMLID_125_" transform="matrix(1.376080e-02 -0.9999 0.9999 1.376080e-02 92.8507 360.6006)" class="st50" cx="229.2" cy="133.2" rx="12.6" ry="11.5"/>
	
		<ellipse id="XMLID_124_" transform="matrix(1.376226e-02 -0.9999 0.9999 1.376226e-02 92.8504 360.6004)" class="st51" cx="229.2" cy="133.2" rx="12.5" ry="11.4"/>
	
		<ellipse id="XMLID_123_" transform="matrix(1.376374e-02 -0.9999 0.9999 1.376374e-02 92.85 360.6002)" class="st52" cx="229.2" cy="133.2" rx="12.4" ry="11.4"/>
	
		<ellipse id="XMLID_122_" transform="matrix(1.376520e-02 -0.9999 0.9999 1.376520e-02 92.8497 360.6)" class="st53" cx="229.2" cy="133.2" rx="12.3" ry="11.3"/>
	
		<ellipse id="XMLID_121_" transform="matrix(1.376673e-02 -0.9999 0.9999 1.376673e-02 92.8494 360.5998)" class="st54" cx="229.2" cy="133.2" rx="12.2" ry="11.2"/>
	
		<ellipse id="XMLID_120_" transform="matrix(1.376438e-02 -0.9999 0.9999 1.376438e-02 92.8499 360.6001)" class="st55" cx="229.2" cy="133.2" rx="12.1" ry="11.1"/>
	
		<ellipse id="XMLID_119_" transform="matrix(1.376151e-02 -0.9999 0.9999 1.376151e-02 92.8505 360.6005)" class="st56" cx="229.2" cy="133.2" rx="12" ry="11"/>
	
		<ellipse id="XMLID_118_" transform="matrix(1.376305e-02 -0.9999 0.9999 1.376305e-02 92.8502 360.6003)" class="st57" cx="229.2" cy="133.2" rx="11.9" ry="10.9"/>
	
		<ellipse id="XMLID_117_" transform="matrix(1.376456e-02 -0.9999 0.9999 1.376456e-02 92.8498 360.6001)" class="st58" cx="229.2" cy="133.2" rx="11.7" ry="10.8"/>
	
		<ellipse id="XMLID_116_" transform="matrix(1.376615e-02 -0.9999 0.9999 1.376615e-02 92.8495 360.5998)" class="st59" cx="229.2" cy="133.2" rx="11.6" ry="10.7"/>
	
		<ellipse id="XMLID_115_" transform="matrix(1.376777e-02 -0.9999 0.9999 1.376777e-02 92.8491 360.5996)" class="st60" cx="229.2" cy="133.2" rx="11.5" ry="10.6"/>
	
		<ellipse id="XMLID_114_" transform="matrix(1.376069e-02 -0.9999 0.9999 1.376069e-02 92.8507 360.6006)" class="st61" cx="229.2" cy="133.2" rx="11.4" ry="10.5"/>
	
		<ellipse id="XMLID_113_" transform="matrix(1.376223e-02 -0.9999 0.9999 1.376223e-02 92.8504 360.6003)" class="st62" cx="229.2" cy="133.2" rx="11.3" ry="10.4"/>
	
		<ellipse id="XMLID_112_" transform="matrix(1.376386e-02 -0.9999 0.9999 1.376386e-02 92.85 360.6002)" class="st63" cx="229.2" cy="133.2" rx="11.2" ry="10.3"/>
	
		<ellipse id="XMLID_111_" transform="matrix(1.376552e-02 -0.9999 0.9999 1.376552e-02 92.8496 360.5999)" class="st64" cx="229.2" cy="133.2" rx="11.1" ry="10.2"/>
	
		<ellipse id="XMLID_110_" transform="matrix(1.376721e-02 -0.9999 0.9999 1.376721e-02 92.8492 360.5997)" class="st65" cx="229.2" cy="133.2" rx="11" ry="10.1"/>
	
		<ellipse id="XMLID_109_" transform="matrix(1.376436e-02 -0.9999 0.9999 1.376436e-02 92.8499 360.6001)" class="st66" cx="229.2" cy="133.2" rx="10.9" ry="10"/>
	
		<ellipse id="XMLID_108_" transform="matrix(1.376139e-02 -0.9999 0.9999 1.376139e-02 92.8505 360.6005)" class="st67" cx="229.2" cy="133.2" rx="10.8" ry="9.9"/>
	
		<ellipse id="XMLID_107_" transform="matrix(1.376310e-02 -0.9999 0.9999 1.376310e-02 92.8501 360.6003)" class="st68" cx="229.2" cy="133.2" rx="10.7" ry="9.8"/>
	
		<ellipse id="XMLID_106_" transform="matrix(1.376483e-02 -0.9999 0.9999 1.376483e-02 92.8498 360.6)" class="st69" cx="229.2" cy="133.2" rx="10.6" ry="9.7"/>
	
		<ellipse id="XMLID_105_" transform="matrix(1.376660e-02 -0.9999 0.9999 1.376660e-02 92.8493 360.5998)" class="st70" cx="229.2" cy="133.2" rx="10.5" ry="9.6"/>
	
		<ellipse id="XMLID_104_" transform="matrix(1.376834e-02 -0.9999 0.9999 1.376834e-02 92.8489 360.5995)" class="st71" cx="229.2" cy="133.2" rx="10.4" ry="9.6"/>
	
		<ellipse id="XMLID_103_" transform="matrix(1.376048e-02 -0.9999 0.9999 1.376048e-02 92.8508 360.6006)" class="st72" cx="229.2" cy="133.2" rx="10.3" ry="9.5"/>
	
		<ellipse id="XMLID_102_" transform="matrix(1.376226e-02 -0.9999 0.9999 1.376226e-02 92.8503 360.6004)" class="st73" cx="229.2" cy="133.2" rx="10.2" ry="9.4"/>
	
		<ellipse id="XMLID_101_" transform="matrix(1.376407e-02 -0.9999 0.9999 1.376407e-02 92.85 360.6001)" class="st74" cx="229.2" cy="133.2" rx="10.1" ry="9.3"/>
	
		<ellipse id="XMLID_100_" transform="matrix(1.376592e-02 -0.9999 0.9999 1.376592e-02 92.8495 360.5999)" class="st75" cx="229.2" cy="133.2" rx="10" ry="9.2"/>
	
		<ellipse id="XMLID_99_" transform="matrix(1.376774e-02 -0.9999 0.9999 1.376774e-02 92.8491 360.5996)" class="st76" cx="229.2" cy="133.2" rx="9.9" ry="9.1"/>
	
		<ellipse id="XMLID_98_" transform="matrix(1.376457e-02 -0.9999 0.9999 1.376457e-02 92.8499 360.6)" class="st77" cx="229.2" cy="133.2" rx="9.8" ry="9"/>
	
		<ellipse id="XMLID_97_" transform="matrix(1.376132e-02 -0.9999 0.9999 1.376132e-02 92.8506 360.6005)" class="st78" cx="229.2" cy="133.2" rx="9.7" ry="8.9"/>
	
		<ellipse id="XMLID_96_" transform="matrix(1.376323e-02 -0.9999 0.9999 1.376323e-02 92.8502 360.6002)" class="st79" cx="229.2" cy="133.2" rx="9.6" ry="8.8"/>
	
		<ellipse id="XMLID_95_" transform="matrix(1.376517e-02 -0.9999 0.9999 1.376517e-02 92.8497 360.5999)" class="st80" cx="229.2" cy="133.2" rx="9.5" ry="8.7"/>
	
		<ellipse id="XMLID_94_" transform="matrix(1.376709e-02 -0.9999 0.9999 1.376709e-02 92.8493 360.5997)" class="st81" cx="229.2" cy="133.2" rx="9.4" ry="8.6"/>
	
		<ellipse id="XMLID_93_" transform="matrix(1.376912e-02 -0.9999 0.9999 1.376912e-02 92.8488 360.5994)" class="st82" cx="229.2" cy="133.2" rx="9.3" ry="8.5"/>
	
		<ellipse id="XMLID_92_" transform="matrix(1.376029e-02 -0.9999 0.9999 1.376029e-02 92.8508 360.6006)" class="st83" cx="229.2" cy="133.2" rx="9.2" ry="8.4"/>
	
		<ellipse id="XMLID_91_" transform="matrix(1.376229e-02 -0.9999 0.9999 1.376229e-02 92.8504 360.6003)" class="st84" cx="229.2" cy="133.2" rx="9.1" ry="8.3"/>
	
		<ellipse id="XMLID_90_" transform="matrix(1.376433e-02 -0.9999 0.9999 1.376433e-02 92.8499 360.6001)" class="st85" cx="229.2" cy="133.2" rx="9" ry="8.2"/>
	
		<ellipse id="XMLID_89_" transform="matrix(1.376635e-02 -0.9999 0.9999 1.376635e-02 92.8494 360.5998)" class="st86" cx="229.2" cy="133.2" rx="8.9" ry="8.1"/>
	
		<ellipse id="XMLID_88_" transform="matrix(1.376849e-02 -0.9999 0.9999 1.376849e-02 92.849 360.5995)" class="st87" cx="229.2" cy="133.2" rx="8.8" ry="8"/>
	
		<ellipse id="XMLID_87_" transform="matrix(1.376491e-02 -0.9999 0.9999 1.376491e-02 92.8498 360.6)" class="st88" cx="229.2" cy="133.2" rx="8.7" ry="7.9"/>
	
		<ellipse id="XMLID_86_" transform="matrix(1.376124e-02 -0.9999 0.9999 1.376124e-02 92.8506 360.6005)" class="st89" cx="229.2" cy="133.2" rx="8.6" ry="7.9"/>
	
		<ellipse id="XMLID_85_" transform="matrix(1.376331e-02 -0.9999 0.9999 1.376331e-02 92.8501 360.6002)" class="st90" cx="229.2" cy="133.2" rx="8.5" ry="7.8"/>
	
		<ellipse id="XMLID_84_" transform="matrix(1.376552e-02 -0.9999 0.9999 1.376552e-02 92.8496 360.5999)" class="st91" cx="229.2" cy="133.2" rx="8.3" ry="7.7"/>
	
		<ellipse id="XMLID_82_" transform="matrix(1.376779e-02 -0.9999 0.9999 1.376779e-02 92.8491 360.5996)" class="st92" cx="229.2" cy="133.2" rx="8.2" ry="7.6"/>
</g>
<g id="XMLID_1668_" class="st12">
	
		<ellipse id="XMLID_2_" transform="matrix(1.376475e-02 -0.9999 0.9999 1.376475e-02 132.6673 403.5522)" class="st11" cx="270.9" cy="134.5" rx="16.5" ry="16.5"/>
	
		<ellipse id="XMLID_81_" transform="matrix(1.376564e-02 -0.9999 0.9999 1.376564e-02 132.6671 403.5521)" class="st13" cx="270.9" cy="134.5" rx="16.4" ry="16.4"/>
	
		<ellipse id="XMLID_80_" transform="matrix(1.376700e-02 -0.9999 0.9999 1.376700e-02 132.6667 403.5519)" class="st14" cx="270.9" cy="134.5" rx="16.3" ry="16.3"/>
	
		<ellipse id="XMLID_79_" transform="matrix(1.376507e-02 -0.9999 0.9999 1.376507e-02 132.6672 403.5521)" class="st15" cx="270.9" cy="134.5" rx="16.2" ry="16.2"/>
	
		<ellipse id="XMLID_78_" transform="matrix(1.376307e-02 -0.9999 0.9999 1.376307e-02 132.6678 403.5524)" class="st16" cx="270.9" cy="134.5" rx="16.1" ry="16.1"/>
	
		<ellipse id="XMLID_77_" transform="matrix(1.376427e-02 -0.9999 0.9999 1.376427e-02 132.6674 403.5522)" class="st17" cx="270.9" cy="134.5" rx="16" ry="16"/>
	
		<ellipse id="XMLID_76_" transform="matrix(1.376561e-02 -0.9999 0.9999 1.376561e-02 132.6671 403.5521)" class="st18" cx="270.9" cy="134.5" rx="15.9" ry="15.9"/>
	
		<ellipse id="XMLID_75_" transform="matrix(1.376658e-02 -0.9999 0.9999 1.376658e-02 132.6668 403.552)" class="st19" cx="270.9" cy="134.5" rx="15.8" ry="15.8"/>
	
		<ellipse id="XMLID_74_" transform="matrix(1.376459e-02 -0.9999 0.9999 1.376459e-02 132.6673 403.5522)" class="st20" cx="270.9" cy="134.5" rx="15.7" ry="15.7"/>
	
		<ellipse id="XMLID_73_" transform="matrix(1.376252e-02 -0.9999 0.9999 1.376252e-02 132.6679 403.5525)" class="st21" cx="270.9" cy="134.5" rx="15.6" ry="15.6"/>
	
		<ellipse id="XMLID_72_" transform="matrix(1.376375e-02 -0.9999 0.9999 1.376375e-02 132.6676 403.5524)" class="st22" cx="270.9" cy="134.5" rx="15.5" ry="15.5"/>
	
		<ellipse id="XMLID_71_" transform="matrix(1.376491e-02 -0.9999 0.9999 1.376491e-02 132.6673 403.5522)" class="st23" cx="270.9" cy="134.5" rx="15.4" ry="15.4"/>
	
		<ellipse id="XMLID_70_" transform="matrix(1.376609e-02 -0.9999 0.9999 1.376609e-02 132.667 403.552)" class="st24" cx="270.9" cy="134.5" rx="15.3" ry="15.3"/>
	
		<ellipse id="XMLID_69_" transform="matrix(1.376407e-02 -0.9999 0.9999 1.376407e-02 132.6675 403.5522)" class="st25" cx="270.9" cy="134.5" rx="15.1" ry="15.1"/>
	
		<ellipse id="XMLID_68_" transform="matrix(1.376525e-02 -0.9999 0.9999 1.376525e-02 132.6671 403.5521)" class="st26" cx="270.9" cy="134.5" rx="15" ry="15"/>
	
		<ellipse id="XMLID_67_" transform="matrix(1.376320e-02 -0.9999 0.9999 1.376320e-02 132.6677 403.5524)" class="st27" cx="270.9" cy="134.5" rx="14.9" ry="14.9"/>
	
		<ellipse id="XMLID_66_" transform="matrix(1.376440e-02 -0.9999 0.9999 1.376440e-02 132.6674 403.5522)" class="st28" cx="270.9" cy="134.5" rx="14.8" ry="14.8"/>
	
		<ellipse id="XMLID_65_" transform="matrix(1.376561e-02 -0.9999 0.9999 1.376561e-02 132.6671 403.5521)" class="st29" cx="270.9" cy="134.5" rx="14.7" ry="14.7"/>
	
		<ellipse id="XMLID_64_" transform="matrix(1.376717e-02 -0.9999 0.9999 1.376717e-02 132.6667 403.5518)" class="st30" cx="270.9" cy="134.5" rx="14.6" ry="14.6"/>
	
		<ellipse id="XMLID_63_" transform="matrix(1.376474e-02 -0.9999 0.9999 1.376474e-02 132.6673 403.5522)" class="st31" cx="270.9" cy="134.5" rx="14.5" ry="14.5"/>
	
		<ellipse id="XMLID_62_" transform="matrix(1.376233e-02 -0.9999 0.9999 1.376233e-02 132.668 403.5526)" class="st32" cx="270.9" cy="134.5" rx="14.4" ry="14.4"/>
	
		<ellipse id="XMLID_61_" transform="matrix(1.376385e-02 -0.9999 0.9999 1.376385e-02 132.6675 403.5523)" class="st33" cx="270.9" cy="134.5" rx="14.3" ry="14.3"/>
	
		<ellipse id="XMLID_60_" transform="matrix(1.376510e-02 -0.9999 0.9999 1.376510e-02 132.6672 403.5522)" class="st34" cx="270.9" cy="134.5" rx="14.2" ry="14.2"/>
	
		<ellipse id="XMLID_59_" transform="matrix(1.376647e-02 -0.9999 0.9999 1.376647e-02 132.6668 403.5519)" class="st35" cx="270.9" cy="134.5" rx="14.1" ry="14.1"/>
	
		<ellipse id="XMLID_58_" transform="matrix(1.376419e-02 -0.9999 0.9999 1.376419e-02 132.6674 403.5522)" class="st36" cx="270.9" cy="134.5" rx="14" ry="14"/>
	
		<ellipse id="XMLID_57_" transform="matrix(1.376217e-02 -0.9999 0.9999 1.376217e-02 132.668 403.5526)" class="st37" cx="270.9" cy="134.5" rx="13.9" ry="13.9"/>
	
		<ellipse id="XMLID_56_" transform="matrix(1.376325e-02 -0.9999 0.9999 1.376325e-02 132.6677 403.5524)" class="st38" cx="270.9" cy="134.5" rx="13.8" ry="13.8"/>
	
		<ellipse id="XMLID_55_" transform="matrix(1.376455e-02 -0.9999 0.9999 1.376455e-02 132.6674 403.5522)" class="st39" cx="270.9" cy="134.5" rx="13.7" ry="13.7"/>
	
		<ellipse id="XMLID_54_" transform="matrix(1.376596e-02 -0.9999 0.9999 1.376596e-02 132.667 403.552)" class="st40" cx="270.9" cy="134.5" rx="13.6" ry="13.6"/>
	
		<ellipse id="XMLID_53_" transform="matrix(1.376360e-02 -0.9999 0.9999 1.376360e-02 132.6676 403.5523)" class="st41" cx="270.9" cy="134.5" rx="13.5" ry="13.5"/>
	
		<ellipse id="XMLID_52_" transform="matrix(1.376492e-02 -0.9999 0.9999 1.376492e-02 132.6673 403.5522)" class="st42" cx="270.9" cy="134.5" rx="13.4" ry="13.4"/>
	
		<ellipse id="XMLID_51_" transform="matrix(1.376261e-02 -0.9999 0.9999 1.376261e-02 132.6679 403.5525)" class="st43" cx="270.9" cy="134.5" rx="13.3" ry="13.3"/>
	
		<ellipse id="XMLID_50_" transform="matrix(1.376370e-02 -0.9999 0.9999 1.376370e-02 132.6676 403.5524)" class="st44" cx="270.9" cy="134.5" rx="13.2" ry="13.2"/>
	
		<ellipse id="XMLID_49_" transform="matrix(1.376537e-02 -0.9999 0.9999 1.376537e-02 132.6671 403.5522)" class="st45" cx="270.9" cy="134.5" rx="13.1" ry="13.1"/>
	
		<ellipse id="XMLID_48_" transform="matrix(1.376681e-02 -0.9999 0.9999 1.376681e-02 132.6667 403.5519)" class="st46" cx="270.9" cy="134.5" rx="13" ry="13"/>
	
		<ellipse id="XMLID_47_" transform="matrix(1.376433e-02 -0.9999 0.9999 1.376433e-02 132.6674 403.5522)" class="st47" cx="270.9" cy="134.5" rx="12.9" ry="12.9"/>
	
		<ellipse id="XMLID_46_" transform="matrix(1.376192e-02 -0.9999 0.9999 1.376192e-02 132.6681 403.5526)" class="st48" cx="270.9" cy="134.5" rx="12.8" ry="12.8"/>
	
		<ellipse id="XMLID_45_" transform="matrix(1.376358e-02 -0.9999 0.9999 1.376358e-02 132.6676 403.5523)" class="st49" cx="270.9" cy="134.5" rx="12.7" ry="12.7"/>
	
		<ellipse id="XMLID_44_" transform="matrix(1.376478e-02 -0.9999 0.9999 1.376478e-02 132.6673 403.5522)" class="st50" cx="270.9" cy="134.5" rx="12.6" ry="12.6"/>
	
		<ellipse id="XMLID_43_" transform="matrix(1.376627e-02 -0.9999 0.9999 1.376627e-02 132.6669 403.552)" class="st51" cx="270.9" cy="134.5" rx="12.5" ry="12.5"/>
	
		<ellipse id="XMLID_42_" transform="matrix(1.376369e-02 -0.9999 0.9999 1.376369e-02 132.6676 403.5523)" class="st52" cx="270.9" cy="134.5" rx="12.4" ry="12.4"/>
	
		<ellipse id="XMLID_41_" transform="matrix(1.376117e-02 -0.9999 0.9999 1.376117e-02 132.6683 403.5527)" class="st53" cx="270.9" cy="134.5" rx="12.3" ry="12.3"/>
	
		<ellipse id="XMLID_40_" transform="matrix(1.376262e-02 -0.9999 0.9999 1.376262e-02 132.6679 403.5525)" class="st54" cx="270.9" cy="134.5" rx="12.2" ry="12.2"/>
	
		<ellipse id="XMLID_39_" transform="matrix(1.376414e-02 -0.9999 0.9999 1.376414e-02 132.6674 403.5523)" class="st55" cx="270.9" cy="134.5" rx="12.1" ry="12.1"/>
	
		<ellipse id="XMLID_38_" transform="matrix(1.376540e-02 -0.9999 0.9999 1.376540e-02 132.6671 403.5521)" class="st56" cx="270.9" cy="134.5" rx="12" ry="12"/>
	
		<ellipse id="XMLID_37_" transform="matrix(1.376299e-02 -0.9999 0.9999 1.376299e-02 132.6678 403.5524)" class="st57" cx="270.9" cy="134.5" rx="11.9" ry="11.9"/>
	
		<ellipse id="XMLID_36_" transform="matrix(1.376462e-02 -0.9999 0.9999 1.376462e-02 132.6673 403.5522)" class="st58" cx="270.9" cy="134.5" rx="11.7" ry="11.7"/>
	
		<ellipse id="XMLID_35_" transform="matrix(1.376186e-02 -0.9999 0.9999 1.376186e-02 132.6681 403.5526)" class="st59" cx="270.9" cy="134.5" rx="11.6" ry="11.6"/>
	
		<ellipse id="XMLID_34_" transform="matrix(1.376338e-02 -0.9999 0.9999 1.376338e-02 132.6677 403.5524)" class="st60" cx="270.9" cy="134.5" rx="11.5" ry="11.5"/>
	
		<ellipse id="XMLID_33_" transform="matrix(1.376536e-02 -0.9999 0.9999 1.376536e-02 132.6671 403.5521)" class="st61" cx="270.9" cy="134.5" rx="11.4" ry="11.4"/>
	
		<ellipse id="XMLID_32_" transform="matrix(1.376664e-02 -0.9999 0.9999 1.376664e-02 132.6668 403.5519)" class="st62" cx="270.9" cy="134.5" rx="11.3" ry="11.3"/>
	
		<ellipse id="XMLID_31_" transform="matrix(1.376386e-02 -0.9999 0.9999 1.376386e-02 132.6675 403.5523)" class="st63" cx="270.9" cy="134.5" rx="11.2" ry="11.2"/>
	
		<ellipse id="XMLID_30_" transform="matrix(1.376103e-02 -0.9999 0.9999 1.376103e-02 132.6683 403.5527)" class="st64" cx="270.9" cy="134.5" rx="11.1" ry="11.1"/>
	
		<ellipse id="XMLID_29_" transform="matrix(1.376262e-02 -0.9999 0.9999 1.376262e-02 132.6679 403.5525)" class="st65" cx="270.9" cy="134.5" rx="11" ry="11"/>
	
		<ellipse id="XMLID_28_" transform="matrix(1.376436e-02 -0.9999 0.9999 1.376436e-02 132.6674 403.5522)" class="st66" cx="270.9" cy="134.5" rx="10.9" ry="10.9"/>
	
		<ellipse id="XMLID_27_" transform="matrix(1.376601e-02 -0.9999 0.9999 1.376601e-02 132.667 403.552)" class="st67" cx="270.9" cy="134.5" rx="10.8" ry="10.8"/>
	
		<ellipse id="XMLID_26_" transform="matrix(1.376310e-02 -0.9999 0.9999 1.376310e-02 132.6677 403.5524)" class="st68" cx="270.9" cy="134.5" rx="10.7" ry="10.7"/>
	
		<ellipse id="XMLID_25_" transform="matrix(1.376012e-02 -0.9999 0.9999 1.376012e-02 132.6685 403.5528)" class="st69" cx="270.9" cy="134.5" rx="10.6" ry="10.6"/>
	
		<ellipse id="XMLID_24_" transform="matrix(1.376178e-02 -0.9999 0.9999 1.376178e-02 132.6681 403.5526)" class="st70" cx="270.9" cy="134.5" rx="10.5" ry="10.5"/>
	
		<ellipse id="XMLID_23_" transform="matrix(1.376360e-02 -0.9999 0.9999 1.376360e-02 132.6676 403.5524)" class="st71" cx="270.9" cy="134.5" rx="10.4" ry="10.4"/>
	
		<ellipse id="XMLID_22_" transform="matrix(1.376533e-02 -0.9999 0.9999 1.376533e-02 132.6672 403.5521)" class="st72" cx="270.9" cy="134.5" rx="10.3" ry="10.3"/>
	
		<ellipse id="XMLID_21_" transform="matrix(1.376219e-02 -0.9999 0.9999 1.376219e-02 132.668 403.5525)" class="st73" cx="270.9" cy="134.5" rx="10.2" ry="10.2"/>
	
		<ellipse id="XMLID_20_" transform="matrix(1.376407e-02 -0.9999 0.9999 1.376407e-02 132.6675 403.5522)" class="st74" cx="270.9" cy="134.5" rx="10.1" ry="10.1"/>
	
		<ellipse id="XMLID_19_" transform="matrix(1.376051e-02 -0.9999 0.9999 1.376051e-02 132.6685 403.5528)" class="st75" cx="270.9" cy="134.5" rx="10" ry="10"/>
	
		<ellipse id="XMLID_18_" transform="matrix(1.376276e-02 -0.9999 0.9999 1.376276e-02 132.6679 403.5525)" class="st76" cx="270.9" cy="134.5" rx="9.9" ry="9.9"/>
	
		<ellipse id="XMLID_17_" transform="matrix(1.376457e-02 -0.9999 0.9999 1.376457e-02 132.6673 403.5522)" class="st77" cx="270.9" cy="134.5" rx="9.8" ry="9.8"/>
	
		<ellipse id="XMLID_16_" transform="matrix(1.376641e-02 -0.9999 0.9999 1.376641e-02 132.6669 403.552)" class="st78" cx="270.9" cy="134.5" rx="9.7" ry="9.7"/>
	
		<ellipse id="XMLID_15_" transform="matrix(1.376323e-02 -0.9999 0.9999 1.376323e-02 132.6677 403.5524)" class="st79" cx="270.9" cy="134.5" rx="9.6" ry="9.6"/>
	
		<ellipse id="XMLID_14_" transform="matrix(1.376019e-02 -0.9999 0.9999 1.376019e-02 132.6686 403.5528)" class="st80" cx="270.9" cy="134.5" rx="9.5" ry="9.5"/>
	
		<ellipse id="XMLID_13_" transform="matrix(1.376175e-02 -0.9999 0.9999 1.376175e-02 132.6681 403.5526)" class="st81" cx="270.9" cy="134.5" rx="9.4" ry="9.4"/>
	
		<ellipse id="XMLID_12_" transform="matrix(1.376372e-02 -0.9999 0.9999 1.376372e-02 132.6676 403.5523)" class="st82" cx="270.9" cy="134.5" rx="9.3" ry="9.3"/>
	
		<ellipse id="XMLID_11_" transform="matrix(1.376567e-02 -0.9999 0.9999 1.376567e-02 132.6671 403.5521)" class="st83" cx="270.9" cy="134.5" rx="9.2" ry="9.2"/>
	
		<ellipse id="XMLID_10_" transform="matrix(1.376229e-02 -0.9999 0.9999 1.376229e-02 132.668 403.5525)" class="st84" cx="270.9" cy="134.5" rx="9.1" ry="9.1"/>
	
		<ellipse id="XMLID_9_" transform="matrix(1.375868e-02 -0.9999 0.9999 1.375868e-02 132.669 403.553)" class="st85" cx="270.9" cy="134.5" rx="9" ry="9"/>
	
		<ellipse id="XMLID_8_" transform="matrix(1.376071e-02 -0.9999 0.9999 1.376071e-02 132.6684 403.5528)" class="st86" cx="270.9" cy="134.5" rx="8.9" ry="8.9"/>
	
		<ellipse id="XMLID_7_" transform="matrix(1.376239e-02 -0.9999 0.9999 1.376239e-02 132.6679 403.5525)" class="st87" cx="270.9" cy="134.5" rx="8.8" ry="8.8"/>
	
		<ellipse id="XMLID_6_" transform="matrix(1.376483e-02 -0.9999 0.9999 1.376483e-02 132.6673 403.5522)" class="st88" cx="270.9" cy="134.5" rx="8.7" ry="8.7"/>
	
		<ellipse id="XMLID_5_" transform="matrix(1.376708e-02 -0.9999 0.9999 1.376708e-02 132.6667 403.5519)" class="st89" cx="270.9" cy="134.5" rx="8.6" ry="8.6"/>
	
		<ellipse id="XMLID_4_" transform="matrix(1.376331e-02 -0.9999 0.9999 1.376331e-02 132.6677 403.5524)" class="st90" cx="270.9" cy="134.5" rx="8.5" ry="8.4"/>
	
		<ellipse id="XMLID_3_" transform="matrix(1.375945e-02 -0.9999 0.9999 1.375945e-02 132.6687 403.5529)" class="st91" cx="270.9" cy="134.5" rx="8.3" ry="8.3"/>
	
		<ellipse id="XMLID_1_" transform="matrix(1.376214e-02 -0.9999 0.9999 1.376214e-02 132.668 403.5526)" class="st92" cx="270.9" cy="134.5" rx="8.2" ry="8.2"/>
</g>
<path id="XMLID_1667_" class="st11" d="M299.1,120.5c-4.3-1.5-9.5,2.3-11.6,8.7c-2.1,6.3-0.3,12.7,4,14.3c4.3,1.5,9.5-2.3,11.6-8.7
	C305.2,128.4,303.4,122,299.1,120.5z"/>
<path id="XMLID_1666_" class="st1" d="M299.6,135.5c-4.2,2.7-8.6,1.8-11.8-0.8c0.1,5.3-1.1,15.5-8.8,25.8
	c-6.2,8.3-19.5,11-29.3,10.6c-23.5-0.9-29.7-8.1-34.6-17.8c3.3,10.7,11.4,20.5,30,21.8c34.3,2.4,43.8-11.9,45.1-32.2
	c0.4,0.3,0.8,0.5,1.3,0.7c4.3,1.5,9.5-2.3,11.6-8.7c0.5-1.6,0.8-3.3,0.9-4.8C303.2,132.1,301.8,134,299.6,135.5z"/>
<path id="XMLID_1665_" class="st1" d="M292,132l3.9,0.6c0-6.2,4.6-8.3,4.6-8.3C293,121.6,292,132,292,132z"/>
<path id="XMLID_1847_" class="st93" d="M260.3,99.7c0,0-7.3,14.8,0.5,24.1c0,0,6.5,2.4,8.9,2.2c1.8-0.1,7.9-3.2,7.9-3.2
	s3.1-6.7,2.6-10.9C279.7,107.8,260.3,99.7,260.3,99.7z"/>
<path id="XMLID_1664_" class="st94" d="M235.5,146.6c0,0-0.7,2.3,0.4,3.4c1.1,1.1,4.4,4.1,14.6,3.6c9.6-0.5,14-4,14.8-5.6
	c0.8-1.6-0.1-4-0.1-4L235.5,146.6z"/>
<path id="XMLID_1845_" class="st93" d="M244.4,100.4c0,0,2.9,14.3-5.6,23.4c0,0-9.4,1.3-11.5,0.6c-1.9-0.7-4.5-6.1-4.5-6.1
	s-0.6-2.6,0.7-6.4C224.7,108.2,244.4,100.4,244.4,100.4z"/>
<path id="XMLID_1658_" class="st95" d="M223.4,112.9c8.7-5.4,16.4-2.5,20.3-6c1.5-1.3,0.6-7,0.6-7
	C223.4,102.2,223.4,112.9,223.4,112.9z"/>
<path id="XMLID_1657_" class="st95" d="M260.3,99.7c0,0-2.8,5.6-1.8,7.1c3.2,4.7,14.9,1.8,21.6,7.3
	C280.2,114.1,281.8,104.7,260.3,99.7z"/>
<path id="XMLID_1655_" class="st96" d="M266.2,143.6C266.2,143.6,266.2,143.6,266.2,143.6C266.2,143.6,266.2,143.6,266.2,143.6z"/>
<path id="XMLID_1654_" class="st11" d="M244.9,129c0,0-6.2-4.5-8.4,3.4c-2.2,7.9,13.5,12.6,17.9,4.4c4.3-8.2-6.9-23.7-6.9-23.7
	S249.6,122.6,244.9,129z"/>
<path id="XMLID_1651_" class="st97" d="M292.5,121.8l-4.2,0c-0.8,8.1-3.5,13.2-6.7,16.5c-2.5,2.5-6.3,3.3-9.7,2.1
	c-5-1.8-12.3-4.9-25.5-3.6c0,0-23.5,12.8-29.1-2.3c-2.2-6.1-2.3-12.7-2.3-12.7c-5.3,21.4-7.6,55,36.8,55c45.1,0,39-34.6,39-34.6
	C288.5,134.6,292.5,121.8,292.5,121.8z M267,150.9c-2.8,3.2-7.9,6.2-15.4,6.6c-0.7,0-1.4,0.1-2.1,0.1c-7.3,0-12.4-2.4-15.4-4.5
	c-2.1-1.4-2.2-4.5-0.2-6l0,0c0,0,7.1,2.3,17.1,1.8c8.9-0.5,15.2-3.8,15.2-3.8C268.5,146.3,268.6,149.1,267,150.9z"/>
<path id="XMLID_590_" class="st98" d="M247.9,119.6c-0.1,3-0.8,6.4-3,9.4c0,0-6-4.3-8.2,2.8c3.2,0.8,6.5,1.3,9.8,1.5
	c1.8-4.2,2.5-8.8,2.7-13.7C248.7,119.7,248.3,119.6,247.9,119.6z"/>
<path id="XMLID_1649_" class="st97" d="M255,60.1c-43.6,2.9-37.3,51.2-37.3,51.2c2.6-14.4,11.6-32.2,18.4-32.6c0,0,6,4.9,14.9,5.1
	c8,0.2,19.1-5.7,19.1-5.7c8-0.2,17.1,24.5,18.2,44.4c0.2,4.5,4.2-0.7,4.2-0.7S297.7,57.3,255,60.1z"/>
<path id="XMLID_1648_" class="st97" d="M277.8,63.9c-12.9-19.7-54.9-14-54.9-14c-4.1,22.3,11.5,27.4,11.5,27.4s36.4-6.5,41.9-2.6
	c5.5,3.9,16.3,35.1,16.3,35.1s9.3-32.6,2.4-44.6C290,56.4,277.8,63.9,277.8,63.9z"/>
<path id="XMLID_1647_" class="st97" d="M239.1,45.3c0.2,3,2.7,6,2.7,6s44.1,29.9,36,12.5C269.7,46.5,239.1,45.3,239.1,45.3z"/>
<path id="XMLID_1646_" class="st97" d="M284.9,57.9c-2.5,0.4-3.1,1.6-3.1,1.6c1.8-3.3,0.6-7.7,0.6-7.7c-4.8,2.8-4.4,6.6-4.4,6.6
	c-2.4-5-9.7-6.5-9.7-6.5c0.2,4.1,4.6,8.3,4.9,8.4l3.8,5.8l7.9-1.2l-0.8-3.5C285.4,59.5,284.9,57.9,284.9,57.9z"/>
<path id="XMLID_1645_" class="st95" d="M224,66.9c-12.8,3.9-9.1,55-9.1,55c2.6-14.4,14.4-42.7,21.2-43.1
	C236.2,78.8,229.8,75,224,66.9z"/>
<path id="XMLID_1644_" class="st2" d="M273.9,63.5C273.9,63.5,274,63.5,273.9,63.5L273.9,63.5z"/>
<path id="XMLID_1643_" class="st2" d="M273.9,63L273.9,63C273.9,63,273.9,63,273.9,63z"/>
<path id="XMLID_1642_" class="st99" d="M290,61.2c-1.6,0.2-3.2,0.6-4.9,1c-4.1,0.9-8.4,1.6-12.6,1c-4.9-0.7-9.1-2.8-13.4-5
	c-2.2-1.1-4.3-2.2-6.6-3.2c-4.8-2.1-10.5-4.1-15.8-3.9c-2.6,0.1-5.2,0.9-7.6,1.9c-2.2,0.9-4.1,2.3-5.4,3.6c-0.6,0.6-1.1,1.2-1.5,1.7
	c0.1,1.7,0.3,3.3,0.6,4.8c0.2-0.1,0.3-0.3,0.5-0.4c0.9-0.6,2-1.3,3.2-1.8c1.3-0.5,2.7-1,4.3-1.1c6.3-0.5,12.2,2,17.8,4.4
	c2.3,1,4.7,2.1,7.2,3.1c2.5,1.1,5.1,2.1,7.8,2.9c4.6,1.4,10.2,1.8,14.9,0.5c0.6-0.2,1.3-0.3,1.9-0.5c2.4-0.8,4.5-1.8,6.3-2.7
	c1.8-0.9,3.4-1.8,4.8-2.4c0.9-0.5,1.8-0.8,2.6-1C293.1,62.5,291.6,61.7,290,61.2z"/>
<path id="XMLID_1641_" class="st2" d="M273.8,63.5C273.8,63.5,273.8,63.5,273.8,63.5L273.8,63.5L273.8,63.5z"/>
<path id="XMLID_1640_" class="st1" d="M236.3,134.6c0.9,6.5,14.1,9.6,18,2.2c0.2-0.5,0.4-0.9,0.6-1.4
	C248.7,136.7,242.2,136.3,236.3,134.6z"/>
<path id="XMLID_1639_" class="st100" d="M249,160.7c1.7,0.1,4.3,0.1,7.7-0.8c1.6-0.4,3.2,0.8,3,2.5c-0.1,1.6-1.5,3.4-6.4,4
	c-5,0.6-6.6-1-7-2.7C246,162,247.4,160.5,249,160.7z"/>
<path id="XMLID_228_" class="st10" d="M230.9,123c-6.1-0.5-8.1-4.6-8.1-4.6s-0.6,7.9,7.3,8.4c9.7,0.5,12.1-8,12.1-8
	S237.3,123.5,230.9,123z"/>
<path id="XMLID_219_" class="st10" d="M268.9,123.5c-8.1-0.2-10.8-4.6-10.8-4.6s-0.2,9,9.1,8.8c9.7-0.1,11.1-6.7,11.1-6.7
	S275.3,123.6,268.9,123.5z"/>
<g id="XMLID_547_">
	<path id="XMLID_942_" class="st101" d="M256.3,364c30.8-13.4,94.1-58,113.3-55.7c19.2,2.3,33.5,24.3,24.1,41.1
		c-7,12.6-103.1,62.4-103.1,62.4c-29.3,8.8-28.8,1.5-40.2,1.5c-9.6,0-14.7,6.1-34-0.2c-53.7-17.7-122-43.6-114.8-76.4
		c8.9-40.2,53-17.3,73-7.5C194.6,339,232.8,374.2,256.3,364z"/>
	<g id="XMLID_1022_">
		<path id="XMLID_1053_" class="st102" d="M248.2,394.2c6.4-3.6,29.7,1.1,47.5-8.3c13.5-7.2,21.5,0.4,24.3,14.4
			c2.8,13.9-4.9,23.5-14.3,26.3c-8.3,2.5-57.2-0.3-60.6-2.1C228,415.4,241.6,397.9,248.2,394.2z"/>
		<path id="XMLID_1052_" class="st103" d="M231.4,384.2c0,0,17.3,10.1,29,11.2c8.2,0.8,9.5,23.9-5.6,25
			c-9.1,0.6-36.3-12.5-36.3-12.5L231.4,384.2z"/>
		<path id="XMLID_1051_" class="st102" d="M283.6,394.9c-6.3,0.6-13.9,0.9-18.2,0c-8.1-1.8-9.2,7-10.6,14.5s2.3,10.7,9.1,11.6
			c7.8,1.1,14.1,0,21.8-0.6C287,411.7,285.5,403.1,283.6,394.9z"/>
		<path id="XMLID_1049_" class="st104" d="M288.2,393.7c5,3.4,6.4,23.3,2.5,27.7c-3.1,3.6-22.2,3.5-22.5-2.1
			c-0.3-5.6,4.9-17.5,0.4-25C267.6,392.6,284.7,391.3,288.2,393.7z"/>
	</g>
	<path id="XMLID_1050_" class="st105" d="M101.6,336.7c8.9-40.2,53.3-18.8,70.1-5.5c9.8,7.7,42.1,35.8,65.4,51.3
		c-4.8,15.1-9.8,24.3-18.3,38.1l-0.2,0C218.6,420.6,92.7,376.9,101.6,336.7z"/>
	<path id="XMLID_988_" class="st106" d="M246.8,397.9c-6.4-3.6-29.7,1.1-47.5-8.3c-13.5-7.2-21.5,0.4-24.3,14.3
		c-2.8,13.9,4.9,23.5,14.3,26.3c8.3,2.5,57.2-0.3,60.6-2.1C267,419.2,253.5,401.6,246.8,397.9z"/>
	<path id="XMLID_1018_" class="st107" d="M263.6,388c0,0-17.3,10.1-29,11.2c-8.2,0.8-9.5,23.9,5.6,25c9.1,0.6,36.3-12.5,36.3-12.5
		L263.6,388z"/>
	<path id="XMLID_1055_" class="st102" d="M211.5,398.7c6.3,0.6,13.9,0.9,18.2,0c8.1-1.8,9.2,7,10.6,14.5c1.4,7.5-2.3,10.7-9.1,11.6
		c-7.8,1.1-14.1,0-21.8-0.6C208.1,415.5,209.5,406.9,211.5,398.7z"/>
	<path id="XMLID_1020_" class="st108" d="M206.8,397.5c-5,3.4-6.4,23.3-2.5,27.7c3.1,3.6,22.2,3.5,22.5-2.1c0.3-5.6-4.9-17.5-0.4-25
		C227.5,396.4,210.3,395.1,206.8,397.5z"/>
	<path id="XMLID_1025_" class="st105" d="M372.3,309.8c19.2,2.3,31.9,22.7,22.5,39.6c-9.4,16.8-115.5,76.2-126.1,73.8
		c-17.9-4.1-24.2-25.8-18.7-38.9C272.7,377.2,354.6,307.7,372.3,309.8z"/>
	<path id="XMLID_876_" class="st109" d="M256.3,364c30.8-13.4,90.5-61.1,109.7-58.7c19.2,2.3,38,26.5,28.7,43.3
		c-7,12.6-104.1,63.3-104.1,63.3c-29.3,8.8-28.8,1.5-40.2,1.5c-9.6,0-14.7,6.1-34-0.2c-53.7-17.7-122-43.6-114.8-76.4
		c8.9-40.2,53-17.3,73-7.5C194.6,339,232.8,374.2,256.3,364z"/>
	<g id="XMLID_815_">
		<path id="XMLID_875_" class="st104" d="M244.5,393c10-8.2,17.6,5.9,52.1-9.1c16.9-7.4,31.6,0.3,33.5,16.4
			c2.2,18-11.9,25.2-21.2,27.2c-9.3,2-64.1-0.7-67.7-2.9C226,415.3,238,398.3,244.5,393z"/>
		<path id="XMLID_587_" class="st110" d="M243.5,393c9.1-8.2,16.1,5.9,47.6-9c15.5-7.3,29.2,0.3,31,16.4c2,18-6.5,23.8-17.7,27.7
			c-8.2,2.9-59.8-0.7-63.1-2.9C227.5,415.9,237.6,398.3,243.5,393z"/>
		<path id="XMLID_872_" class="st111" d="M248.2,394.2c6.4-3.6,29.7,1.1,47.5-8.3c13.5-7.2,21.5,0.4,24.3,14.4
			c2.8,13.9-4.9,23.5-14.3,26.3c-8.3,2.5-57.2-0.3-60.6-2.1C228,415.4,241.6,397.9,248.2,394.2z"/>
		<path id="XMLID_820_" class="st112" d="M231.4,384.2c0,0,17.3,10.1,29,11.2c8.2,0.8,9.5,23.9-5.6,25c-9.1,0.6-36.3-12.5-36.3-12.5
			L231.4,384.2z"/>
		<path id="XMLID_818_" class="st111" d="M283.6,394.9c-6.3,0.6-13.9,0.9-18.2,0c-8.1-1.8-9.2,7-10.6,14.5s2.3,10.7,9.1,11.6
			c7.8,1.1,14.1,0,21.8-0.6C287,411.7,285.5,403.1,283.6,394.9z"/>
		<path id="XMLID_816_" class="st113" d="M288.2,393.7c5,3.4,6.4,23.3,2.5,27.7c-3.1,3.6-22.2,3.5-22.5-2.1
			c-0.3-5.6,4.9-17.5,0.4-25C267.6,392.6,284.7,391.3,288.2,393.7z"/>
	</g>
	<path id="XMLID_814_" class="st114" d="M101.6,336.7c9.4-40.1,53.3-18.8,70.1-5.5c9.8,7.7,42.1,35.8,65.4,51.3
		c-4.8,15.1-9.8,24.3-18.3,38.1l-0.2,0C218.6,420.6,91.6,379,101.6,336.7z"/>
	<path id="XMLID_811_" class="st108" d="M249.9,399.1c-10-8.2-16.9,3.5-51.4-11.4C181.6,380.3,167,388,165,404
		c-2.2,18,11.5,27.4,20.8,29.4c9.3,2,61.6-2.5,65.2-4.7C265.5,419.7,256.4,404.4,249.9,399.1z"/>
	<path id="XMLID_586_" class="st113" d="M250.3,398.5c-9.1-8.2-17.1,4.6-49-9.8c-16.8-7.6-26-0.4-28.5,15.5
		c-3,20,10.5,27.4,19.1,29.4c8.5,2,56.3-2.1,59.6-4.4C265.4,419.9,256.2,403.7,250.3,398.5z"/>
	<path id="XMLID_810_" class="st115" d="M246.8,397.9c-6.4-3.6-20.1,3.2-47.5-8.3c-14.1-5.9-21.5,0.4-24.3,14.3
		c-2.8,13.9,4.9,23.5,14.3,26.3c8.3,2.5,57.2-0.3,60.6-2.1C267,419.2,253.5,401.6,246.8,397.9z"/>
	<path id="XMLID_791_" class="st116" d="M263.6,388c0,0-17.3,10.1-29,11.2c-8.2,0.8-9.5,23.9,5.6,25c9.1,0.6,36.3-12.5,36.3-12.5
		L263.6,388z"/>
	<path id="XMLID_592_" class="st117" d="M248.8,412.9c1,2.9,2.5,5.8,4.4,8.4c10.9-3.7,23.3-9.7,23.3-9.7L263.6,388
		c0,0-7.7,4.5-16.3,7.8C247.2,401.5,246.9,407.5,248.8,412.9z"/>
	<path id="XMLID_769_" class="st114" d="M366,305.2c19.2,2.3,39.9,21.1,28.9,44.1c-8.3,17.4-115.5,76.2-126.1,73.8
		c-17.9-4.1-24.2-25.8-18.7-38.9C272.7,377.2,348.2,303.1,366,305.2z"/>
	<path id="XMLID_777_" class="st115" d="M211.5,398.7c6.3,0.6,13.9,0.9,18.2,0c8.1-1.8,9.2,7,10.6,14.5c1.4,7.5-2.3,10.7-9.1,11.6
		c-7.8,1.1-14.1,0-21.8-0.6C208.1,415.5,209.5,406.9,211.5,398.7z"/>
	<path id="XMLID_776_" class="st113" d="M206.8,397.5c-5,3.4-6.4,23.3-2.5,27.7c3.1,3.6,22.2,3.5,22.5-2.1c0.3-5.6-4.5-16,0-23.6
		C227.9,397.8,210.3,395.1,206.8,397.5z"/>
</g>
<path id="XMLID_554_" class="st118" d="M145.7,281.8c-1.5-1.4,1-4.4,2-7.6c1.2-3.7,1.4-7.6,4.1-9.3c5.1-3.1,18.4,0.4,26.1,9.3
	c7.7,8.9,6.8,19.1,3.8,24.3c-2.8,4.9-12.1,16.6-16.6,17.8c-5.1,1.4-7.6-0.4-7.6-0.4s14.9-5.6,7.6-23.8
	C160,279.1,145.7,281.8,145.7,281.8z"/>
<path id="XMLID_555_" class="st118" d="M358.9,279.7c1.5-1.4-2.1-4.3-3.2-7.5c-1.2-3.7-1.4-7.6-4.1-9.3c-5.1-3.1-18.4,0.4-26.1,9.3
	c-7.7,8.9-6.8,19.1-3.8,24.3c2.8,4.9,12.1,16.6,16.6,17.8c5.1,1.4,7.6-0.4,7.6-0.4s-17.6-5.7-8.8-23.2
	C343.3,278.8,358.9,279.7,358.9,279.7z"/>
<path id="XMLID_563_" class="st11" d="M106.3,295.5c0,0,10.1-1.1,16.7-5.4c6.6-4.3,23.7-15.4,40.5-3.4s5.2,27.7-5.7,29.4
	c-11,1.7-51,1.3-61.3-2.5C91.7,311.9,106.3,295.5,106.3,295.5z"/>
<path id="XMLID_572_" class="st119" d="M163.5,286.7c-16.8-12-33.8-1-40.5,3.4c-6.6,4.3-16.7,5.4-16.7,5.4s-14.6,16.4-9.9,18.1
	c10.3,3.8,50.4,4.2,61.3,2.5C168.7,314.4,180.3,298.7,163.5,286.7z M156.6,293.9c-7.8,3-28.1,6.7-35.9,5.5c-6.7-1-5.8-4.1-3.9-4.7
	c3.2-1.1,7.6-2.7,12.8-5.4c8.2-4.2,14.6-8.6,25.1-5.2C161,286.1,164.4,290.9,156.6,293.9z"/>
<path id="XMLID_562_" class="st11" d="M96.4,313.6c0,0-24.8-10.2-30.1-16.5c-2.3-2.7-3.4-25.3-3.2-26.5c0.5-3.3,5.9-5.9,7.6-4.6
	c0,0,3.7-12.1,8.2-15.3c2.8-2,5.5-0.8,6.1,1c0,0,2.7-1.3,4.5,2.2c0,0,2.3-1.1,3.9,1.7c1.5,2.8,1,6,1.5,7.9c0.5,2,2.7,11.3,3.7,14.5
	c1,3.2,9.6,9.3,11.8,15.8C112.5,300.5,108.6,314.4,96.4,313.6z"/>
<path id="XMLID_569_" class="st119" d="M110.3,293.9c-2.2-6.6-10.8-12.6-11.8-15.8c-1-3.2-3.3-12.5-3.7-14.5c-0.5-2,0-5.1-1.5-7.9
	c-1.5-2.8-3.9-1.7-3.9-1.7c-1.8-3.6-4.5-2.2-4.5-2.2c-0.6-1.8-3.4-3-6.1-1c-4.5,3.2-8.2,15.3-8.2,15.3c-1.7-1.3-7.1,1.3-7.6,4.6
	c-0.2,1.2,0.9,23.7,3.2,26.5c5.3,6.3,30.1,16.5,30.1,16.5C108.6,314.4,112.5,300.5,110.3,293.9z M99.1,293.4
	c-2.8,3-20.8,7.4-23.9,7.5s-7-3-8.6-4.9c-1.6-1.9-3-24.9-3-24.9c1.4-4,5.9-4.1,5.9-4.1c-0.3,0.8-0.4,2.8-0.4,4.5
	c0,1.6,1.8,12.6,2.6,15.3c0.7,2.7,2.2,2,1.6-0.6c-0.6-2.6-2.9-15.5-2.3-17.8c0.6-2.4,3-8.9,4.8-12.5c1.9-3.6,4.8-6.2,7.2-4.6
	c2.4,1.7,0.5,7.4-0.1,9.7c-0.6,2.2-2.7,10.6-2.7,13c0,2.4,1.4,10.1,2,12.3c0.6,2.2,2,2.4,1.8,0.1c-0.2-2.3-1.5-7.9-1.6-12.1
	c-0.1-4.3,1-10.4,1.7-12.6c0.7-2.2,1.2-9,1.2-9c1.8-0.9,2.8,0.8,3.7,2.7c0.8,1.9,0.5,14.7,0.5,16.2c0,1.5,1.9,11.1,2.5,13.4
	c0.6,2.3,2.2,2.9,2,0.6c-0.2-2.3-2-11-2.4-14.1c-0.4-3.1-1.9-18,0.2-16.6c1.4,0.9,1.9,4.8,1.9,6.6c0,1.8,0.7,4.6,1.3,6.8
	c0.5,2.2,2.8,13.6,4.7,16.2C101.5,286.9,101.9,290.4,99.1,293.4z"/>
<path id="XMLID_565_" class="st120" d="M110.3,293.9c-2.2-6.6-10.8-12.6-11.8-15.8c-0.5-1.7-1.5-5.3-2.3-8.5c-0.7,1.3-2,1.6-4.9,1.5
	c0,0-3.3,3.4-9.5,1.9c0,0-5.9,1.9-12-0.7c0,0-3.9,2-6.8-1.2c0,3.4,1,23.5,3.2,26c5.3,6.3,30.1,16.5,30.1,16.5
	C108.6,314.4,112.5,300.5,110.3,293.9z"/>
<path id="XMLID_574_" class="st121" d="M111.6,303.3c1.3-4,1-7.2,0.6-9c-0.6,0.1-1.2,0.3-1.7,0.4c0.3,1.2,0.8,3.8-0.5,7.7
	c-0.2,0.5,0.1,1.1,0.6,1.3l0,0C111.1,303.9,111.5,303.7,111.6,303.3z"/>
<path id="XMLID_579_" class="st11" d="M398.4,293.5c0,0-10.1-1.1-16.7-5.4c-6.6-4.3-23.7-15.4-40.5-3.4c-16.8,12-5.2,27.7,5.7,29.4
	c11,1.7,51,1.3,61.3-2.5C413,309.9,398.4,293.5,398.4,293.5z"/>
<path id="XMLID_576_" class="st119" d="M346.9,314.1c11,1.7,51,1.3,61.3-2.5c4.7-1.7-9.9-18.1-9.9-18.1s-10.1-1.1-16.7-5.4
	c-6.6-4.3-23.7-15.4-40.5-3.4C324.4,296.7,335.9,312.4,346.9,314.1z M350,282.1c10.4-3.4,16.9,1,25.1,5.2c5.3,2.7,9.6,4.3,12.8,5.4
	c1.9,0.6,2.8,3.7-3.9,4.7c-7.9,1.2-28.1-2.5-35.9-5.5C340.3,288.9,343.7,284.1,350,282.1z"/>
<path id="XMLID_575_" class="st11" d="M408.3,311.6c0,0,24.8-10.2,30.1-16.5c2.3-2.7,3.4-25.3,3.2-26.5c-0.5-3.3-5.9-5.9-7.6-4.6
	c0,0-3.7-12.1-8.2-15.3c-2.8-2-5.5-0.8-6.1,1c0,0-2.7-1.3-4.5,2.2c0,0-2.3-1.1-3.9,1.7c-1.5,2.8-1,6-1.5,7.9
	c-0.5,2-2.7,11.3-3.7,14.5c-1,3.2-9.6,9.3-11.8,15.8C392.2,298.5,396,312.4,408.3,311.6z"/>
<path id="XMLID_561_" class="st119" d="M408.3,311.6c0,0,24.8-10.2,30.1-16.5c2.3-2.7,3.4-25.3,3.2-26.5c-0.5-3.3-5.9-5.9-7.6-4.6
	c0,0-3.7-12.1-8.2-15.3c-2.8-2-5.5-0.8-6.1,1c0,0-2.7-1.3-4.5,2.2c0,0-2.3-1.1-3.9,1.7c-1.5,2.8-1,6-1.5,7.9
	c-0.5,2-2.7,11.3-3.7,14.5c-1,3.2-9.6,9.3-11.8,15.8C392.2,298.5,396,312.4,408.3,311.6z M405.1,282.3c1.9-2.6,4.1-14,4.7-16.2
	c0.5-2.2,1.3-5,1.3-6.8c0-1.8,0.5-5.7,1.9-6.6c2.1-1.4,0.6,13.5,0.2,16.6c-0.4,3.1-2.1,11.7-2.4,14.1c-0.2,2.3,1.4,1.7,2-0.6
	c0.6-2.3,2.5-11.9,2.5-13.4c0-1.5-0.3-14.3,0.5-16.2s1.9-3.5,3.7-2.7c0,0,0.5,6.8,1.2,9c0.7,2.2,1.8,8.3,1.7,12.6
	c-0.1,4.3-1.4,9.9-1.6,12.1c-0.2,2.3,1.2,2.1,1.8-0.1c0.6-2.2,2-9.9,2-12.3c0-2.4-2.1-10.8-2.7-13c-0.6-2.2-2.5-8-0.1-9.7
	c2.4-1.7,5.3,0.9,7.2,4.6c1.9,3.6,4.3,10.2,4.8,12.5c0.6,2.4-1.7,15.2-2.3,17.8c-0.6,2.6,0.8,3.4,1.6,0.6c0.7-2.7,2.6-13.7,2.6-15.3
	c0-1.6-0.2-3.7-0.4-4.5c0,0,4.5,0.2,5.9,4.1c0,0-1.4,23-3,24.9c-1.6,1.9-5.4,5-8.6,4.9c-3.1,0-21.1-4.5-23.9-7.5
	C402.8,288.4,403.2,284.9,405.1,282.3z"/>
<path id="XMLID_560_" class="st120" d="M394.4,291.9c2.2-6.6,10.8-12.6,11.8-15.8c0.5-1.7,1.5-5.3,2.3-8.5c0.7,1.3,2,1.6,4.9,1.5
	c0,0,3.3,3.4,9.5,1.9c0,0,5.9,1.9,12-0.7c0,0,3.9,2,6.8-1.2c0,3.4-1,23.5-3.2,26c-5.3,6.3-30.1,16.5-30.1,16.5
	C396,312.4,392.2,298.5,394.4,291.9z"/>
<path id="XMLID_559_" class="st121" d="M393,301.3c-1.3-4-1-7.2-0.6-9c0.6,0.1,1.2,0.3,1.7,0.4c-0.3,1.2-0.8,3.8,0.5,7.7
	c0.2,0.5-0.1,1.1-0.6,1.3l0,0C393.6,301.9,393.2,301.7,393,301.3z"/>
<path id="XMLID_556_" class="st122" d="M64.4,271.1c0,0,2.7-3.9,4-3.3c0.5,0.2,0,2.8,0.3,4.1C69,272.8,64.8,272,64.4,271.1z"/>
<path id="XMLID_558_" class="st122" d="M72.2,270.8c0,0-0.2-1.9,0.2-4.3s3.8-10.9,5.6-13s4.6-3.4,4.7,0.4s-2.9,13.1-3.5,16.4
	S72.6,272.5,72.2,270.8z"/>
<path id="XMLID_580_" class="st122" d="M85.7,253.4c-0.1,0.1-0.2,3.8-0.9,7c-0.7,3.3-1.9,8.2-1.8,10.3c0.1,2.1,5.5,1.7,5.9,0
	c0.3-1.7,0.3-12.1-0.3-14.7C88,253.4,86,253.2,85.7,253.4z"/>
<path id="XMLID_581_" class="st123" d="M91.4,256.4c0,0-0.3,4.9,0,8.8s0.9,5.7,2.2,5.3c1.3-0.5,0.4-4,0-6.3
	c-0.4-2.3-0.8-7.6-1.5-8.2C91.4,255.5,91.4,256.4,91.4,256.4z"/>
<path id="XMLID_585_" class="st122" d="M440.6,269.1c0,0-3-3.8-4.3-3.2c-0.5,0.2,0.3,2.7,0,4C436,270.8,440.2,270,440.6,269.1z"/>
<path id="XMLID_584_" class="st122" d="M432.8,268.8c0,0-0.1-1.9-0.6-4.3s-3.8-11-5.7-13.1c-1.9-2.1-4.5-3.2-4.6,0.6
	s3.2,13,3.8,16.3S432.4,270.5,432.8,268.8z"/>
<path id="XMLID_583_" class="st122" d="M419,251.2c0.1,0.1,0.3,4.1,0.9,7.4c0.7,3.3,1.8,8,1.8,10.1c-0.1,2.1-5.2,1.6-5.5-0.1
	c-0.3-1.7-0.5-12.3,0.1-14.9C416.9,251.2,418.6,251,419,251.2z"/>
<path id="XMLID_582_" class="st123" d="M413.5,254.6c0,0,0,4.7-0.3,8.7c-0.3,4-0.4,5.7-1.7,5.2c-1.3-0.5-0.4-4,0-6.3
	c0.4-2.3,0.4-7.5,1.1-8C413.2,253.6,413.5,254.6,413.5,254.6z"/>
<path id="XMLID_163_" class="st124" d="M177.7,407c0,0,1.2-18.4,14.5-15.8c9.6,1.8,11.2,5,11.2,5s-3.9,3.8-4.5,14.3
	C198.5,418.2,177.2,417.2,177.7,407z"/>
<path id="XMLID_164_" class="st125" d="M115.4,329.3c0,0,16-11.8,32.4-6.5c16.4,5.3,64.2,49.4,86.1,60.3c0,0-3.4,8.7-6,9.3
	s-37.2-13.7-50.2-15.8C164.7,374.5,125.1,345,115.4,329.3z"/>
<path id="XMLID_165_" class="st125" d="M252.5,385.6c0,0-3,10.3,3.5,20.4c0,0,117.8-63.2,128.1-83.9c0,0-23.1-1.2-36.8-3.5
	c0,0-38,27.5-62.8,47.9C260.2,386.6,252.5,385.6,252.5,385.6z"/>
</svg>
