<?xml version="1.0" encoding="utf-8"?>
<!-- Generator: Adobe Illustrator 21.0.2, SVG Export Plug-In . SVG Version: 6.00 Build 0)  -->
<svg version="1.1" id="Layer_1" xmlns="http://www.w3.org/2000/svg" xmlns:xlink="http://www.w3.org/1999/xlink" x="0px" y="0px"
	 viewBox="0 0 1200 1200" style="enable-background:new 0 0 1200 1200;" xml:space="preserve">
<style type="text/css">
	.st0{fill:url(#SVGID_1_);}
	.st1{fill:url(#SVGID_2_);}
	.st2{fill:url(#SVGID_3_);}
	.st3{fill:url(#SVGID_4_);}
	.st4{fill:url(#SVGID_5_);}
	.st5{fill:#363B42;}
	.st6{fill:url(#SVGID_6_);}
	.st7{fill:url(#SVGID_7_);}
	.st8{fill:#E4A985;}
	.st9{fill:url(#SVGID_8_);}
	.st10{opacity:0.4;fill:#AA6D4F;}
	.st11{fill:url(#SVGID_9_);}
	.st12{opacity:0.5;fill:#D29571;}
	.st13{fill:url(#SVGID_10_);}
	.st14{fill:url(#SVGID_11_);}
	.st15{fill:url(#SVGID_12_);}
	.st16{fill:url(#SVGID_13_);}
	.st17{fill:url(#SVGID_14_);}
	.st18{fill:url(#SVGID_15_);}
	.st19{fill:url(#SVGID_16_);}
	.st20{fill:url(#SVGID_17_);}
	.st21{fill:#F4C29D;}
	.st22{fill:url(#SVGID_18_);}
	.st23{fill:#D29571;}
	.st24{fill:#6194BE;}
	.st25{display:none;fill:#598FB5;}
	.st26{display:none;opacity:0.6;fill:#69A2D1;}
	.st27{display:none;fill:#5289AA;}
	.st28{fill:url(#SVGID_19_);}
	.st29{fill:url(#SVGID_20_);}
	.st30{fill:url(#SVGID_21_);}
	.st31{fill:url(#SVGID_22_);}
	.st32{fill:url(#SVGID_23_);}
	.st33{fill:#DCA07C;}
	.st34{opacity:0.4;fill:#DCA07C;}
	.st35{fill:url(#SVGID_24_);}
	.st36{fill:#C68C6F;}
	.st37{fill:url(#SVGID_25_);}
	.st38{fill:url(#SVGID_26_);}
	.st39{fill:url(#SVGID_27_);}
	.st40{fill:url(#SVGID_28_);}
	.st41{fill:#F0B794;}
	.st42{fill:#BF876B;}
	.st43{fill:url(#SVGID_29_);}
	.st44{fill:url(#SVGID_30_);}
	.st45{fill:url(#SVGID_31_);}
	.st46{fill:url(#SVGID_32_);}
	.st47{fill:url(#SVGID_33_);}
	.st48{fill:#E5B893;}
	.st49{fill:url(#SVGID_34_);}
	.st50{fill:url(#SVGID_35_);}
	.st51{fill:url(#SVGID_36_);}
	.st52{fill:url(#SVGID_37_);}
	.st53{fill:url(#SVGID_38_);}
	.st54{fill:url(#SVGID_39_);}
	.st55{fill:url(#SVGID_40_);}
	.st56{fill:url(#SVGID_41_);}
	.st57{fill:url(#SVGID_42_);}
	.st58{fill:url(#SVGID_43_);}
	.st59{fill:url(#SVGID_44_);}
	.st60{fill:url(#SVGID_45_);}
	.st61{fill:url(#SVGID_46_);}
	.st62{fill:#D87F71;}
	.st63{fill:#ED917C;}
	.st64{fill:#EFA08E;}
	.st65{fill:#FFC4B5;}
</style>
<g>
	
		<linearGradient id="SVGID_1_" gradientUnits="userSpaceOnUse" x1="600.7833" y1="235.5132" x2="607.8449" y2="521.8151" gradientTransform="matrix(0.9886 0.1509 -0.1509 0.9886 85.3597 -185.2548)">
		<stop  offset="0" style="stop-color:#874238"/>
		<stop  offset="8.363384e-02" style="stop-color:#7B3C32"/>
		<stop  offset="0.29" style="stop-color:#622F26"/>
		<stop  offset="0.5056" style="stop-color:#50261D"/>
		<stop  offset="0.7347" style="stop-color:#452118"/>
		<stop  offset="1" style="stop-color:#421F16"/>
	</linearGradient>
	<path class="st0" d="M782.1,341.1c4.3-56.7-7.5-130.2-53-169.3c-28.2-24.2-98.4-24.3-98.4-24.3C431.9,135.8,399.2,472.2,535,521.8
		c11.5,1.6,117.5,62.4,143.6,66.6c-11.2-17.3,23.5-63.6,51.7-100.9C754.3,455.7,777.5,401.7,782.1,341.1z"/>
	
		<linearGradient id="SVGID_2_" gradientUnits="userSpaceOnUse" x1="529.2299" y1="451.1816" x2="518.044" y2="242.3864" gradientTransform="matrix(0.9969 -7.848600e-02 7.848600e-02 0.9969 -8.0939 164.1361)">
		<stop  offset="0" style="stop-color:#874238"/>
		<stop  offset="0.1242" style="stop-color:#71372D"/>
		<stop  offset="0.2813" style="stop-color:#5C2C23"/>
		<stop  offset="0.4581" style="stop-color:#4D251C"/>
		<stop  offset="0.6685" style="stop-color:#452017"/>
		<stop  offset="1" style="stop-color:#421F16"/>
	</linearGradient>
	<path class="st1" d="M541.9,247.9c0,0-152.8,121.9,32.3,323.7l25.8-23.9c0,0-87.5-112.9-61.4-175.5
		C557.1,327.6,540.2,298.4,541.9,247.9z"/>
	
		<linearGradient id="SVGID_3_" gradientUnits="userSpaceOnUse" x1="723.1154" y1="816.6631" x2="702.5604" y2="387.2939" gradientTransform="matrix(0.9886 0.1509 -0.1509 0.9886 85.3598 -185.2548)">
		<stop  offset="0" style="stop-color:#874238"/>
		<stop  offset="8.363384e-02" style="stop-color:#7B3C32"/>
		<stop  offset="0.29" style="stop-color:#622F26"/>
		<stop  offset="0.5056" style="stop-color:#50261D"/>
		<stop  offset="0.7347" style="stop-color:#452118"/>
		<stop  offset="1" style="stop-color:#421F16"/>
	</linearGradient>
	<path class="st2" d="M629.7,606.3c25.8-4.3,69.7-6.8,95.7-9.7c58.5-86.1,70.4-239.7,43.3-283.6c-99-160.5-101.8-123-101.8-123
		c-21.9,74.4-12.8,124.8,15.7,167.1C717.5,408.9,665.2,534.1,629.7,606.3z"/>
	<linearGradient id="SVGID_4_" gradientUnits="userSpaceOnUse" x1="473.9185" y1="969.1118" x2="780.3691" y2="969.1118">
		<stop  offset="0" style="stop-color:#31363E"/>
		<stop  offset="1" style="stop-color:#363B42"/>
	</linearGradient>
	<path class="st3" d="M493.8,881.5c0,0,81.9,45.9,259.1-0.5l15.2,32.5l12.2,50.8l-89.5,91.1l-96.1,1.7l-120.9-116
		C473.9,941.2,480.5,909.7,493.8,881.5z"/>
	<linearGradient id="SVGID_5_" gradientUnits="userSpaceOnUse" x1="473.2109" y1="979.5376" x2="771.9277" y2="979.5376">
		<stop  offset="0.1135" style="stop-color:#2D3338"/>
		<stop  offset="0.8189" style="stop-color:#2D3338"/>
		<stop  offset="1" style="stop-color:#363B42"/>
	</linearGradient>
	<path class="st4" d="M475.4,935.9l-2.2,8.4l118.6,86.7l67.1,1.1l113-93.4l-2.8-11.7c0,0-54.3,6.7-121.4,44.8
		c-8.7,4.9-31.9,23.5-63.8,6.7C496.7,932.5,475.4,935.9,475.4,935.9z"/>
	<path class="st5" d="M478.8,938.1c0,0,126.4,49.2,129.3,104.1c0,0-224.4,37.1-351.9-73.9c0,0-25.6-48.9,14-80.2
		c32.6-25.7,76.4-5.8,101.2,4.1C396.3,902.2,478.8,938.1,478.8,938.1z"/>
	<linearGradient id="SVGID_6_" gradientUnits="userSpaceOnUse" x1="741.6567" y1="1000.1489" x2="510.3932" y2="1000.1489">
		<stop  offset="0.1135" style="stop-color:#2D3338"/>
		<stop  offset="0.8189" style="stop-color:#2D3338"/>
		<stop  offset="1" style="stop-color:#363B42"/>
	</linearGradient>
	<path class="st6" d="M500.6,967.8l73.3,63.2c0,0,38.2,6.6,29.6-7.8c-2.4-4.1-6.2-8.6-9.9-12.7C550.8,984.4,500.6,967.8,500.6,967.8
		z"/>
	<linearGradient id="SVGID_7_" gradientUnits="userSpaceOnUse" x1="477.4409" y1="925.5134" x2="772.418" y2="925.5134">
		<stop  offset="0.1135" style="stop-color:#2D3338"/>
		<stop  offset="0.8189" style="stop-color:#2D3338"/>
		<stop  offset="1" style="stop-color:#363B42"/>
	</linearGradient>
	<path class="st7" d="M482.2,909.6l-4.7,17.4c0,0,94.2,31.7,295,1l-3.9-14.1C768.5,913.9,552.6,919.7,482.2,909.6z"/>
	<path class="st8" d="M626.2,1021.8l27.1,49.5c0,0-89.3,7-91.8,9.8c-2.5,2.8-42.2,10.4-47.5,11.5c-15.7,3.1-54.3,10.3-74.4,10.1
		c-17.7-0.2-31.6,2.3-33.1,1.8c-9.5-3-3.7-9-3.7-9s-12.3-4.7-4.1-13.8c0,0-14.6-13.9,4.4-26.6c19-12.7,95.4-23.8,111.3-25.5
		C530.2,1027.8,626.2,1021.8,626.2,1021.8z"/>
	<polygon class="st8" points="572.4,1025 613.4,1022.6 622.9,1059.3 	"/>
	<linearGradient id="SVGID_8_" gradientUnits="userSpaceOnUse" x1="625.323" y1="984.0397" x2="968.5031" y2="984.0397">
		<stop  offset="0" style="stop-color:#363B42"/>
		<stop  offset="0.9946" style="stop-color:#31363E"/>
	</linearGradient>
	<path class="st9" d="M625.3,1037.3c0,0-2.8-51.6,111.5-99.4c38-15.9,115.8-43.7,127.8-48c24.9-8.8,57.2-14.7,65-14
		c7.8,0.7,58.6,77.1,30.5,101.4c-28.2,24.3-121.2,79.3-137.2,86c-21.7,9.2-115.9,33.6-141.1,27.8
		C656.4,1085.5,625.3,1037.3,625.3,1037.3z"/>
	<polygon class="st10" points="607.8,1023 631.3,1020.9 647.4,1063.8 630.2,1073.1 	"/>
	<path class="st5" d="M921.3,892.3c52-7.3,69.9,34.1,49.8,75c-6.8,13.9-83.5,46.2-97.3,52c-13.9,5.8-103.5,28.8-115.2,28
		c-11.7-0.8-120.8,29.6-120.8,29.6l-24.3-54.6c0,0,41.5-10.3,87.5-44.4c12.4-9.2,53.7-34.8,72.7-42
		C792.6,928.8,887.4,897,921.3,892.3z"/>
	<linearGradient id="SVGID_9_" gradientUnits="userSpaceOnUse" x1="376.0773" y1="1143.59" x2="898.314" y2="992.4749">
		<stop  offset="0" style="stop-color:#31363E"/>
		<stop  offset="1" style="stop-color:#363B42"/>
	</linearGradient>
	<path class="st11" d="M624.5,1047.2c0,0,4.4,10.5,8.8,24.1c106.8-16.8,148.8-22.1,171-27.4c51.5-12.3,133.4-50.2,159.8-69.6
		C964.2,974.3,772.2,1052.8,624.5,1047.2z"/>
	<path class="st8" d="M610.1,1047.2c0,0,35.8,9.5,44.2,10.1s18.5-1.1,35.6,1.3c5.5,0.8,18.3,8.2,37.3,9.3
		c22.7,1.3,44.6-7.5,58.5,1.5c18.5,11.9,7.2,7.5,18.5,8c12.3,0.6,21,8.1,30.7,22.7c9.5,14.3-0.6,21-0.6,21s2.9,5.6-4.9,8.4
		c0,0,5,10-15.1,7c-15.2-2.2-32.6-6-32.6-6l-109.4-1.7l-31.4-7.1l-58.8-14.6L610.1,1047.2z"/>
	<path class="st8" d="M812.9,525.4c-8.4-6.7-50.3-16.8-77.2-25.2c-16.8-5.2-50.5-10.7-57.8-23c-5.8-9.9-6.2-17.5-9.5-36.4
		c-5.3-30.3,5.2-58.1,5.2-58.1l-48.7-3.4l-0.2,10l-0.2-10l-48.7,3.4c0,0,1.6,25.8,3.4,56.6c1.1,19-1,29.1-7.1,36.2
		c-12.7,14.7-40.3,19.1-58.4,24.7c-26.8,8.4-68.8,18.5-77.2,25.2c-8.4,6.7-21.8,40.3-20.1,82.2c1.7,42,13.4,73.8,13.4,90.6
		c0,16.8-8.4,97.3-8.4,97.3s42,67.1,47,67.1s18.5-18.5,18.5-28.5c0-10.1,3.4-78.9,3.4-92.3c0-13.4-5-68.8,0-83.9
		c5-15.1,16.8,50.3,16.8,50.3l117.7-7.9l117.7,7.9c0,0,11.7-65.4,16.8-50.3c5,15.1,0,70.5,0,83.9c0,13.4,3.4,82.2,3.4,92.3
		c0,10.1,14.5,27.6,19.6,27.6c5,0,45.9-66.2,45.9-66.2s-8.4-80.5-8.4-97.3c0-16.8,11.7-48.7,13.4-90.6
		C834.7,565.7,821.3,532.1,812.9,525.4z"/>
	<path class="st12" d="M617.5,535.9c0,0,6.2-10.8,26.9-6.6C644.4,529.3,623.1,531.7,617.5,535.9z"/>
	<path class="st8" d="M422.1,796.2c13.4-3,29.5,10.8,34.8,20.5c5.2,9.7,23.1,40.3,7.5,48.5c-15.7,8.2-58.2,12.7-76.1,13.4
		c-17.9,0.7-82.8-3-86.5-3c-3.7,0-23.2-31.7-23.2-31.7s32.4-7.3,73.9-20.5C399.4,808.5,422.1,796.2,422.1,796.2z"/>
	<path class="st8" d="M827.2,795.9c-13.4-3-30.6,11.2-35.8,20.9c-5.2,9.7-22.9,39.6-7.3,47.8c15.7,8.2,58.9,11.1,76.8,11.8
		c17.9,0.7,81.9-0.7,85.6-0.7c3.7,0,23.2-31.7,23.2-31.7s-32.5-7.3-73.9-20.5C848.8,808.5,827.2,795.9,827.2,795.9z"/>
	<linearGradient id="SVGID_10_" gradientUnits="userSpaceOnUse" x1="694.6976" y1="337.5471" x2="635.1752" y2="511.4464">
		<stop  offset="0" style="stop-color:#DA9F7C"/>
		<stop  offset="1" style="stop-color:#E4A985"/>
	</linearGradient>
	<path class="st13" d="M577.1,402.8l2.4,39.3c0,0,21.2,22.9,64.9,34.6c16.8,4.5,8.1,32.2,3.9,38.3c5.9-0.3,43.5-7.7,82-10.5
		c6.3-1.4,2.3-5.1-1.7-6.3c-3.9-1.1-30.9-6.7-47.1-19.3c-8.4-6.5-11.1-56.5-11.1-61L577.1,402.8z"/>
	<path class="st8" d="M617.9,599.8c150.1-1.8,147.7,60.8,35.3,77.4C540.8,693.9,423.7,602.2,617.9,599.8z"/>
	<path class="st8" d="M638.8,642.4c0,0-6-41,20.7-59.9c15.6-11-86.7-13.3-68.2-0.6c25.2,17.3,30.8,43.6,27.4,59.3L638.8,642.4z"/>
	<linearGradient id="SVGID_11_" gradientUnits="userSpaceOnUse" x1="628.2911" y1="640.6934" x2="624.3395" y2="443.1235">
		<stop  offset="0" style="stop-color:#DA9F7C"/>
		<stop  offset="1" style="stop-color:#E4A985"/>
	</linearGradient>
	<path class="st14" d="M515,499.6l10.5-3.1c0,0-3,60.7,5.4,86.4c8.4,25.7,20.1,43.6,56.5,49.8c36.4,6.2,83.9,6.2,116.4-15.1
		c32.4-21.3,19.5-120.7,19.5-120.7l9.2,2.4c0,0,18.8,95.3-19.8,124.4c-38.6,29.1-134.3,25.2-163.3,8.4
		C520.3,615.4,515,562.3,515,499.6z"/>
	<path class="st12" d="M614.7,525.7c0,0-5.2-13.5-12.5-15.3c-7.3-1.8-87.7-4.5-97.1-6.3c0,0,35.8,7.8,56.5,10.2
		C582.3,516.7,598.5,513.1,614.7,525.7z"/>
	<linearGradient id="SVGID_12_" gradientUnits="userSpaceOnUse" x1="765.4115" y1="685.8994" x2="760.557" y2="443.1808">
		<stop  offset="0" style="stop-color:#DA9F7C"/>
		<stop  offset="1" style="stop-color:#E4A985"/>
	</linearGradient>
	<path class="st15" d="M756.8,506.4l6.7,1.9c0,0,3.4,91.9,6.2,140c1.1,19-8.4,43.1-8.4,43.1L756.8,506.4z"/>
	<linearGradient id="SVGID_13_" gradientUnits="userSpaceOnUse" x1="488.8724" y1="673.4648" x2="484.3488" y2="447.2885">
		<stop  offset="0" style="stop-color:#DA9F7C"/>
		<stop  offset="1" style="stop-color:#E4A985"/>
	</linearGradient>
	<path class="st16" d="M493.3,506l-5.6,172.6c0,0-7.8-17.9-7.3-37.5c0.8-29.1,4.8-132.8,4.8-132.8L493.3,506z"/>
	<linearGradient id="SVGID_14_" gradientUnits="userSpaceOnUse" x1="481.1432" y1="630.5908" x2="488.4017" y2="767.6942">
		<stop  offset="0" style="stop-color:#DA9F7C"/>
		<stop  offset="1" style="stop-color:#E4A985"/>
	</linearGradient>
	<path class="st17" d="M489.1,776.9c0,0,1.4-31.7,1.4-36.2c0-2.8-2.3-35.7-2.3-58.5c0-13.5-2.1-24.3-2.1-24.3l-7.5-29.8
		c0,0,1.5,84.3,3,92.5C483.1,728.7,489.1,776.9,489.1,776.9z"/>
	
		<linearGradient id="SVGID_15_" gradientUnits="userSpaceOnUse" x1="225.0271" y1="633.5518" x2="232.3501" y2="771.8742" gradientTransform="matrix(-1 0 0 1 992.6689 0)">
		<stop  offset="0" style="stop-color:#DA9F7C"/>
		<stop  offset="1" style="stop-color:#E4A985"/>
	</linearGradient>
	<path class="st18" d="M760.6,781.2c0,0-1.6-35.2-1.6-39.7c0-4.5,2.9-79.8,2.9-79.8L771,631c0,0-3,90.2-4.5,98.5
		C765,737.7,760.6,781.2,760.6,781.2z"/>
	<path class="st12" d="M759.8,622.8c0,0,20.1-18.6,20.1-15.7c0,12.5-17.9,74.6-17.9,74.6L759.8,622.8z"/>
	<path class="st12" d="M639.4,524.5c0,0,5-10.4,14-13.4c9-3,76.6-7.7,88.9-6.5C742.3,504.7,656.7,513.7,639.4,524.5z"/>
	<path class="st12" d="M488.3,616.9c0,0-17.9-25.4-17.4-18.6c0.9,12.5,16.4,73.8,16.4,73.8L488.3,616.9z"/>
	<path class="st8" d="M766.6,509.2c0,0,41.5,9.5,47.3,16.6c5.8,7.2,12.3,17.9,16.7,44.8C830.7,570.6,792,518.2,766.6,509.2z"/>
	<linearGradient id="SVGID_16_" gradientUnits="userSpaceOnUse" x1="811.9598" y1="691.9844" x2="816.2113" y2="803.5895">
		<stop  offset="0" style="stop-color:#DB9F7B"/>
		<stop  offset="1" style="stop-color:#E4A985"/>
	</linearGradient>
	<path class="st19" d="M819.8,693.9c1.4,23.4,8.7,101.7,8.7,101.7l-24.6,11.2C803.8,806.8,816.4,724.7,819.8,693.9z"/>
	<path class="st8" d="M803.8,806.7l24.6-10.2c0,0,77.7,34,142,47.4C970.4,843.9,864.2,835.8,803.8,806.7z"/>
	<linearGradient id="SVGID_17_" gradientUnits="userSpaceOnUse" x1="629.5121" y1="647.9933" x2="625.0273" y2="606.1343">
		<stop  offset="0" style="stop-color:#D49A78"/>
		<stop  offset="0.7184" style="stop-color:#DEA480"/>
		<stop  offset="1" style="stop-color:#E4A985"/>
	</linearGradient>
	<path class="st20" d="M620.4,650.2c0,0,0.7-10.5,1.7-21.2c1.1-10.8,3.8-21.5,7.2-21.6c1.9-0.1,4.7,10.6,6.3,23.1
		c0.8,5.9,1.7,12.3,3.2,18.1L620.4,650.2z"/>
	<path class="st21" d="M408.2,1095.1c0,0,0,7.3-0.5,7.3c-0.5,0-6.3-0.8-6.7-1.7c-0.4-0.9,0.4-3.5,1.4-4.8
		C403.4,1094.6,408.2,1095.1,408.2,1095.1z"/>
	<linearGradient id="SVGID_18_" gradientUnits="userSpaceOnUse" x1="359.2183" y1="1066.5536" x2="763.099" y2="961.3881">
		<stop  offset="0.1135" style="stop-color:#2D3338"/>
		<stop  offset="0.8189" style="stop-color:#2D3338"/>
		<stop  offset="1" style="stop-color:#363B42"/>
	</linearGradient>
	<path class="st22" d="M679.8,995.6l-54.4,23.1c0,0,17.8-24.4,35.7-37.2c0,0,87.3-38.8,96.3-40L679.8,995.6z"/>
	<path class="st23" d="M407.6,1052.8c0,0-10.6,4.7-13.4,13.6c0,0,10.6-10.1,19-11.4L407.6,1052.8z"/>
	<path class="st23" d="M401.1,1100.6c0,0,0.5,4,5.8,4.6c1.6,0.2,15.7,0.8,30.6-1.2c20.1,3.1,59.2-4.8,63-5.5
		c5.6-1.1,33.2-8.2,33.2-8.2l-26.9-9.3c0,0-11.6,11.6-37.7,14.9C424.3,1101.7,410,1103.9,401.1,1100.6z"/>
	<polygon class="st10" points="404.1,1054.8 413.2,1048.9 546.2,1087.2 519.9,1093.8 	"/>
	<polygon class="st10" points="610.1,1047.1 618,1049.3 604.6,1112.7 594.8,1110.3 	"/>
	<g>
		<path class="st24" d="M520.8,497.9c0,0-4.6,75.4,12.2,107.4c24.6,47,172.3,53.3,191.7-9.3c12.1-39.2,2.8-98,2.8-98
			s5.2,1.4,9.4,2.6c4.2,1.2,22.1,6.5,22.1,6.5s6.8,120.4,5.7,154.7c-15.9,74-20.1,139.4-19.7,153.6c1.1,38.8,21.5,84.5,25.2,104.2
			c-35.7,14.5-223.3,24.5-290.5-1.2c5-24.9,26.8-73.1,27.4-100.1c1.5-60.4-21-127-21.1-160.5c0-12,3.4-150.8,3.4-150.8L520.8,497.9z
			"/>
		<path class="st25" d="M763.4,597.4c-8.2,66.4-9.8,101.3-56.6,101.5c-33.3,0.1-52.2-4.1-77.6-4.1c-21.7,0-42,10.1-88.8,3.7
			c-54.2-7.4-53.1-104.7-53.1-104.7s-1.6,46.4-1.1,70.2c0.4,22.4,12.7,76.4,14.4,83.4c5.6,20.1,13.2,59.9,11.7,68.1
			c-4.2,23.2-20.3,73.6-32.6,103c12,5.7,35.8,9,35.8,9s-2.2-87.8,13-142c15.7-55.9,115-49.3,163.4,14.1
			c28.5,50.3-1.2,106-10.1,132.9c0,0,67.1-3.8,88.3-12.7c-36.3-84.9-41.3-110.1-41.3-110.1c3.7-15.7,18.2-50.6,21.2-63.3
			c4.6-19.5,15.6-88.4,15.6-88.4L763.4,597.4z"/>
		<path class="st26" d="M528.9,595.2c0,0,9.4,28.4,45.2,38.1c35.8,9.7,130.6,20.2,150.8-37.4c36.4,22.4,37.1,106.3-53.2,89.1
			c-78.3-14.9-135.5,20.8-160.4-26.1C494.8,627.9,516.2,602.6,528.9,595.2z"/>
		<path class="st27" d="M574.6,727.8c-49.1,4,43.1-17.7,57.2-16.2c14.2,1.5,40.5,10.3,59.1,15.5
			C719.7,735.1,665.6,720.3,574.6,727.8z"/>
		<path class="st26" d="M658.5,826.1c12.8,35.9,25,98.3-42.7,95.4c-65.5-2.8-54.7-68.3-51.2-85.4C584,741.1,645.7,790.2,658.5,826.1
			z"/>
	</g>
	<path class="st5" d="M285.8,888.6c16.8-5,81.8,21.4,101.8,26.9c20,5.4,206.5,124.9,224.8,128.6l-14.8,68.5
		c0,0-223.5-71.5-233.5-76.7c-10-5.2-118.1-45.9-124-88C234.3,905.9,258.3,896.9,285.8,888.6z"/>
	<path class="st5" d="M383,896.9c0,0-67.7-35.4-97.9-22c-30.2,13.4-55.8,47.5-47.9,72.2C245,971.7,271,987,271,987
		s5.3-48.8,24.4-63.4C314.3,909.1,353.9,893.6,383,896.9z"/>
	
		<linearGradient id="SVGID_19_" gradientUnits="userSpaceOnUse" x1="923.613" y1="881.4193" x2="607.5828" y2="1014.9533" gradientTransform="matrix(0.9986 -5.372300e-02 5.372300e-02 0.9986 -49.3525 43.1252)">
		<stop  offset="0" style="stop-color:#31363E"/>
		<stop  offset="1" style="stop-color:#363B42"/>
	</linearGradient>
	<path class="st28" d="M633.1,1014.5c12.4-4.9,50.9-31.4,64.4-40c32.4-20.6,51.2-39.6,107.8-56c47.4-13.8,90.2-21.5,93.9-21.7
		c0,0-70.3,26.8-98.4,41.4c-61,31.7-180.6,98-180.6,98l-6.7-14C613.4,1022.2,621.2,1019.2,633.1,1014.5z"/>
	<linearGradient id="SVGID_20_" gradientUnits="userSpaceOnUse" x1="318.8179" y1="981.7656" x2="612.4707" y2="981.7656">
		<stop  offset="0" style="stop-color:#363B42"/>
		<stop  offset="0.9946" style="stop-color:#31363E"/>
	</linearGradient>
	<path class="st29" d="M318.8,893.4c0,0,79.4,21.3,95.1,27.2c15.7,6,60.4,27.2,83.9,42.1c33.6,21.3,39.5,40.7,114.6,81.3l-5.6,26.1
		c0,0-48.2-33.9-128-92.8C430.8,941.8,318.8,893.4,318.8,893.4z"/>
	<path class="st5" d="M836.5,899.6c0,0,78-33.7,93.6-28.1c15.7,5.6,36.6,10.8,45.2,35.6c8.5,24.8,6,51.3-6.1,62.6
		c1.3-15.1,0.1-35.5-12.2-47.8C944.7,909.5,911.5,885.1,836.5,899.6z"/>
	<linearGradient id="SVGID_21_" gradientUnits="userSpaceOnUse" x1="304.431" y1="868.4475" x2="497.6584" y2="819.0174">
		<stop  offset="0" style="stop-color:#DB9F7B"/>
		<stop  offset="1" style="stop-color:#E4A985"/>
	</linearGradient>
	<path class="st30" d="M489,781c0,0-1.2,51.8-2.1,57.5c-0.9,5.7-11.2,22.7-19.5,27.4c-5.6,3.2-61.1,20.7-164.3,10.6
		c0,0,1.3-5.3,0.1-10.9c49.2,1.1,155.2-14.3,161.5-21C476.8,832,479.3,826.5,489,781z"/>
	<linearGradient id="SVGID_22_" gradientUnits="userSpaceOnUse" x1="947.579" y1="889.8906" x2="713.8063" y2="801.4512">
		<stop  offset="0" style="stop-color:#DB9F7B"/>
		<stop  offset="1" style="stop-color:#E4A985"/>
	</linearGradient>
	<path class="st31" d="M776.2,842.1c-12.9-12-15.7-61.3-15.7-61.3s1.5,53.8,1.5,56c0,2,7.1,20.8,16.5,26.9c9.4,6,38.2,9.3,60.6,12.1
		c47,6,105,0.3,105,0.3l0.1-8.5C896.1,873.4,784.2,849.6,776.2,842.1z"/>
	<linearGradient id="SVGID_23_" gradientUnits="userSpaceOnUse" x1="245.2925" y1="1037.8247" x2="602.2217" y2="1037.8247">
		<stop  offset="0" style="stop-color:#363B42"/>
		<stop  offset="0.9946" style="stop-color:#31363E"/>
	</linearGradient>
	<path class="st32" d="M245.3,963c0,0,7.3,15.9,50.3,42c33.3,20.1,115.4,50.8,188.2,73.8c61.8,19.5,114,33.8,114,33.8
		c0.8-3.3,4.5-21,4.5-21s-122.3-25.9-249.8-77.4C286,987.4,245.3,963,245.3,963z"/>
	<path class="st23" d="M626.3,1051.4c0,0,25.1,5.6,27.4,5.6c2.2,0,23.9-1,29.8-1c6,0,25.7,9.7,35.8,10.8c10.1,1.1,48.9-3,56.3-1.5
		c9.7,1.9,24,11.3,24,11.3c5.6,1.5,15.7-0.6,26.2,11.7c0,0-7.7-6.7-38.2-8.4c-4.7-0.3-27.3-8.8-48.9-7.3c-21.6,1.5-53,8.4-62.3,6.5
		c-9.3-1.9-15.2-16.5-26.8-18.7C638,1058.2,626.3,1051.4,626.3,1051.4z"/>
	<path class="st21" d="M825.6,1119.2c0,0,7.8-0.4,8.8,1.5c0.9,1.9,0.2,6-1.8,7.2c-2.1,1.1-8.8-0.6-8.8-0.6L825.6,1119.2z"/>
	<path class="st23" d="M614.1,1115c0,0,48.5,13,58,14.4c9.5,1.5,105,1.1,109.6,1.7c4.7,0.6,24.7,5.6,36.3,5.8
		c-21.5-6.1-27.5-11.6-36.1-13.1c-4.4-0.8-21,6.2-56.5,3.4c-25.5-2-52.7-6.1-54.8-6.2C665.4,1121,614.1,1115,614.1,1115z"/>
	<path class="st21" d="M823.6,1130.2l6.3,1.9c0,0,0,3-2.8,3.9c-2.9,0.9-6.1,0.1-6.1,0.1L823.6,1130.2z"/>
	<path class="st23" d="M816.7,1113.5c13.7,4.5,17,4.7,17.7,4.8c0,0,1.6,5.8-0.6,8.3c0,0-1.7-0.2-14.6-6.9
		c-8.1-4.2-34.4-11.2-34.1-13.7C785.4,1103.4,802.1,1108.7,816.7,1113.5z"/>
	<path class="st23" d="M832.4,1127.9c0,0-10.4-0.6-17.6-2.1c-11.5-2.4-30.5-7.3-31.6-5.9c-1.1,1.4,21,4.7,34.4,9
		c6,1.9,11.4,2.8,12.4,3.4c0,0,0.2-1.5-0.5-2.8C829.4,1129.5,831.1,1128.9,832.4,1127.9z"/>
	<path class="st21" d="M396.7,1085.6l5.1-1.2l1.3,8.8c0,0-4.8,0-5.9-1.3C396.5,1091,395.2,1088.7,396.7,1085.6z"/>
	<path class="st21" d="M816.4,1113c0,0,1.5-13.1,4.1-12.7c2.6,0.4,11.6,6.7,13,8.5c5.3,7,1.1,15.4-2.8,14.3
		C828.3,1122.3,816.4,1114.8,816.4,1113z"/>
	<path class="st23" d="M399,1082.1c0,0-2,2.3-2.3,3.5c0.7,0.4,36.7-7.8,39.3-8.2c2.6-0.4,0.6-3.1-9.2-1.4
		C417.2,1077.7,399,1082.1,399,1082.1z"/>
	<path class="st21" d="M408.3,1066.5c0,0,7.8,9.2,7,10.3c-2.3,3.4-12.3,7.5-14.7,6.5c-2.2-1-7.8-7.5-6.6-10.6
		C394.9,1070.6,403.7,1066.7,408.3,1066.5z"/>
	<path class="st23" d="M397.1,1091.8c0,0,2.6,3.7,6,4.1c3.3,0.4,29.9-3.1,31.8-4.2c1.9-1.1-12-0.3-18.5,0.6
		C412.3,1092.8,402,1094.4,397.1,1091.8z"/>
	<g>
		<path class="st8" d="M208.5,909.2l-16.4,11.9l-17.9-1.5c0,0-16.4-17.2-20.9-11.2c-4.5,6,12.7,21.6,16.4,24.6c3.7,3,19.4,9,21.6,9
			c2.2,0,29.1-21.6,29.1-21.6L208.5,909.2z"/>
		<path class="st21" d="M150.2,909.7c2.8-2.8,8.1,2.5,12.1,9.9c1.8,3.4-1.2,5.3-1.2,5.3S153.3,917.7,150.2,909.7z"/>
		<polygon class="st33" points="184.1,920.5 197.2,938.3 201.6,934.9 188.5,920.7 		"/>
		<path class="st33" d="M162.8,926.7c0,0,3.7,3.9,7.9,7.5c1.3,1.1,18.6,8.2,20.6,7.8c2-0.4,10.4-6.5,10.4-6.5l-1.3-2.1
			c0,0-6.9,6.3-9.3,6C188.7,939.1,175.1,936,162.8,926.7z"/>
		<path class="st8" d="M214.5,849.6c-4.5,3-22.4,13.4-25.4,14.2c-3,0.7-17.2,9-20.9,10.4c-3.7,1.5,9,13.4,23.9,9
			c14.9-4.5,20.1-13.4,23.9-7.5c3.7,6,49-10.6,45.5-28.2C260,840.1,219,846.6,214.5,849.6z"/>
		<path class="st8" d="M301.2,853.7c0,0,8.7,14.5,2,25c-6.7,10.4-26.9,24.3-29.9,28.8c-3,4.5-2.2,22-2.9,26.4
			c-0.7,4.5-12.7,18.6-18.6,19.4c-6,0.7-23.7,1.2-26.1-5.6c-1.4-3.9,11.2-8.6,19.4-7.8l6-8.2v-12.7c0,0-16.4,2.2-20.9,0.7
			c-4.5-1.5-22.1-9.5-22.1-9.5s13.1-21.8,10.1-31.5l7.5-27.6c3-0.7,15.7-7.5,26.1-7.5c10.4,0,30.6-0.7,37.3,2.2
			C295.8,848.8,301.2,853.7,301.2,853.7z"/>
		<path class="st8" d="M208.1,910.2c0,0,15.2,2.5,19.2,6c0,0,27.3-30.1,29.8-39.3C257,876.9,213.4,897,208.1,910.2z"/>
		<path class="st8" d="M170.5,879c0,0,16,6.9,42.6-8.8c18.2-1.7,28.9,2,57.6-10.3c-7.8,11.2-17.1,19.9-36.6,29.9
			c-17.5,9-26.6,21.3-26.6,21.3s7.8-13.2,9.2-19.6c1.4-6.4,2-16.5-3.4-17.1c-0.8-0.1-1.7,0.1-2.7,0.4c-4,1.9-14.5,8.7-23,9.4
			C177.3,885,170.5,879,170.5,879z"/>
		<path class="st8" d="M214.5,909.2l12.7,7.5c0,0-14.9,16.4-23.9,16.4c-9,0-20.1-16.4-20.1-16.4s-23.1-29.1-18.6-36.5
			c4.5-7.5,19.4,7.5,22.4,16.4c0,0,10.4,7.5,12.7,15.7L214.5,909.2z"/>
		<path class="st33" d="M163.9,880.8c0,0,2.1-4.3,6.9-2.2c4.3,1.9,14.9,9.3,16.3,17.9c0,0,12.6,8.6,12.7,15.7c0,0,5.4-2.9,8.4-2
			c0,0,7.8-5.5,19.2,6c0,0-15.9-9.1-28.9-1.5c0,0-0.4-10.6-13.6-17c-2.8-5.6-4.1-14-16-17.5C167.4,879.7,163.9,880.8,163.9,880.8z"
			/>
		<path class="st8" d="M252.2,918.4c0,0-25.8,23.6-34.8,25.1c-8.9,1.5-17.2-6-20.1-9.7c-3-3.7-13.2-15.4-16.1-21.4
			c-3.7-7.7-6-11-1.7-13.8c1.5-1,3.8-0.7,6.4,1.2c11.6,8.5,15.1,16.9,15.1,16.9s11.9,3,15.7,7.5c0,0,4.5-3.7,8.2-9L252.2,918.4z"/>
		<path class="st21" d="M166.3,873.9c1.3,5,10.8,2.5,20.2-3.4c4.3-2.7,2.2-6.7,2.2-6.7S175,866.8,166.3,873.9z"/>
		<path class="st21" d="M162,879.8c3.5-2.4,8,4.3,10.7,13.1c1.2,4-2.4,5.4-2.4,5.4S163.6,888.9,162,879.8z"/>
		<path class="st33" d="M177.9,900.1c0,0,2.5-3.9,6.2-2.5c3.6,1.4,10.6,3.6,17,19.1c0,0,12.6,1.6,15.7,7.5c0,0,4.5-7.1,10.6-9.5
			c0,0,6.2-5,18.7,0c0,0-11.3-0.5-15.7,1.1c-6.7,2.5-12.3,8.1-12,14.8c0,0-5.3-11.5-17.9-11.7c0,0-3.6-8.7-9.5-13.4
			C186.1,901.5,181.8,896.2,177.9,900.1z"/>
		<path class="st21" d="M175.6,900.2c3.4-2.6,8.2,3.9,11.4,12.5c1.4,3.9-2.1,5.5-2.1,5.5S177.6,909.2,175.6,900.2z"/>
		<path class="st8" d="M200.3,858c0,0,9.2-7.1,14.4-8.9c20.9-7.5,48.2-5.5,48.2-5.5L200.3,858z"/>
		<path class="st33" d="M251.3,912.1c0,0-0.5,3.7-6.1,9.9c-3.4,3.8-22.6,17.6-25.8,19.2c-4.3,2-14.7-0.7-14.7-0.7s5.7,4,11.6,3.8
			c4.1-0.1,17.8-10.3,20.8-12.1c3.7-2.2,14.8-13.4,14.8-13.4L251.3,912.1z"/>
		<path class="st33" d="M251.3,910.2c0,0-1.1,19.1-0.3,21.4c0,0-5.6,6-6,8c0,0-8.8,0.2-13.8,2.2c-5.2,2.1-7.5,4.3-4.7,7.2
			c0,0-1.1-2.2,2.7-3.9c3.8-1.7,10.6-4.3,16.9-3.6c0,0,3.1-7.6,7.3-9.7C253.4,931.8,252.2,916.2,251.3,910.2z"/>
		<path class="st34" d="M230.5,912.5c0,0,24.3-33.4,36.6-47.9C267.1,864.6,260.7,895.7,230.5,912.5z"/>
		<path class="st12" d="M306.3,859.1c0,0-4.5,9.5-15.5,24.2c-5.3,7-17,18.3-21,25c-4,6.7-0.8,21.2-1.9,25.6
			c-1.1,4.7-9.3,13.8-12.9,16.4c-3.3,2.4-14,3.3-14,3.3s10.6,0.5,13-0.9c2.2-1.3,6.6-4.5,9.9-8.3c3.7-4.1,6.2-9.2,6.4-10.6
			c0.5-2.6,1.6-23.7,3-26.1c0,0,8.3-8,15.6-13.8c7.3-5.8,15.6-14,16.5-18.9C306.5,869.8,306.3,859.1,306.3,859.1z"/>
		<path class="st33" d="M210.7,905.3c0,0,9.7-16.4,5.9-28.4C216.6,876.9,231.7,886.6,210.7,905.3z"/>
		<path class="st33" d="M176.9,882.6c0,0,5.4,2.7,13.5,1.3c8.1-1.4,20.4-9.2,20.4-9.2S190.9,884.6,176.9,882.6z"/>
		<path class="st21" d="M224.2,950.4c0-4,7.5-3.9,15.6-1.4c3.7,1.2,2.9,4.7,2.9,4.7S232,954,224.2,950.4z"/>
	</g>
	<g>
		<path class="st8" d="M1039.6,909l16.4,11.9l17.9-1.5c0,0,16.4-17.2,20.9-11.2c4.5,6-12.7,21.6-16.4,24.6c-3.7,3-19.4,8.9-21.6,8.9
			c-2.2,0-29.1-21.6-29.1-21.6L1039.6,909z"/>
		<path class="st21" d="M1097.9,909.4c-2.8-2.8-8.1,2.5-12.1,9.9c-1.8,3.4,1.2,5.3,1.2,5.3S1094.8,917.4,1097.9,909.4z"/>
		
			<linearGradient id="SVGID_24_" gradientUnits="userSpaceOnUse" x1="-532.6654" y1="925.8238" x2="-507.1579" y2="933.3001" gradientTransform="matrix(-1 0 0 1 534.1582 0)">
			<stop  offset="0" style="stop-color:#DB9F7B"/>
			<stop  offset="1" style="stop-color:#E4A985"/>
		</linearGradient>
		<polygon class="st35" points="1064,920.2 1050.9,938 1046.5,934.6 1059.6,920.4 		"/>
		<path class="st33" d="M1085.3,926.4c0,0-3.7,3.9-7.9,7.5c-1.3,1.1-18.6,8.2-20.6,7.8c-2-0.4-10.4-6.5-10.4-6.5l1.3-2.1
			c0,0,6.9,6.3,9.3,6C1059.4,938.8,1073,935.8,1085.3,926.4z"/>
		<path class="st8" d="M1033.6,849.3c4.5,3,22.4,13.4,25.4,14.2c3,0.7,17.2,9,20.9,10.4c3.7,1.5-9,13.4-23.9,9
			c-14.9-4.5-20.1-13.4-23.9-7.5c-3.7,6-49-10.6-45.5-28.2C988.1,839.8,1029.2,846.3,1033.6,849.3z"/>
		<path class="st8" d="M946.9,853.4c0,0-8.8,14.5-2,25c6.7,10.4,26.9,24.3,29.9,28.8c3,4.5,2.2,22,2.9,26.4
			c0.7,4.5,12.7,18.6,18.6,19.4c6,0.7,23.7,1.2,26.1-5.6c1.4-3.9-11.2-8.6-19.4-7.8l-6-8.2v-12.7c0,0,16.4,2.2,20.9,0.7
			c4.5-1.5,22.1-9.5,22.1-9.5s-13.1-21.8-10.1-31.5l-7.5-27.6c-3-0.7-15.7-7.5-26.1-7.5c-10.4,0-30.6-0.7-37.3,2.2
			C952.3,848.5,946.9,853.4,946.9,853.4z"/>
		<path class="st8" d="M1040.1,909.9c0,0-15.2,2.5-19.2,6c0,0-27.3-30.1-29.8-39.3C991.1,876.6,1034.7,896.7,1040.1,909.9z"/>
		<path class="st8" d="M1077.6,878.7c0,0-16,6.9-42.6-8.8c-18.2-1.7-28.9,2-57.6-10.3c7.8,11.2,17.1,19.9,36.6,29.9
			c17.5,9,26.6,21.3,26.6,21.3s-7.8-13.2-9.2-19.6c-1.4-6.4-2-16.5,3.4-17.1c0.8-0.1,1.7,0.1,2.7,0.4c4,1.9,14.5,8.7,23,9.4
			C1070.8,884.7,1077.6,878.7,1077.6,878.7z"/>
		<path class="st8" d="M1033.6,909l-12.7,7.5c0,0,14.9,16.4,23.9,16.4c9,0,20.1-16.4,20.1-16.4s23.1-29.1,18.6-36.5
			c-4.5-7.5-19.4,7.5-22.4,16.4c0,0-10.4,7.5-12.7,15.7L1033.6,909z"/>
		<path class="st33" d="M1084.2,880.5c0,0-2.1-4.3-6.9-2.2c-4.3,1.9-14.9,9.3-16.3,17.9c0,0-12.6,8.6-12.7,15.7c0,0-5.4-2.9-8.4-2
			c0,0-7.8-5.5-19.2,6c0,0,15.9-9.1,28.9-1.5c0,0,0.4-10.6,13.6-17c2.8-5.6,4.1-14,16-17.5C1080.8,879.5,1084.2,880.5,1084.2,880.5z
			"/>
		<path class="st8" d="M995.9,918.1c0,0,25.8,23.6,34.8,25.1c9,1.5,17.2-6,20.1-9.7c3-3.7,13.2-15.4,16.1-21.4
			c3.7-7.7,6-11,1.7-13.8c-1.5-1-3.8-0.7-6.4,1.2c-11.6,8.5-15.1,16.9-15.1,16.9s-11.9,3-15.7,7.5c0,0-4.5-3.7-8.2-8.9L995.9,918.1z
			"/>
		<path class="st21" d="M1081.8,873.6c-1.3,5-10.8,2.5-20.2-3.4c-4.3-2.7-2.2-6.7-2.2-6.7S1073.1,866.5,1081.8,873.6z"/>
		<path class="st21" d="M1086.1,879.5c-3.5-2.4-8,4.3-10.7,13.1c-1.2,4,2.4,5.4,2.4,5.4S1084.6,888.6,1086.1,879.5z"/>
		<path class="st33" d="M1070.3,899.8c0,0-2.5-3.9-6.2-2.5c-3.6,1.4-10.6,3.6-17,19.1c0,0-12.6,1.6-15.7,7.5c0,0-4.5-7.1-10.6-9.5
			c0,0-6.2-5-18.7,0c0,0,11.3-0.5,15.7,1.1c6.7,2.5,12.3,8.1,12,14.8c0,0,5.3-11.5,17.9-11.7c0,0,3.6-8.7,9.5-13.4
			C1062,901.2,1066.3,895.9,1070.3,899.8z"/>
		<path class="st21" d="M1072.5,899.9c-3.4-2.6-8.2,3.9-11.4,12.5c-1.4,3.9,2.1,5.5,2.1,5.5S1070.6,909,1072.5,899.9z"/>
		<path class="st8" d="M1047.8,857.8c0,0-9.2-7.1-14.4-8.9c-20.9-7.5-48.2-5.5-48.2-5.5L1047.8,857.8z"/>
		<path class="st33" d="M996.8,911.8c0,0,0.5,3.7,6.1,9.9c3.4,3.8,22.6,17.6,25.8,19.2c4.3,2.1,14.7-0.7,14.7-0.7s-5.7,4-11.6,3.8
			c-4.1-0.1-17.8-10.3-20.8-12.1c-3.7-2.2-14.8-13.4-14.8-13.4L996.8,911.8z"/>
		<path class="st33" d="M996.8,909.9c0,0,1.1,19.1,0.3,21.4c0,0,5.6,6,6,8c0,0,8.8,0.2,13.8,2.2c5.2,2.1,7.5,4.3,4.7,7.2
			c0,0,1.1-2.2-2.7-3.9c-3.8-1.7-10.6-4.3-16.9-3.6c0,0-3.1-7.6-7.3-9.7C994.7,931.6,995.9,915.9,996.8,909.9z"/>
		<path class="st34" d="M1017.6,912.2c0,0-24.3-33.4-36.6-47.9C981,864.3,987.4,895.5,1017.6,912.2z"/>
		<path class="st33" d="M941.8,858.8c0,0,4.5,9.5,15.5,24.2c5.3,7,17,18.3,21,25c4,6.7,0.8,21.2,1.9,25.6
			c1.1,4.7,9.3,13.8,12.9,16.4c3.3,2.4,14,3.3,14,3.3s-10.6,0.5-13-0.9c-2.2-1.3-6.6-4.5-9.9-8.3c-3.7-4.1-6.2-9.2-6.4-10.6
			c-0.5-2.6-1.6-23.7-3-26.1c0,0-8.3-8-15.6-13.8c-7.3-5.8-15.6-14-16.5-18.9C941.6,869.6,941.8,858.8,941.8,858.8z"/>
		<path class="st33" d="M1037.4,905c0,0-9.7-16.4-5.9-28.4C1031.5,876.6,1016.4,886.3,1037.4,905z"/>
		<path class="st33" d="M1071.2,882.3c0,0-5.4,2.7-13.5,1.3c-8.1-1.4-20.4-9.2-20.4-9.2S1057.2,884.3,1071.2,882.3z"/>
		<path class="st21" d="M1023.9,950.1c0-3.9-7.5-3.9-15.6-1.4c-3.7,1.2-2.9,4.7-2.9,4.7S1016.1,953.7,1023.9,950.1z"/>
	</g>
	<path class="st8" d="M429.8,695.3l8.1,109.1c0,0-39.1,30.6-159.9,39.6c0,0,130.8-39.6,137.5-45.2
		C415.6,798.9,430.9,722.2,429.8,695.3z"/>
	<path class="st10" d="M684.9,1056.1c6.3,0.6,28.9,10.1,33.1,10.6c4.2,0.4,26.4-0.8,47-1.6c0,0-41.3,5.5-47.3,4.5
		C711.7,1068.6,697.1,1060.9,684.9,1056.1z"/>
	<path class="st23" d="M728.6,323.8c-5.1,28.3-7.3,49.8-7.3,49.8c18.3-5.6,32.8-58,14.3-58C732.3,315.6,728.6,323.8,728.6,323.8z"/>
	<path class="st36" d="M730,359.5c0,0,4.7-6,2.7-16.6c-4.8-24.9,11.6-28.5,8.7-10.8c0,0-2.7-7.9-4.6-5.2c-2.4,3.3,3,4.3,0.9,17.7
		C736.5,351.6,730,359.5,730,359.5z"/>
	<path class="st23" d="M517.2,329.3c5.4,28.2,7.8,49.8,7.8,49.8c-18.4-5.4-33.4-57.7-14.9-57.9C513.3,321.1,517.2,329.3,517.2,329.3
		z"/>
	<path class="st36" d="M519,365.4c0,0-5.7-5.3-4.7-16.6c2.3-26.5-15.6-27.2-10.5-9.5c0,0,2-8.6,4.4-6.2c2.9,2.9-2.7,5,1.1,18.4
		C511.2,358.4,519,365.4,519,365.4z"/>
	<path class="st8" d="M639.5,182.4c-62.9-11-107,44.3-119.3,111.2c-6.9,37.5-4.5,73.4,15.4,101.2c8.1,11.3,18,14.5,29.7,23.4
		c7.4,5.7,19,17.8,26.9,23.7c7.2,5.4,15.1,9.7,24.8,10.2c29.6,1.3,49.2-20.6,57.8-28.5c30.1-27.7,59.6-27.9,52.3-115.6
		C722.1,247,680.8,184.1,639.5,182.4z"/>
	
		<linearGradient id="SVGID_25_" gradientUnits="userSpaceOnUse" x1="-2.2368" y1="1201.5226" x2="-0.694" y2="1201.5226" gradientTransform="matrix(15.4651 -52.5159 52.5159 15.4651 -62397.7461 -18337.5156)">
		<stop  offset="0" style="stop-color:#E4A985"/>
		<stop  offset="0.6339" style="stop-color:#E1A683"/>
		<stop  offset="1" style="stop-color:#DA9F7C"/>
	</linearGradient>
	<path class="st37" d="M629.2,346.7c4.8-27.8,16.1-74.2,51.4-77c14.5-1.1,26.1,3.5,33.4,9.8c17,14.8,5.7,50.2,5.7,50.2
		S685.9,372.4,629.2,346.7z"/>
	
		<radialGradient id="SVGID_26_" cx="-1.1328" cy="1193.9365" r="1.5971" gradientTransform="matrix(-22.8833 4.4609 -4.6376 -23.775 6203.5498 28748.3008)" gradientUnits="userSpaceOnUse">
		<stop  offset="0" style="stop-color:#F9A48E"/>
		<stop  offset="0.8995" style="stop-color:#E6A886"/>
		<stop  offset="1" style="stop-color:#E4A985"/>
	</radialGradient>
	<path class="st38" d="M657.5,358.5c3.5,17.7,14.9,32.9,30.5,39.3c20.4,8.3,35.5-17.9,39.4-50.4c2.1-17.9-23.8-31.3-40.3-28.1
		C670.5,322.5,654,340.8,657.5,358.5z"/>
	<linearGradient id="SVGID_27_" gradientUnits="userSpaceOnUse" x1="539.8649" y1="271.3102" x2="592.3895" y2="362.2854">
		<stop  offset="0" style="stop-color:#DA9F7C"/>
		<stop  offset="1" style="stop-color:#E4A985"/>
	</linearGradient>
	<path class="st39" d="M615.8,348.7c-4.1-27.9-4.2-62.8-49.4-78.2c-13.8-4.7-26.2-0.8-33.6,5.3c-17.4,14.4-7,53.7-7,53.7
		S558.6,373.1,615.8,348.7z"/>
	
		<radialGradient id="SVGID_28_" cx="1.625" cy="1193.7148" r="1.6005" gradientTransform="matrix(21.4545 5.6178 5.462 -20.8539 -6004.313 25243.8789)" gradientUnits="userSpaceOnUse">
		<stop  offset="0" style="stop-color:#F9A48E"/>
		<stop  offset="0.8995" style="stop-color:#E6A886"/>
		<stop  offset="1" style="stop-color:#E4A985"/>
	</radialGradient>
	<path class="st40" d="M586,358.2c-3.9,15.1-15.2,42-30.6,39.5c-19.9-3.1-34.7-14.1-35.1-51c-0.2-15.6,23.7-26.7,38.8-22.7
		C574.2,328,590,343.1,586,358.2z"/>
	<path class="st41" d="M706.2,335.9c-5.6,1.4-9.6,4.9-8.8,8c0.8,3.1,5.9,4.4,11.5,3.1c5.6-1.4,9.6-4.9,8.8-8
		C717,335.9,711.8,334.5,706.2,335.9z"/>
	<path class="st41" d="M538.1,335.3c-5.6-1.1-10.7,0.4-11.3,3.5c-0.6,3.1,3.4,6.5,9,7.6c5.6,1.1,10.7-0.4,11.3-3.5
		C547.7,339.8,543.7,336.4,538.1,335.3z"/>
	<g>
		<path class="st8" d="M622.2,326.8c-7.6,0.5-10.1,25.5-9.5,28.9c2.1,10.2,5.3,10.5,13,10.1c7.6-0.5,8.7-3.7,8.6-12.6
			C634.3,349.7,629.9,326.3,622.2,326.8z"/>
		<path class="st23" d="M604.8,358.3c0,0-0.7,9,10.9,9.8c0,0,8.9,2.4,19.4-0.9c0,0,8.8-1.5,7-10.1c0,0,5.6,12.4-5.7,11.5
			c0,0-4.6,4.8-11.2,4.9c-6.5,0.1-12.5-4.5-12.5-4.5S602,371.6,604.8,358.3z"/>
		<path class="st42" d="M633.3,371.1c0,0,3.2-3.6,5.3-2.9C640.7,368.8,633.3,371.1,633.3,371.1z"/>
		<path class="st42" d="M616.8,371.5c0,0-3.4-3.4-5.4-2.7C609.3,369.5,616.8,371.5,616.8,371.5z"/>
	</g>
	<linearGradient id="SVGID_29_" gradientUnits="userSpaceOnUse" x1="516.7246" y1="258.4897" x2="727.6133" y2="258.4897">
		<stop  offset="0" style="stop-color:#D29571"/>
		<stop  offset="0.6132" style="stop-color:#D49774"/>
		<stop  offset="1" style="stop-color:#DA9F7C"/>
	</linearGradient>
	<path class="st43" d="M727.6,328c0,0,0.1-30.9-9.3-64.6c-9.9-35.7-36.2-71.7-68.9-78.4c0,0-90.6-4.9-109,49.4
		c-18.5,54.3-22.1,61.9-23.6,97.7c0,0,6.2-23.8,8.9-28.3c0,0,28.7-19.4,49.7-50.5c42.2-62.3,73.9-69.1,102.7-41.9
		C696.2,228.5,723.5,280.6,727.6,328z"/>
	
		<linearGradient id="SVGID_30_" gradientUnits="userSpaceOnUse" x1="755.8894" y1="358.2921" x2="739.3876" y2="310.8071" gradientTransform="matrix(0.9956 -9.407700e-02 9.407700e-02 0.9956 -49.6612 47.4051)">
		<stop  offset="0" style="stop-color:#673024"/>
		<stop  offset="0.5852" style="stop-color:#4E251B"/>
		<stop  offset="1" style="stop-color:#421F16"/>
	</linearGradient>
	<path class="st44" d="M721.9,277.1c0,0,3.6,49.5,6.4,61.3l2-17.8C730.2,320.7,724.9,283.2,721.9,277.1z"/>
	
		<linearGradient id="SVGID_31_" gradientUnits="userSpaceOnUse" x1="547.2661" y1="332.2002" x2="536.4092" y2="300.959" gradientTransform="matrix(0.9956 -9.407700e-02 9.407700e-02 0.9956 -49.6612 47.4051)">
		<stop  offset="0" style="stop-color:#673024"/>
		<stop  offset="0.5852" style="stop-color:#4E251B"/>
		<stop  offset="1" style="stop-color:#421F16"/>
	</linearGradient>
	<path class="st45" d="M521,287.9c0,0-0.8,30.2-4.3,44.2l-0.6-17.6L521,287.9z"/>
	<linearGradient id="SVGID_32_" gradientUnits="userSpaceOnUse" x1="623.6819" y1="438.6719" x2="623.6819" y2="428.7675">
		<stop  offset="0" style="stop-color:#E4A985"/>
		<stop  offset="0.6304" style="stop-color:#E5AB88"/>
		<stop  offset="0.9946" style="stop-color:#E8B08F"/>
	</linearGradient>
	<path class="st46" d="M623.6,428.8c-5,0.1-9.1,2.3-9,5c0,2.7,4.1,4.9,9.1,4.9c5-0.1,9-2.3,9-5C632.7,430.9,628.6,428.7,623.6,428.8
		z"/>
	
		<linearGradient id="SVGID_33_" gradientUnits="userSpaceOnUse" x1="661.0116" y1="102.1677" x2="588.9999" y2="472.7636" gradientTransform="matrix(0.9614 -0.2752 0.2752 0.9614 -117.1153 222.9918)">
		<stop  offset="0" style="stop-color:#874238"/>
		<stop  offset="8.363384e-02" style="stop-color:#7B3C32"/>
		<stop  offset="0.29" style="stop-color:#622F26"/>
		<stop  offset="0.5056" style="stop-color:#50261D"/>
		<stop  offset="0.7347" style="stop-color:#452118"/>
		<stop  offset="1" style="stop-color:#421F16"/>
	</linearGradient>
	<path class="st47" d="M471.8,231.4c53.5-108.5,154.2-114.6,192.8-79.8c-2,12,0.8,31.3-7.8,39.5c-46.5-34-76.1,60-116.6,82.7
		c-29.8,16.8-45.1,59.6-88.4,110.5C439.1,315.6,461.9,251.5,471.8,231.4z"/>
	<path class="st48" d="M728.2,338.4c0,0-4.5,39.5-34,65.6c-20.3,18-24.9,24.2-32,31.2c0,0,28.9-24.9,37.8-31.1
		C707.1,399.1,728.9,380.3,728.2,338.4z"/>
	<path class="st48" d="M516.7,332c0,0,2.8,48.3,36.3,74.5c21.4,16.7,28.3,25.9,33.9,31c0,0-24.7-20.7-39.6-30.8
		C540.1,402,515.9,385.8,516.7,332z"/>
	<path class="st23" d="M590.9,440.9c0,0,25.4,28.1,65-0.9C655.8,440,621.1,464.2,590.9,440.9z"/>
	<g>
		<linearGradient id="SVGID_34_" gradientUnits="userSpaceOnUse" x1="615.9909" y1="153.0252" x2="344.1246" y2="558.0278">
			<stop  offset="0" style="stop-color:#874238"/>
			<stop  offset="5.918008e-02" style="stop-color:#813F35"/>
			<stop  offset="0.4572" style="stop-color:#5F2E24"/>
			<stop  offset="0.785" style="stop-color:#4A231A"/>
			<stop  offset="1" style="stop-color:#421F16"/>
		</linearGradient>
		<path class="st49" d="M453.4,337.6c3.2-24.6,9-67.5,69.4-132.1c29.1-30.9,67.2-53.2,98.9-49.5c15.4,1.6,25.7,9.2,30.9,14.8
			c5.4,5.7,8.6,9.9,8.7,10c-0.7-0.5-16.1-14-39.5-10c-23.1,3.5-49.5,26.1-75.9,53.5C493.3,278.5,452.4,336.3,453.4,337.6z"/>
	</g>
	<g>
		<linearGradient id="SVGID_35_" gradientUnits="userSpaceOnUse" x1="672.489" y1="169.8958" x2="850.3754" y2="324.2878">
			<stop  offset="0" style="stop-color:#874238"/>
			<stop  offset="5.918008e-02" style="stop-color:#813F35"/>
			<stop  offset="0.4572" style="stop-color:#5F2E24"/>
			<stop  offset="0.785" style="stop-color:#4A231A"/>
			<stop  offset="1" style="stop-color:#421F16"/>
		</linearGradient>
		<path class="st50" d="M769.2,260.4c0,0.4-16.4-27.7-45.7-56.3c-14.4-14-29.8-23.7-42.5-24.7c-12.7-1.2-19.3,3.7-19.7,4.1
			c0.6-0.5,5.2-7.5,19.7-9c14.5-1.6,33.6,7.3,48.4,21.6C759.5,224.7,769.2,260.6,769.2,260.4z"/>
	</g>
	<linearGradient id="SVGID_36_" gradientUnits="userSpaceOnUse" x1="627.8594" y1="135.3236" x2="609.9588" y2="364.6756">
		<stop  offset="0" style="stop-color:#A15E50"/>
		<stop  offset="0.6859" style="stop-color:#683429"/>
		<stop  offset="1" style="stop-color:#4D1F16"/>
	</linearGradient>
	<path class="st51" d="M663.1,149.7c0,0,35.7-4.6,73.2,26.1c26.4,21.7,42.9,62.9,44.3,106.5c0,0-10-62.5-46.2-98.1
		c-20.1-19.8-56.5-33.2-71.5-31.1c0,0-40.3-22-93.1-7.3C525.4,158.2,468.3,200.3,450,311c0,0,14.1-172.4,156.1-179.3
		C642.1,129.9,663.1,149.7,663.1,149.7z"/>
	<linearGradient id="SVGID_37_" gradientUnits="userSpaceOnUse" x1="752.908" y1="614.2988" x2="685.7808" y2="-63.688">
		<stop  offset="0" style="stop-color:#6B3329"/>
		<stop  offset="0.3023" style="stop-color:#663127"/>
		<stop  offset="0.6359" style="stop-color:#592A21"/>
		<stop  offset="0.9833" style="stop-color:#432017"/>
		<stop  offset="1" style="stop-color:#421F16"/>
	</linearGradient>
	<path class="st52" d="M778,447.4c32.9-152.6-45.5-216.4-61-235.8c-17.1-21.4-44.6-44.6-63.9-19.3c0,0,12.5-3.4,33.1,13.3
		c88.5,100.1,75.5,162.3,55.1,239.5c-20.7,78.1-73.5,93-21.4,186.7C713.9,550.7,757.5,542.7,778,447.4z"/>
	<g>
		<g>
			
				<linearGradient id="SVGID_38_" gradientUnits="userSpaceOnUse" x1="38.5146" y1="1183.9719" x2="40.1275" y2="1183.9719" gradientTransform="matrix(32.7993 -12.874 -12.874 -32.7993 14629.2178 39624.3398)">
				<stop  offset="0" style="stop-color:#673024"/>
				<stop  offset="0.3355" style="stop-color:#53271C"/>
				<stop  offset="0.677" style="stop-color:#462118"/>
				<stop  offset="1" style="stop-color:#421F16"/>
			</linearGradient>
			<path class="st53" d="M653.3,284.6c1.1,5.8,23.3-8.9,40.6-8.8c11.7,0.1,23.5,7.8,23.5,7.8c-6.8-8.3-21-13.5-24.3-14.3
				C673.1,264.3,653,282.9,653.3,284.6z"/>
		</g>
		
			<linearGradient id="SVGID_39_" gradientUnits="userSpaceOnUse" x1="-0.7017" y1="1199.4633" x2="0.9119" y2="1199.4633" gradientTransform="matrix(-32.7389 -13.0268 13.0268 -32.7389 -15053.832 39555.6484)">
			<stop  offset="0" style="stop-color:#673024"/>
			<stop  offset="0.3355" style="stop-color:#53271C"/>
			<stop  offset="0.677" style="stop-color:#462118"/>
			<stop  offset="1" style="stop-color:#421F16"/>
		</linearGradient>
		<path class="st54" d="M592.3,285.7c-1.1,5.8-23.3-9-40.6-9c-11.7,0-23.6,7.7-23.6,7.7c6.9-8.3,21-13.4,24.4-14.2
			C572.6,265.4,592.6,284,592.3,285.7z"/>
		<g>
			<path class="st23" d="M682,293.6c-32.7-3.3-37.8,35.7-37.8,35.7s6.1-0.2,11.1,1c6.9,1.6,18.9,3.1,30,1.7
				c8.7-1.1,19.6-4.4,21.8-17.5C709.4,300.2,688.7,294.3,682,293.6z"/>
		</g>
		<g>
			<path class="st23" d="M560.3,294c32.7-3.4,39.7,35.1,39.7,35.1s-6.1-0.1-11.1,1c-6.8,1.6-19.2,3.5-30.3,2.2
				c-8.7-1.1-19-4.5-21.4-17.6C535,300.4,553.6,294.7,560.3,294z"/>
		</g>
		<g>
			<linearGradient id="SVGID_40_" gradientUnits="userSpaceOnUse" x1="650.9756" y1="316.9639" x2="692.4296" y2="313.9214">
				<stop  offset="0" style="stop-color:#E4A985"/>
				<stop  offset="0.6339" style="stop-color:#E1A683"/>
				<stop  offset="1" style="stop-color:#DA9F7C"/>
			</linearGradient>
			<path class="st55" d="M672.1,301.9c-17.5,2.7-24.6,21.4-24.6,21.4s6,5.6,32.9,5.1c11.8-0.3,20-2.1,26.4-13.5
				C709.5,310.1,694,298.5,672.1,301.9z"/>
			
				<linearGradient id="SVGID_41_" gradientUnits="userSpaceOnUse" x1="1013.5381" y1="2534.7874" x2="1081.9305" y2="2534.7874" gradientTransform="matrix(0.9635 -0.2676 -0.2676 -0.9635 352.5511 3046.3328)">
				<stop  offset="0" style="stop-color:#874238"/>
				<stop  offset="0.6478" style="stop-color:#572A20"/>
				<stop  offset="1" style="stop-color:#421F16"/>
			</linearGradient>
			<path class="st56" d="M707.1,313.9c9.3,1.6,10.1,5.3,10.3,5.6c-0.1,0-2.7,1.3-7.9,3.7c1.8,0.3,3.6,2.8,3.6,2.8
				c-2.8-0.2-8.6-0.5-11.8,1.4c-14.1,8.5-43.4,6.2-53.8-4.1c0,0,19.5,3.8,35.7,1.5C697,322.9,705.8,316,707.1,313.9z"/>
		</g>
		<g>
			<linearGradient id="SVGID_42_" gradientUnits="userSpaceOnUse" x1="599.5405" y1="324.2959" x2="550.2343" y2="312.062">
				<stop  offset="0" style="stop-color:#DA9F7C"/>
				<stop  offset="1" style="stop-color:#E4A985"/>
			</linearGradient>
			<path class="st57" d="M556.2,300.8c33.1-1.4,40.1,22.9,40.1,22.9s-4.6,5.3-31.4,4.7c-11.8-0.3-22.8-0.2-27.6-11.3
				C534.7,310.9,547,301.3,556.2,300.8z"/>
			
				<linearGradient id="SVGID_43_" gradientUnits="userSpaceOnUse" x1="2881.9795" y1="1786.5006" x2="2949.5857" y2="1786.5006" gradientTransform="matrix(-0.9569 -0.2903 0.2903 -0.9569 2832.0706 2879.8711)">
				<stop  offset="0" style="stop-color:#874238"/>
				<stop  offset="0.6478" style="stop-color:#572A20"/>
				<stop  offset="1" style="stop-color:#421F16"/>
			</linearGradient>
			<path class="st58" d="M537.1,313c-9.4,1.5-10,6.6-10.3,7c0.1,0,2.6,1.2,7.7,3.5c-1.8,0.3-3.7,2.6-3.7,2.6
				c2.9-0.2,8.3-0.2,11.2,1.7c14,9.3,46,5.2,54.3-4.1c0,0-22.5,6.1-39.8,0.9C539.4,319.4,537.2,312.9,537.1,313z"/>
		</g>
	</g>
	<g>
		
			<linearGradient id="SVGID_44_" gradientUnits="userSpaceOnUse" x1="442.9102" y1="456.9029" x2="620.1748" y2="456.9029" gradientTransform="matrix(0.9886 0.1509 -0.1509 0.9886 85.3597 -185.2548)">
			<stop  offset="0" style="stop-color:#6B3329"/>
			<stop  offset="0.3023" style="stop-color:#663127"/>
			<stop  offset="0.6359" style="stop-color:#592A21"/>
			<stop  offset="0.9833" style="stop-color:#432017"/>
			<stop  offset="1" style="stop-color:#421F16"/>
		</linearGradient>
		<path class="st59" d="M501,519.4c-132-128.6-1.6-212.9,50.6-271c16.8-18.7,31.7-36.8,47-49.6c14.7-13.3,29-18.4,40.6-16.4
			c7.5,1.3,15.5,7.2,16.1,7.7c-0.3-0.2-4.8-2.5-15.2-3.6c-10.5-1.5-22.6,5.5-34.7,19.3c-12.5,13.6-25.5,31.8-40.4,52.5
			C507.7,337.8,451.4,399.6,501,519.4z"/>
	</g>
	<linearGradient id="SVGID_45_" gradientUnits="userSpaceOnUse" x1="454.9341" y1="471.8084" x2="694.3552" y2="-39.4796">
		<stop  offset="0" style="stop-color:#874238"/>
		<stop  offset="5.918008e-02" style="stop-color:#813F35"/>
		<stop  offset="0.4572" style="stop-color:#5F2E24"/>
		<stop  offset="0.785" style="stop-color:#4A231A"/>
		<stop  offset="1" style="stop-color:#421F16"/>
	</linearGradient>
	<path class="st60" d="M548.9,280.5c0,0-76.3,69.1-87.5,117.9c-9.2,39.8,18.4,84.2,18.4,84.2s-16.1-31.4,0-89.5
		C490.8,352.9,519.8,327.2,548.9,280.5z"/>
	<linearGradient id="SVGID_46_" gradientUnits="userSpaceOnUse" x1="699.2867" y1="604.0858" x2="832.4225" y2="263.9738">
		<stop  offset="0" style="stop-color:#874238"/>
		<stop  offset="5.918008e-02" style="stop-color:#813F35"/>
		<stop  offset="0.4572" style="stop-color:#5F2E24"/>
		<stop  offset="0.785" style="stop-color:#4A231A"/>
		<stop  offset="1" style="stop-color:#421F16"/>
	</linearGradient>
	<path class="st61" d="M740.9,486.8c-14.4,38.1-36.9,42.7-35.6,71.2c0.8,18.5,10.7,44.3,10.7,44.3s-8-33.1,7.1-59.2
		C738.8,515.9,739,502.7,740.9,486.8z"/>
	<g>
		<path class="st23" d="M580.3,393.9c1.4-2.6,12.4,2.7,15.2,8.3C591,398.9,579.4,395.4,580.3,393.9z"/>
		<path class="st23" d="M664.2,392.8c1.7-0.6,3.3-1.2,3.4,1c0.1,2.2-5.2,0.8-14.6,7.2C653,401,657.5,394.3,664.2,392.8z"/>
		<path class="st62" d="M666.6,392.9c-0.4-0.3-3.8,0.8-4,0.8c-9.4,1.5-13.2,2.1-20.5,2.6c-2.4-0.2-4.7-0.3-6.9-0.4
			c-6.5-0.3-11.8-0.4-12.9-0.1c-1.1,0.4-4.9,0.6-9.9,1c-1.7,0.1-3.5,0.3-5.4,0.4c-4.6,1.6-12.8-0.7-17.9-1.6
			c-3.2-0.9-6.8-1.9-7.2-1.6c-0.6,0.4-1.3,1.3,4.9,2.3c3.2,1,12.6,5.4,18.3,6.1c1.7,0.3,3.3,0.5,5,0.6c2,0.1,4,0.2,6,0.3
			c3.9,0.2,7.3,0.3,9.1,0.3c2.7,0,7.9-0.5,12.5-1c1.5-0.2,3-0.3,4.4-0.4c8,0.1,14.9-4.3,17.2-6.5
			C668.9,394.4,667.3,393.4,666.6,392.9z"/>
		<path class="st63" d="M588,395.3c7.2,0.2,13.1-0.4,18.7-3.3c1.4-0.6,2.8-1.2,4-1.6c1.3-0.4,2.3-0.7,3.1-0.7c3,0,7.8,1.2,9.9,1.1
			c4.7-0.1,7.8-1.4,11.5-1.4c1.1,0,3,0.6,5.6,1.7c6.4,2.9,14.1,3.6,22,2.5c-6.7,1.5-14,4.4-20.9,5.4c-0.9,0-3-0.3-6.1-0.7
			c-3.1-0.3-7.3-0.7-12.1-0.7c-3.9,0-6.7,0.5-9.4,0.9c-1.4,0.2-2.7,0.4-4.2,0.5c-1.5,0.2-3,0.4-4.4,0.2
			C592.8,397.4,589.3,395.6,588,395.3z"/>
		<path class="st64" d="M601.5,395.8c0.3-0.8,2.3-1.8,4.7-2.7c2.4-0.9,6.2-2.9,7.8-2.6c13.6,2.8,18.4-0.6,21.3-0.2
			c0.8,0.1,5.1,1.9,7.8,2.7c2.8,0.6,4.7,1.8,3.5,3c-1,1-3.2,1-6.2,1.1c-1.5,0-3.1-0.1-4.7-0.2c-4.9-0.4-10-1.1-12.1-1
			c-2.1,0-7.9,0.8-13,1.2c-1.7,0.1-3.3,0.2-4.7,0.2C603.2,397.1,601.3,396.6,601.5,395.8z"/>
		<path class="st23" d="M599.8,407.2c3,4.2,23.4,20.7,48.6,0.3C648.4,407.5,626.3,414.8,599.8,407.2z"/>
		<path class="st63" d="M586.9,396.3c4.4,0.8,13.1,4,20.4,3.8c1.3-0.1,2.8-0.1,4.4-0.2c4.8-0.3,10.3-0.6,13.1-0.6
			c2.2,0,7.4,0.2,12.1,0.4c1.6,0.1,3.1,0.1,4.6,0.1c7.2-0.6,10-3.3,21.5-4.7c-6,0.7-10.3,8.2-13.7,11.6c-2.9,2.6-9.1,7.2-23.4,7.7
			c-14.4,0.5-22-2.4-26.3-6.8C597,404.9,594.1,399.5,586.9,396.3z"/>
		<path class="st64" d="M599.8,402.4c0.5-0.2,3.2-0.3,6.7-0.5c1.8-0.1,3.7-0.3,5.7-0.4c5.9-0.5,11.7-0.8,12.5-0.8
			c0.7,0,7.5,0,13.8,0.5c2.1,0.2,4.1,0.4,5.9,0.6c2.8,0.3,5.2-0.1,5.2,2.2c-0.6,1.8-2.6,3.3-4.2,4.2c-2.5,1.4-6.6,3.4-16.2,4.3
			c-7.6,0.7-15.8-0.2-19.4-1.5c-0.9-0.3-2.3-0.8-3.8-1.4c-1.5-0.6-3.1-1.3-4.4-2.1C598.7,405.6,597.1,403.5,599.8,402.4z"/>
		<path class="st65" d="M644,404.3c0.2,0.4-0.2,1.3-1.1,2.3c-0.9,1-2.4,2-4.5,2.8c-5.4,2-10,0.8-10.3,0c-0.4-0.8,7-1.8,9-2.7
			c1-0.5,2.7-1.2,4.1-1.8C642.6,404.3,643.8,404,644,404.3z"/>
	</g>
</g>
</svg>
