<?xml version="1.0" encoding="utf-8"?>
<!-- Generator: Adobe Illustrator 21.0.0, SVG Export Plug-In . SVG Version: 6.00 Build 0)  -->
<svg version="1.1" id="_x31_" xmlns="http://www.w3.org/2000/svg" xmlns:xlink="http://www.w3.org/1999/xlink" x="0px" y="0px"
	 viewBox="0 0 210.9 219.9" style="enable-background:new 0 0 210.9 219.9;" xml:space="preserve">
<style type="text/css">
	.st0{fill:#CEDDEB;}
	.st1{fill:#31323F;}
	.st2{fill:#FFC393;}
	.st3{fill:#EBA87F;}
	.st4{fill:#D6753F;}
	.st5{fill:#434752;}
	.st6{fill:#ED8869;}
	.st7{fill:url(#SVGID_1_);}
	.st8{fill:url(#SVGID_2_);}
	.st9{fill:url(#SVGID_3_);}
	.st10{fill:url(#SVGID_4_);}
	.st11{fill:url(#SVGID_5_);}
	.st12{fill:url(#SVGID_6_);}
	.st13{fill:#48B58B;}
	.st14{opacity:0.1;fill:#ADCFD6;enable-background:new    ;}
	.st15{fill:#80CEAE;}
	.st16{fill:#241D18;}
	.st17{opacity:0.5;}
	.st18{fill:#ADCFD6;}
	.st19{opacity:0.5;fill:#D1DAE5;enable-background:new    ;}
	.st20{fill:#B5AB96;}
	.st21{fill:#D1DAE5;}
</style>
<ellipse class="st0" cx="109.2" cy="215.7" rx="77.4" ry="5.2"/>
<g>
	<g>
		<path class="st1" d="M146.7,189.4c-8-1.3-14-6.6-14-6.6l-26.5,1.4l-26.5-1.4c0,0-5.9,5.3-14,6.6c-8,1.3-35.5,5.1-30.5,12.7
			c5.1,7.6,21.6,16.7,31.7,16.7c2.2,0,6.4,0,11.6,0c19,0,51.9,0,55.2,0c5.2,0,9.4,0,11.6,0c10.2,0,26.6-9.1,31.7-16.7
			C182.2,194.5,154.7,190.6,146.7,189.4z"/>
		<path class="st2" d="M121,79.6c0,0-10.3,9.7-14.9,9c-4.5,0.6-14.9-9-14.9-9s2.1-2.3,3.2-9.7c0.3-1.7,0.5-3.6,0.6-5.8l11,4.3
			l11-4.3c0.2,2.5,0.4,4.7,0.8,6.5C119.1,77.4,121,79.6,121,79.6z"/>
		<path class="st3" d="M117.9,70.5c-2.7,1.7-7,4.2-11.3,4.1c-4.6-0.1-9.2-2.9-12.1-4.8c0.3-1.7,0.5-3.6,0.6-5.8l11,4.3l11-4.3
			C117.3,66.5,117.6,68.7,117.9,70.5z"/>
		<path class="st2" d="M84.5,36c0,0-5.4,1.7-6,3.3c-0.6,1.6,1.6,12.1,3,13c1.4,1,4.4,0,4.4,0L84.5,36z"/>
		<path class="st2" d="M127.6,36c0,0,5.4,1.7,6,3.3c0.6,1.6-1.6,12.1-3,13c-1.4,1-4.4,0-4.4,0L127.6,36z"/>
		<path class="st4" d="M106.2,71.9c-5,0-18.1-10.8-20.4-14.3c-2.2-3.5-3.8-43.8-2.2-47.4c1.6-3.6,33-10.5,37-10.2s8.1,9.7,8.4,12.1
			c0.3,2.4-2.2,42.8-2.9,46.2C125.5,61.6,111.8,71.9,106.2,71.9z"/>
		<path class="st2" d="M123.9,17.1c-1-0.9-11.9,1.3-17.8-1c-5.9-2.2-6.2-4.1-7.8-4.3c-1.6-0.2-9,4.3-10.2,5.2
			c-1.1,1-2.5,14.8-2.2,17.6c0.7,6.3,6.3,19.5,6.3,19.5s4.4-6.8,6.5-7.6c1.9-0.7,6.5-0.8,7.2-0.8s5.3,0.1,7.2,0.8
			c2.1,0.8,6.5,7.6,6.5,7.6s5.7-13.2,6.3-19.5C126.5,31.8,125.1,18,123.9,17.1z"/>
		<path class="st5" d="M91.9,35.4c2.3,3.9,8.6,2.4,10,0C99,37.1,93.8,36.6,91.9,35.4z"/>
		<path class="st4" d="M90.7,27.2c-1.5,1.9-0.2,4.6-0.2,4.6s9.5-3.8,11.7-4.4s1.2-4.4,0-4.8C101,22.3,92.8,24.4,90.7,27.2z"/>
		<path class="st2" d="M112.3,48.9c-0.7-0.7-11.7-0.7-12.4,0c-0.8,0.8-5.5,7.5-5.5,7.5s6.3,4.1,7,4.4c0.6,0.3,0.6,0.3,0.6,0.3
			s1.3-3.2,1.9-3.6c0.5-0.3,3.8-0.3,4.3,0c0.6,0.4,1.9,3.6,1.9,3.6s0,0,0.6-0.3s7-4.4,7-4.4S113.1,49.7,112.3,48.9z"/>
		<path class="st6" d="M113.6,52.3c-4.2,0.7-10.8,0.7-15,0c2.1,1,4.9,1.9,7.6,1.9S111.5,53.2,113.6,52.3z"/>
		<path class="st3" d="M111,41.1c-1.7,0.9-3.8,1.1-4.8,1.1c-1.1,0-3.3-0.3-5-1.1c1.2,1.9,3.6,2.3,5,2.3
			C107.7,43.4,109.8,43,111,41.1z"/>
		<path class="st5" d="M120.2,35.4c-2.3,3.9-8.6,2.4-10,0C113.2,37.1,118.3,36.6,120.2,35.4z"/>
		<path class="st4" d="M121.5,27.2c1.5,1.9,0.2,4.6,0.2,4.6s-9.5-3.8-11.7-4.4s-1.2-4.4,0-4.8C111.1,22.3,119.3,24.4,121.5,27.2z"/>
		<g>
			
				<radialGradient id="SVGID_1_" cx="9.6524" cy="-3.5097" r="4.8424" gradientTransform="matrix(1 0 0 -1 0 168.819)" gradientUnits="userSpaceOnUse">
				<stop  offset="0" style="stop-color:#EBA87F"/>
				<stop  offset="0.1367" style="stop-color:#EEAC82"/>
				<stop  offset="1" style="stop-color:#FFC393"/>
			</radialGradient>
			<path class="st7" d="M19.2,171.3l-0.3-3.3c0,0-1.4-5.6-2.3-6.7c-0.9-1.1-5.4-1-6.4-1.5c-0.6-0.3-2.3,2.3,0.1,2.9s4.2,0.4,4.2,0.4
				s1.4,3.5-1.4,5.1s-6.6,0.3-7.2-2.4c2.7-2.2,3.1-4.1,2.9-4.9c-0.3-0.9-3.8-0.1-5.2,3.7c-1,2.7,1.3,4.9,3.2,6.6
				c-0.5,1.2-1.6,4.2-0.8,5.5c0.9,1.5,9.3,2.2,13.3-2.6l0.4-2.9L19.2,171.3z"/>
			
				<radialGradient id="SVGID_2_" cx="5.816" cy="-4.7053" r="4.9382" gradientTransform="matrix(1 0 0 -1 0 168.819)" gradientUnits="userSpaceOnUse">
				<stop  offset="0" style="stop-color:#EBA87F"/>
				<stop  offset="0.1367" style="stop-color:#EEAC82"/>
				<stop  offset="1" style="stop-color:#FFC393"/>
			</radialGradient>
			<path class="st8" d="M8,169.1c0.7,2.2-3.2,3.5-3.2,3.5l4.9-0.1l1.6,1.7c0,0-6,2.6-7.6,2.2C2.1,176-0.4,172,0,170.7
				C0.3,169.3,8,169.1,8,169.1z"/>
			
				<radialGradient id="SVGID_3_" cx="8.1917" cy="-6.8998" r="5.1801" gradientTransform="matrix(1 0 0 -1 0 168.819)" gradientUnits="userSpaceOnUse">
				<stop  offset="0" style="stop-color:#EBA87F"/>
				<stop  offset="0.1367" style="stop-color:#EEAC82"/>
				<stop  offset="1" style="stop-color:#FFC393"/>
			</radialGradient>
			<path class="st9" d="M10.6,170.9c0.7,2.2-3.2,3.5-3.2,3.5l1.9,0.7l0.4,2c0,0-1.7,1.5-3.4,1.1c-1.6-0.4-4.1-4.4-3.7-5.7
				C2.9,171.2,10.6,170.9,10.6,170.9z"/>
			<path class="st2" d="M12.6,172.2c0.7,2.2-2.2,3-2.2,3l1,1.1l2.9-0.8l1.6,1c0,0-4.2,3-5.9,2.6c-1.6-0.4-4.1-4.4-3.7-5.7
				C6.8,171.9,12.6,172.2,12.6,172.2z"/>
		</g>
		<path class="st5" d="M131.3,180.1l-22-2.5c0,0-1.3,0.5-3.1,1.4c-1.7-0.8-3.1-1.4-3.1-1.4l-22,2.5l-1.4,2.7c0,0,7.6,3.8,26.5,3.8
			s26.5-3.8,26.5-3.8L131.3,180.1z"/>
		<g>
			
				<radialGradient id="SVGID_4_" cx="-189.3263" cy="-3.5097" r="4.8424" gradientTransform="matrix(-1 0 0 -1 11.9349 168.819)" gradientUnits="userSpaceOnUse">
				<stop  offset="0" style="stop-color:#EBA87F"/>
				<stop  offset="0.1367" style="stop-color:#EEAC82"/>
				<stop  offset="1" style="stop-color:#FFC393"/>
			</radialGradient>
			<path class="st10" d="M191.6,171.3l0.3-3.3c0,0,1.4-5.6,2.3-6.7c0.9-1.1,5.4-1,6.4-1.5c0.6-0.3,2.3,2.3-0.1,2.9s-4.2,0.4-4.2,0.4
				s-1.4,3.5,1.4,5.1c2.8,1.6,6.6,0.3,7.2-2.4c-2.7-2.2-3.1-4.1-2.9-4.9c0.3-0.9,3.8-0.1,5.2,3.7c1,2.7-1.3,4.9-3.2,6.6
				c0.5,1.2,1.6,4.2,0.8,5.5c-0.9,1.5-9.3,2.2-13.3-2.6l-0.4-2.9L191.6,171.3z"/>
			
				<radialGradient id="SVGID_5_" cx="-193.1627" cy="-4.7053" r="4.9382" gradientTransform="matrix(-1 0 0 -1 11.9349 168.819)" gradientUnits="userSpaceOnUse">
				<stop  offset="0" style="stop-color:#EBA87F"/>
				<stop  offset="0.1367" style="stop-color:#EEAC82"/>
				<stop  offset="1" style="stop-color:#FFC393"/>
			</radialGradient>
			<path class="st11" d="M202.8,169.1c-0.7,2.2,3.2,3.5,3.2,3.5l-4.9-0.1l-1.6,1.7c0,0,6,2.6,7.6,2.2c1.6-0.4,4.1-4.4,3.7-5.7
				C210.5,169.3,202.8,169.1,202.8,169.1z"/>
			
				<radialGradient id="SVGID_6_" cx="-190.7869" cy="-6.8998" r="5.18" gradientTransform="matrix(-1 0 0 -1 11.9349 168.819)" gradientUnits="userSpaceOnUse">
				<stop  offset="0" style="stop-color:#EBA87F"/>
				<stop  offset="0.1367" style="stop-color:#EEAC82"/>
				<stop  offset="1" style="stop-color:#FFC393"/>
			</radialGradient>
			<path class="st12" d="M200.2,170.9c-0.7,2.2,3.2,3.5,3.2,3.5l-1.9,0.7l-0.4,2c0,0,1.7,1.5,3.4,1.1c1.6-0.4,4.1-4.4,3.7-5.7
				C207.9,171.2,200.2,170.9,200.2,170.9z"/>
			<path class="st2" d="M198.2,172.2c-0.7,2.2,2.2,3,2.2,3l-1,1.1l-2.9-0.8l-1.6,1c0,0,4.2,3,5.9,2.6c1.6-0.4,4.1-4.4,3.7-5.7
				C204,171.9,198.2,172.2,198.2,172.2z"/>
		</g>
		<path class="st13" d="M163.3,154.3c0,0-5.9,5.7-11,10.6c-4,3.8-7.5,7.1-7.4,6.7c0.3-0.8-7.8-45.8-9.5-44.2
			c-1.7,1.7-7.3,25.4-7.5,30c-0.2,4.6,5.4,14,6.2,16.2s-2.9,6.5-2.9,6.5s-4.3,1.4-24.5,1.4h-1.3c-20.2,0-24.5-1.4-24.5-1.4
			s-3.6-4.3-2.9-6.5s6.3-11.6,6.2-16.2s-5.7-28.4-7.5-30c-1.7-1.6-9.8,43.4-9.5,44.2c0.1,0.3-1.9-1.6-4.6-4.1
			c-5.4-5.1-13.8-13.2-13.8-13.2s1.6-4,0.4-4.8c-1.1-0.8,0-3.2,1.7-3.8s5.4-40.4,5.4-40.4s5.6-3.4,12.4-8.2c5.6-4,12.1-9,16.8-13.9
			l20.4,5.4l20.4-5.4c5.2,5.5,12.7,11.1,18.7,15.3c5.9,4,10.4,6.8,10.4,6.8s3.6,39.8,5.4,40.4c1.7,0.6,2.9,3,1.7,3.8
			C161.7,150.3,163.3,154.3,163.3,154.3z"/>
		<path class="st14" d="M145.3,98.5c-23.8,12.3-63.1,11.4-76.2-1.4c5.6-4,12.1-9,16.8-13.9l20.4,5.4l20.4-5.4
			C131.8,88.7,139.2,94.3,145.3,98.5z"/>
		<path class="st15" d="M150.2,177.3c-4.9-0.3-6.5-2.5-6.7-5.1c-0.2-2.5,3.5-8.6,9.8-13.8s12.8-5.7,12.8-5.7s-1.9,2.9-1,4.4
			c1,1.6,3.3,3.4,3.1,5.1C168.1,163.9,150.2,177.3,150.2,177.3z"/>
		<path class="st5" d="M56.8,184.9l-1.2,12.5l-1.1,11.4c0,0-21.6-5.5-25.5-8.9c-1-0.9-1.9-2.8-2.6-5.1c-1.9-6.8-1.9-17.2,2.6-17.6
			C35,176.8,56.8,184.9,56.8,184.9z"/>
		<path class="st1" d="M55.2,197.4c0,0,0.1,0,0.4,0l-1.1,11.4c0,0-21.6-5.5-25.5-8.9c-1-0.9-1.9-2.8-2.6-5.1
			C36.7,200.8,55.2,197.4,55.2,197.4z"/>
		<polygon class="st3" points="152.7,211.9 93.5,218.9 92.9,210.9 147.7,191.1 		"/>
		<polygon class="st2" points="59.5,208.8 119.2,211.4 119.4,203.3 63.6,187.7 		"/>
		<path class="st5" d="M185.7,189.8c-0.3,4.6-1.4,9.3-3.1,10.9c-3.7,3.7-24.9,10.8-24.9,10.8l-1.7-11.7l-1.8-12
			c0,0,21.3-9.8,27.3-9.7C185,178.1,186.1,184,185.7,189.8z"/>
		<path class="st1" d="M185.7,189.8c-0.3,4.6-1.4,9.3-3.1,10.9c-3.7,3.7-24.9,10.8-24.9,10.8l-1.7-11.7c0.3,0.1,0.5,0.1,0.7,0.2
			C168,203.3,181.2,195.8,185.7,189.8z"/>
		<path class="st1" d="M134.8,215.3c-0.5,0.4-1.5,0.5-2.7,0.4c-4.5-0.4-12.4-3.5-14.7-5.1c-2.8-2.1-1.6-7.5,2.8-7.5
			c0,0,7.6,0.2,11.3-2.1c1.9-1.2,4.5-2.7,6.6-3.3c1.9-0.5,3.4-0.3,3.6,1.5C142.3,202.9,137.2,213.4,134.8,215.3z"/>
		<path class="st16" d="M134.8,215.3c-0.5,0.4-1.5,0.5-2.7,0.4c1.5-2.2,9.2-14,6-18c1.9-0.5,3.4-0.3,3.6,1.5
			C142.3,202.9,137.2,213.4,134.8,215.3z"/>
		<path class="st1" d="M76,217.9c0.4,0.5,1.2,1,2.4,1.3c4.4,1.1,12.9,0.8,15.6,0c3.4-1.1,4-6.6-0.2-8c0,0-7.2-2.3-9.9-5.7
			c-1.4-1.8-3.4-4-5.2-5.3c-1.6-1.1-3.1-1.4-3.9,0.2C73,203.8,74.3,215.4,76,217.9z"/>
		<path class="st16" d="M76,217.9c0.4,0.5,1.2,1,2.4,1.3c-0.7-2.6-4.1-16.3,0.2-19c-1.6-1.1-3.1-1.4-3.9,0.2
			C73,203.8,74.3,215.4,76,217.9z"/>
		<g class="st17">
			<rect x="105.5" y="88.6" class="st18" width="1.3" height="93"/>
		</g>
		<path class="st19" d="M152.3,164.8c-4,3.8-7.5,7.1-7.4,6.7c0.3-0.8-7.8-45.8-9.5-44.2c-1.7,1.7-7.3,25.4-7.5,30
			c-0.2,4.6,5.4,14,6.2,16.2s-2.9,6.5-2.9,6.5s-4.3,1.4-24.5,1.4h-1.3c-20.2,0-24.5-1.4-24.5-1.4s-3.6-4.3-2.9-6.5
			s6.3-11.6,6.2-16.2s-5.7-28.4-7.5-30c-1.7-1.6-9.8,43.4-9.5,44.2c0.1,0.3-1.9-1.6-4.6-4.1c0.3-2.4,0.5-4.1,0.5-4.1
			c3.6-3.4,14-41.5,14-41.5s9.1,27.9,9.3,33.8c0.2,5.9-5.7,15.9-5.9,18.2c-0.2,2.3,16.5,3.6,25.4,3.6s25.2-1.7,26-4
			s-6.3-6.3-5.9-16.7c0.4-10.4,8.2-32.6,10.2-34.1c1.9-1.5,6.3,38.7,13.7,39.6C151.6,162.5,152.3,163.4,152.3,164.8z"/>
		<g>
			<circle class="st19" cx="110.5" cy="174.2" r="1.7"/>
			<circle class="st19" cx="110.5" cy="153.4" r="1.7"/>
			<circle class="st19" cx="110.5" cy="132.7" r="1.7"/>
			<circle class="st19" cx="110.5" cy="112" r="1.7"/>
		</g>
		<path class="st2" d="M150.2,177.3c-1.6-7.5,8.7-16.7,15.9-15.5c7.1,1.1,15.5,7.9,27.7,7.1c3,4.9,2.7,6-3.3,7.3
			C184.4,177.4,160.2,180.4,150.2,177.3z"/>
		<path class="st15" d="M62.2,177.3c4.9-0.3,6.5-2.5,6.7-5.1c0.2-2.5-3.5-8.6-9.8-13.8s-12.8-5.7-12.8-5.7s1.9,2.9,1,4.4
			c-1,1.6-3.3,3.4-3.1,5.1C44.3,163.9,62.2,177.3,62.2,177.3z"/>
		<path class="st2" d="M62.2,177.3c1.6-7.5-8.7-16.7-15.9-15.5c-7.1,1.1-15.5,7.9-27.7,7.1c-3,4.9-2.7,6,3.3,7.3
			C27.9,177.4,52.2,180.4,62.2,177.3z"/>
		<path class="st20" d="M54.5,182.6c-1.7,1.2-3.2,24.7-2.1,26.2s7.2,1.9,8.2,1.3c1.1-0.6,5.9-23.9,5.5-25s-4-3.4-4.9-3
			c-0.8,0.4-0.8,1.5-2.1,1.7C57.8,184.1,55.1,182.2,54.5,182.6z"/>
		<path class="st20" d="M156.5,185.3c1.8,1,4.3,24.5,3.4,26c-1,1.6-7.1,2.4-8.1,1.9c-1.1-0.6-7-23.4-6.7-24.5s3.8-3.7,4.7-3.3
			s0.9,1.4,2.2,1.5C153.2,187,155.8,184.9,156.5,185.3z"/>
		<path class="st21" d="M107.9,187.3h-3.5c-1.4,0-2.6-1.2-2.6-2.6v-1c0-1.4,1.2-2.6,2.6-2.6h3.5c1.4,0,2.6,1.2,2.6,2.6v1
			C110.5,186.1,109.3,187.3,107.9,187.3z"/>
		<polygon class="st15" points="90,76.9 84.4,83.4 99.4,98.3 106.2,88.6 		"/>
		<polygon class="st15" points="122.4,76.9 128,83.4 113,98.3 106.2,88.6 		"/>
	</g>
</g>
</svg>
